<svg xmlns="http://www.w3.org/2000/svg" viewBox="0 0 385 281.96"><defs><style>.cls-1{fill:#c9f1ec;}.cls-2{fill:#3f3d56;}.cls-3{fill:#2f2e41;}.cls-4{fill:#00bea5;}.cls-5{fill:#e5e5e5;}.cls-6{fill:#9f616a;}.cls-7{fill:#05bda5;}.cls-8{fill:#baede7;}.cls-9{fill:#f539ff;}.cls-10{fill:#fdfdfd;}.cls-11{fill:#111a12;}.cls-12{fill:#f9f9f7;}.cls-13{fill:#f8faf7;}.cls-14{fill:#f0f2ef;}.cls-15{fill:#fbfcfa;}.cls-16{fill:#f8faf8;}.cls-17{fill:#ecefeb;}.cls-18{fill:#faf8f8;}.cls-19{fill:#006d51;}.cls-20{fill:#d4e706;}.cls-21{fill:#1d7c63;}.cls-22{fill:#d6e71a;}.cls-23{fill:#217e66;}.cls-24{fill:#d7e81d;}.cls-25{fill:#016b4f;}.cls-26{fill:#036c50;}.cls-27{fill:#d8e822;}.cls-28{fill:#00694c;}.cls-29{fill:#006a4d;}.cls-30{fill:#026c50;}.cls-31{fill:#0c7155;}.cls-32{fill:#28836c;}.cls-33{fill:#288169;}.cls-34{fill:#d4e8e7;}.cls-35{fill:#338973;}.cls-36{fill:#318770;}.cls-37{fill:#3c8d78;}.cls-38{fill:#1d7d64;}.cls-39{fill:#fcfdfd;}.cls-40{fill:#80a348;}.cls-41{fill:#559844;}.cls-42{fill:#a3cd64;}.cls-43{fill:#7ba04b;}.cls-44{fill:#a0cc63;}.cls-45{fill:#90c54a;}.cls-46{fill:#f3f8ed;}.cls-47{fill:#99ca53;}.cls-48{fill:#e1000f;}.cls-49{fill:#f7f2ef;}.cls-50{fill:#91c74a;}.cls-51{fill:#2a4429;}.cls-52{fill:#59b244;}.cls-53{fill:#182419;}.cls-54{fill:#4e8249;}.cls-55{fill:#202820;}.cls-56{fill:#386337;}.cls-57{fill:#8aaf54;}.cls-58{fill:#172318;}.cls-59{fill:#223422;}.cls-60{fill:#de0512;}.cls-61{fill:#db0915;}.cls-62{fill:#2c482b;}.cls-63{fill:#de0410;}.cls-64{fill:#da0a17;}.cls-65{fill:#f6edec;}.cls-66{fill:#f6efee;}.cls-67{fill:#f4e2e2;}.cls-68{fill:#405d3f;}.cls-69{fill:#456742;}.cls-70{fill:#3e533e;}.cls-71{fill:#f4f8f8;}.cls-72{fill:#f3f7f6;}.cls-73{fill:#a9cdc4;}.cls-74{fill:#d7c027;}.cls-75{fill:#df030f;}.cls-76{fill:#d8121f;}.cls-77{fill:#82c049;}.cls-78{fill:#5d8a45;}.cls-79{fill:#59ab46;}.cls-80{fill:#8fb77f;}.cls-81{fill:#58a246;}.cls-82{fill:#529041;}.cls-83{fill:#4b8a3f;}.cls-84{fill:#98c951;}.cls-85{fill:#a8d06f;}.cls-86{fill:#aad073;}.cls-87{fill:#9ec966;}.cls-88{fill:#88c779;}.cls-89{fill:#99ce89;}.cls-90{fill:#87c65d;}.cls-91{fill:#de0310;}.cls-92{fill:#de0411;}.cls-93{fill:#df0310;}.cls-94{fill:#d5131f;}.cls-95{fill:#cf0714;}.cls-96{fill:#6db648;}.cls-97{fill:#85c560;}.cls-98{fill:#3c6a36;}.cls-99{fill:#44b546;}.cls-100{fill:#53b74e;}.cls-101{fill:#66bc59;}.cls-102{fill:#4bb547;}.cls-103{fill:#3a743b;}.cls-104{fill:#396535;}.cls-105{fill:#4a893f;}.cls-106{fill:#335231;}.cls-107{fill:#fcc802;}.cls-108{fill:#fcc702;}.cls-109{fill:#016b8f;}.cls-110{fill:#efc713;}.cls-111{fill:#f7f2f0;}.cls-112{fill:#6bbd5b;}.cls-113{fill:#81c45e;}.cls-114{fill:#83c071;}.cls-115{fill:#7ea177;}.cls-116{fill:#769b6f;}.cls-117{fill:#8aae80;}.cls-118{fill:#4c8340;}.cls-119{fill:#91c481;}.cls-120{fill:#8fc97e;}.cls-121{fill:#53a142;}.cls-122{fill:#519844;}.cls-123{fill:#4e9043;}.cls-124{fill:#4f9341;}.cls-125{fill:#82c470;}.cls-126{fill:#74bf64;}.cls-127{fill:#bcd994;}.cls-128{fill:#a2cf7e;}.cls-129{fill:#75c064;}.cls-130{fill:#a3d393;}.cls-131{fill:#f5e6e6;}.cls-132{fill:#417f3e;}.cls-133{fill:#529e43;}.cls-134{fill:#4d9543;}.cls-135{fill:#3b763c;}.cls-136{fill:#f6f9f5;}.cls-137{fill:#55b853;}.cls-138{fill:#4c9149;}.cls-139{fill:#45b447;}.cls-140{fill:#f7f9f6;}.cls-141{fill:#54994f;}.cls-142{fill:#74bc66;}.cls-143{fill:#f3f8f6;}.cls-144{fill:#f4f9f7;}.cls-145{fill:#ecc40f;}.cls-146{fill:#377e86;}.cls-147{fill:#9da941;}.cls-148{fill:#d5050f;}.cls-149{fill:#6ba3ad;}.cls-150{fill:#297a95;}.cls-151{fill:#609ca9;}.cls-152{fill:#488342;}.cls-153{fill:#407940;}.cls-154{fill:#5ab244;}.cls-155{fill:#56ad42;}.cls-156{fill:#54a843;}.cls-157{fill:#5cb644;}.cls-158{fill:#4ea041;}.cls-159{fill:#f7faf6;}.cls-160{fill:#4b9945;}.cls-161{fill:#c4e1bc;}.cls-162{fill:#e0f0d3;}.cls-163{fill:#458a3f;}.cls-164{fill:#56a943;}.cls-165{fill:#f5f9f4;}.cls-166{fill:#3b783c;}.cls-167{fill:#42883f;}.cls-168{fill:#448142;}.cls-169{fill:#498b45;}.cls-170{fill:#96b592;}.cls-171{fill:#3c763e;}.cls-172{fill:#448b42;}.cls-173{fill:#438141;}.cls-174{fill:#5eb844;}.cls-175{fill:#5bb245;}.cls-176{fill:#3c763d;}.cls-177{fill:#3f7b3f;}.cls-178{fill:#ecf6e7;}</style></defs><g id="Layer_2" data-name="Layer 2"><g id="Layer_1-2" data-name="Layer 1"><path class="cls-1" d="M192.33,281.93Q97,281.93,1.6,282c-1.31,0-1.6-.29-1.6-1.6Q.06,141,0,1.6C0,.29.29,0,1.6,0Q192.51,0,383.4,0c1.31,0,1.6.29,1.6,1.6q-.06,139.38,0,278.76c0,1.31-.29,1.6-1.6,1.6Q287.87,281.9,192.33,281.93Z"/><path class="cls-2" d="M206.38,151.09c2.14-9.61,4.26-19.21,6.42-28.81q9-39.79,18-79.59c2.08-9.28,8.86-14.81,18.33-14.81h82.29c7.8,0,12.76,5.59,11.46,13.27-2,11.81-4.2,23.59-6.34,35.38-.16.84-.3,1.46.84,1.56.71.07.7.63.6,1.19q-2.12,11.53-4.23,23.06c-.08.41,0,1.25-.87.88-1.14-.5-1.25.26-1.39,1q-4.21,23.41-8.44,46.83-5.29,29.31-10.61,58.62c-1.55,8.55-3.08,17.1-4.66,25.63a19,19,0,0,1-20.16,15.89l-70.18-3.47c-5.27-.26-10.56-.33-15.8-.88-9.41-1-14.89-8.89-12.81-18.11q8.13-36.07,16.28-72.15c.23-.65.88-.64,1.38-.86,1.49-.68,1.69-1.47.73-2.79C206.77,152.4,205.94,152,206.38,151.09Z"/><path class="cls-3" d="M188.09,158.21a13.22,13.22,0,0,1-.27,5.49c-3.25,12.35-6.85,24.62-9.78,37.05a16.94,16.94,0,0,0-.48,3.95c0,7.3-.1,14.6-.72,21.88-.12,1.35,0,2.8-1,3.95a3.93,3.93,0,0,1-2.92.77,30.12,30.12,0,0,1-4.65-.15c-1.6-.34-2.06-1.44-2.06-3,0-5.1.1-10.19.3-15.28.24-6.2.05-12.4.06-18.6a7.8,7.8,0,0,1,.08-2c-1.29,2.46-2.59,5.17-4.11,7.74a22.37,22.37,0,0,0-3,9c-.75,6-1.66,11.94-2.85,17.85-.25,1.23-.4,2.57-1.8,3.18a16.85,16.85,0,0,1-6.17-.21,2.48,2.48,0,0,1-1.48-.81c-1-.33-1.58-.8-1.4-2,1.31-8.94,1.41-18,2.44-27,.39-3.45,1.06-6.88,3.48-9.64a2.19,2.19,0,0,0,.32-1c.26-1.13.22-2.43.79-3.36,2.95-4.91,1.67-10.4,2.31-15.61.44-3.67,1.12-7.34.73-11.07.29-1.64.83-3.07,2.81-3.26a3,3,0,0,1,1.47,2.56,8.61,8.61,0,0,0,1,3.27c.51.83,1,.88,1.48,0,.6-1.17,1.23-2.33,1.72-3.56.21-.52.29-1.14,1-1.32,2.35.33,4.16,1.94,6.35,2.65.76.25,1.49.62,2.24.93a11.33,11.33,0,0,0,11.65-1.26C186.39,158.88,187.06,158.17,188.09,158.21Z"/><path class="cls-4" d="M188.09,158.21c-5.22,4.72-10.88,5-16.94,1.76-1.88-1-3.86-1.83-5.79-2.73-1.37-2.92-2.81-5.8-4.18-8.72-2-4.24-3.91-8.51-6.06-12.68-1.11-2.15-1.5-4.17-.22-6.39.54-.94.84-2,1.32-3,.63-1.3.39-2.13-1-2.75-2.49-1.13-5-1.85-7.72-1.07a1.43,1.43,0,0,1-1,0c-.61.17-.67-.19-.63-.65.46-5.42.83-10.87,3-15.93,1.22-2.8,3.62-4.6,6-6.28A56.06,56.06,0,0,1,164,95c1-.11,1.68.66,2.41,1.16,1.89,1.32,3.76,2.66,5.63,4,.36.26.79.65,1.24.35s.14-.84.05-1.27c-.12-.6-.5-1.2,0-1.8a6.83,6.83,0,0,1,3.2,4.14A49.12,49.12,0,0,1,179.21,118a60,60,0,0,0,3,17.55,6.77,6.77,0,0,1,1.14,2.5c.57,2.53,1.31,5,1.95,7.53.16.66.44,1.34,0,2Q186.66,152.9,188.09,158.21Z"/><path class="cls-5" d="M187.63,248.21c-.25.11-.51.32-.77.31-6.44-.19-12.66,1.75-19.05,2.07-4.15.21-8.29.51-12.44.71-7.39.34-14.76.83-22.15,1.11-4.09.16-8.2.29-12.27.67-13.28,1.24-26.6,1.13-39.9.95a175.84,175.84,0,0,1-17.59-1.26,142.58,142.58,0,0,1-15.68-2.52A18.52,18.52,0,0,1,43,248.6c-1.56-.83-1.6-1.48-.15-2.41A24.48,24.48,0,0,1,51,243.36a167.87,167.87,0,0,1,20.85-2.92,208.89,208.89,0,0,1,24.63-.54c6.56.21,13.11.78,19.64,1.59,4.63.57,9.31.76,14,1.12l13.62,1a1.54,1.54,0,0,1,.39,1.45c-.18,1.51.71,2.08,2,2.36a6.32,6.32,0,0,0,1.56.17c6.6-.31,13.18.59,19.8.21,5.89-.35,11.81-.31,17.72-.19C186,247.66,186.94,247.48,187.63,248.21Z"/><path class="cls-3" d="M187.63,248.21c-5.71.17-11.43,0-17.15.13a119,119,0,0,1-14.87-.11c-2.34-.23-4.73,0-7.1,0a13.92,13.92,0,0,1-2.58-.24c-2.39-.47-2.62-.85-2.23-3.3a8.78,8.78,0,0,0,0-1c.93-1.92.87-4.09,1.47-6.08.25-.85,0-2,1.33-2.32a1.08,1.08,0,0,1,.74.41c.79,1.12,1.63,1.78,3.16,1.14,1.17-.49,2.14-1,2.55-2.29a3.25,3.25,0,0,1,1.59-2.16c1-.13,1.21.74,1.56,1.36,1.89,3.29,5.11,5.14,8,7.38.7.56.87-.1,1-.63a25.14,25.14,0,0,1,.75-3.57c.25-.7.38-1.49,1.2-1.81.67-.13,1.06.29,1.47.71a3.16,3.16,0,0,0,5.16-.89,9.2,9.2,0,0,1,1.22-2.27.67.67,0,0,1,.92-.17c1.95,3.84,5.42,6.16,8.69,8.68a15.19,15.19,0,0,0,3.67,1.89c1,.42,2.27.88,2.34,2.26s-1.1,1.79-2,2.4C188.24,247.88,187.93,248,187.63,248.21Z"/><path class="cls-6" d="M146.49,122.6c3.76-1.7,7.1-.32,10.39,1.44.63.34.44.82.23,1.34-.68,1.6-1.22,3.26-2,4.8a4.73,4.73,0,0,0,.07,4.69c3.25,6.39,6,13,9.38,19.36a10.9,10.9,0,0,1,.8,3,47.47,47.47,0,0,1-2.38,5.18c-.68,1.33-1.26,1.06-1.95.07a6.61,6.61,0,0,1-1.19-3.4,4.31,4.31,0,0,0-1.15-2.8,6.33,6.33,0,0,1-2.37-3.27c-3.21-4.66-6.38-9.35-9.66-14a5.63,5.63,0,0,1-1-4C146,130.9,146.21,126.75,146.49,122.6Z"/><path class="cls-6" d="M173.35,97.49c.12.5.24,1,.37,1.49.19.75.8,1.63,0,2.21s-1.38-.25-2-.67L164,95c0-2.08-.1-4.09-1.95-5.58a4.1,4.1,0,0,1-1.24-2.41.87.87,0,0,1,.92-.66c1.53.19,1.71-.77,1.74-1.92s.29-2.18.38-3.28a1.72,1.72,0,0,1,2.22-1.77,19.4,19.4,0,0,0,6.92-.31c1.8-.38,3.33-.08,4.39,1.6.11.17.21-.24.06-.06a2.45,2.45,0,0,1,.18-3c.3,3.74.45,7.47-1.19,11a6.32,6.32,0,0,1-2.83,3A1.86,1.86,0,0,0,172.53,94,15.75,15.75,0,0,0,173.35,97.49Z"/><path class="cls-6" d="M185.25,147.59q-1.55-6-3.08-12c4.89,3.31,9.74,6.69,14.7,9.9,3.08,2,6.33,3.76,9.51,5.63a2.47,2.47,0,0,0,.83,1.28c1.79,1.95,1.39,3.27-1.16,3.92-.33.08-.65.21-1,.32-1.74-.51-3.82-.29-5.18-1.61-3.6-3.5-8.44-4.59-12.68-6.83A3.41,3.41,0,0,0,185.25,147.59Z"/><path class="cls-3" d="M177.62,77.63v3.46c-1.47-2-3.32-1.81-5.33-1.37a16.36,16.36,0,0,1-6.54.11c-1.12-.22-1.37.36-1.45,1.34-.16,2-.44,4-.68,6.13-1-.21-1.88-1-2.81-.25A8.92,8.92,0,0,1,161.69,77c.61-.68,1-1.53,1.64-2.23a6,6,0,0,1,6.83-2.06A18.91,18.91,0,0,1,175.54,75,4,4,0,0,1,177.62,77.63Z"/><path class="cls-6" d="M154.61,232.43a7.19,7.19,0,0,0-1,1.78c-.42,1.77-1.6,2.45-3.22,3.11-2.4,1-2.81-.92-3.81-2.08a45.85,45.85,0,0,0,.73-6.19,29.54,29.54,0,0,0,7.67.73A1.78,1.78,0,0,1,154.61,232.43Z"/><path class="cls-6" d="M175.81,232.45c-1.15.42-1.3,1.56-1.67,2.47a3.52,3.52,0,0,1-6,1.08,2.1,2.1,0,0,0-1.07-.81c.31-1.49-.17-3.18,1.08-4.45a55.13,55.13,0,0,0,7.71-.21C175.84,231.17,175.83,231.81,175.81,232.45Z"/><path class="cls-7" d="M156.32,153a17.38,17.38,0,0,1,2.37,3.27,5.17,5.17,0,0,0-2.75,3.13A6.68,6.68,0,0,1,156.32,153Z"/><path class="cls-4" d="M289.43,242.59l-34.36-2.28-28.46-1.86c-7.52-.49-15-.93-22.56-1.46A7.5,7.5,0,0,1,197,227.8c3-14.21,6.14-28.4,9.23-42.59q11.06-50.64,22.11-101.28,4.57-21,9.13-41.9A12.19,12.19,0,0,1,249.68,32c2.78-.07,5.56,0,8.35,0A1.34,1.34,0,0,1,259.61,33a6,6,0,0,0,6.19,4.56q21.58,0,43.15,0A3.85,3.85,0,0,0,313,34.83,4,4,0,0,1,317.13,32c3.08,0,6.15-.08,9.22,0a8.58,8.58,0,0,1,8.32,10.44q-7.43,41.21-14.83,82.4-6.69,37.17-13.43,74.35c-2.09,11.63-4.16,23.26-6.29,34.87C299.08,239.67,295.13,242.76,289.43,242.59Z"/><path class="cls-1" d="M168.15,230.74c-.6,1.43.09,3.16-1.08,4.45-1.47,2.07-1.17,4.61-1.95,7.16-3.32-2.53-6.91-4.59-9.21-8.18-.39-.61-.47-1.46-1.3-1.74l.33-2.65c.93-.39.86-1.31,1-2.05,1.55-7,2.45-14.14,3.46-21.24a10.91,10.91,0,0,1,1.15-3.78c2-3.61,3.86-7.25,5.79-10.87.21-.39.45-.76.56-.94,0,8.13,0,16.39,0,24.65,0,4.34,0,8.69-.22,13A1.89,1.89,0,0,0,168.15,230.74Z"/><path class="cls-8" d="M251.71,55c3.36,0,6.73-.18,10.08,0,10.2.62,20.4-.09,30.58.38,9.68.44,19.34.09,29,.28,1.85,0,3.66.45,5.53.37,1.48-.06,1,1.2.91,1.92-.41,2.56-1,5.09-1.43,7.64-1.61,8.78-3.18,17.56-4.79,26.33-1.5,8.21-3,16.42-4.56,24.63q-2.58,14-5.16,28-1.42,7.81-2.81,15.64c-.19,1.11-.64,1.68-1.93,1.63-6.58-.3-13.17-.41-19.75-.78q-6.83-.37-13.66-.69c-7.44-.34-14.87-.75-22.32-1.07-4.37-.18-8.75-.48-13.14-.66-6.8-.26-13.6-.68-20.4-1-1.37-.07-1.49-.84-1.26-1.88,1.62-7.2,3.26-14.39,4.87-21.59q4.85-21.76,9.69-43.54,3.32-14.85,6.72-29.68a23.14,23.14,0,0,0,.82-3.7c.11-1.87.9-2.42,2.73-2.34,3.42.15,6.85.05,10.27.05Z"/><path class="cls-9" d="M256.07,223.87c-11.31-1.08-22.32-2.14-33.33-3.15-.94-.09-1.23-.37-1-1.28.51-2.2,1-4.4,1.44-6.61.23-1.14,1.06-.88,1.77-.82l13.68,1.11c6.46.55,12.92,1.16,19.39,1.62,1.65.12,2,.6,1.48,2.11a40.56,40.56,0,0,0-1.28,5.22C257.93,223.52,257.38,224.33,256.07,223.87Z"/><path class="cls-5" d="M231.82,180.29c5.86.46,11.72.94,17.58,1.35,2,.14,3.92.24,5.87.37,6.45.43,12.89.84,19.32,1.39,4,.34,8.06.52,12.1.73,1.85.09,2.1.36,1.65,2.21-.7,2.87-.69,2.75-3.7,2.4-3.32-.38-6.67-.51-10-.78-5.52-.44-11-.91-16.54-1.35-3.22-.26-6.44-.48-9.65-.73l-16.89-1.37-.34,0c-2.75-.19-2.65-.16-1.92-2.78C229.73,180.2,230.68,180.22,231.82,180.29Z"/><path class="cls-5" d="M228.85,193.19l17.38,1.34c1.84.14,3.69.18,5.53.33,6,.5,12.1.68,18.14,1.14,4.71.36,9.41.88,14.14,1,1.2,0,1.53.62,1.33,1.67-.1.57-.31,1.12-.41,1.68-.22,1.31-1,1.65-2.24,1.52-5.84-.64-11.71-1-17.57-1.43-7.35-.59-14.7-1.26-22.06-1.73-5.46-.36-10.91-.92-16.36-1.35-.9-.07-1.19-.22-1-1.24C226.44,193.25,226.45,193.17,228.85,193.19Z"/><path class="cls-5" d="M233.41,168.75c7.51.51,14.41,1,21.32,1.43,2.13.14,4.26.14,6.4.32,5,.41,10,.56,15.05.74,1.36,0,1.75.59,1.52,1.84-.63,3.34-.62,3.29-4.18,2.78-1.83-.26-3.69-.21-5.53-.37-5.8-.49-11.63-.72-17.45-1.12-6.21-.42-12.41-.93-18.62-1.36-.93-.06-1.3-.36-1-1.28a1.94,1.94,0,0,0,.16-.5C231.14,169.31,231.88,168.21,233.41,168.75Z"/><path class="cls-10" d="M282.23,104.08a6.15,6.15,0,0,0-.87,1.16c-.24.72-.62,1-1.31.83a1,1,0,0,1-.94-1.25,17.34,17.34,0,0,1,.61-2.71,2,2,0,0,1,2.06-1.43,32.09,32.09,0,0,1,5.46.56c1.23.32,2.72-.26,3.94.35.21.11.46-.12.55-.4.17-.57-.2-.83-.61-.93a33.87,33.87,0,0,0-3.5-.49c-.68-.08-1.4,0-1.64-.63a2.24,2.24,0,0,1,.7-2.16c1.81-2.17,3.61-4.36,5.43-6.55.61-.73,1-1.15-.29-1.48-3.74-1-5.72-3.69-6.66-7.26-.39-1.52,0-3.18.27-4.76.54-3.94,2.89-7,6.5-9.18,2.42-1.46,4.94-2.72,7.66-1.93a7.27,7.27,0,0,0,2.19-.15,3.28,3.28,0,0,1,2.17.54,1.32,1.32,0,0,0,1.47.27.74.74,0,0,1,1,.35,15.07,15.07,0,0,0,2.06,1.76,7.11,7.11,0,0,1,2.2,4.56,17.69,17.69,0,0,1-.34,5.08c-.54,2.86-2.18,5.18-4,7.47q-4.44,5.61-8.85,11.13-1.35,1.71-2.76,3.36c-.36.42-.82.86-.38,1.26a1,1,0,0,0,1.48-.06c1.22-1.31,2.45-.51,3.68-.58.13,0,.37.08.37.15,0,1.89,1.72,1.08,2.74,1.23a2.29,2.29,0,0,1,1.55,3.86,3.12,3.12,0,0,0-.52.94,1.47,1.47,0,0,1-1.76,1.16c-2-.24-4-.45-6-.78-1-.17-2,.2-2.94.06a89.69,89.69,0,0,0-9.53-1C282.07,106.41,282.24,105.33,282.23,104.08Z"/><path class="cls-11" d="M241.59,91.56l-.8-.85a6.43,6.43,0,0,0-.71-.84l-.34-.32a13,13,0,0,1-2.33-6.38,1.71,1.71,0,0,1,.26-1.12.62.62,0,0,1,.83-.22c.36.78.17,1.81.54,2.6a2.07,2.07,0,0,0,.41,1.35c.94,1.38,1.83,2.82,2.86,4.13a5.29,5.29,0,0,0,2.32,1.92c.28.14.6.21.87.37.48.51,1.21.4,1.84.57a2,2,0,0,1,.32.1,36.27,36.27,0,0,0,4.58.57c.4,0,.94-.09.75.68-.88.74-1.75.48-2.62.46l-3.29-.25a6.92,6.92,0,0,1-3.39-1C243.1,92.56,242.16,92.3,241.59,91.56Z"/><path class="cls-12" d="M252,95c-2.56-.17-5.08-.45-7.6-.66A1.17,1.17,0,0,1,243.16,93c.19-.14.34-.13.47,0,1.11.29,2,1.16,3.27,1.07a13.2,13.2,0,0,0,3.73.29A4.18,4.18,0,0,0,253,94c1.53-.81,3.22-1.09,4.68-2.21a7.46,7.46,0,0,1,2.43-1.41.81.81,0,0,1,.69.44,1.49,1.49,0,0,1-1.44,1.49c-.63.07-1,.29-.76,1,.1.32-.17.66-.33.46-.55-.68-1.08,0-1.51.25"/><path class="cls-13" d="M260.81,90.82c-.27,0-.57,0-.68-.33s.12-.44.27-.63c.3-.3.59-.61.9-.89a19.78,19.78,0,0,1,1.54-1.63,5.64,5.64,0,0,0,.79-1c.42-.46.54-1.21,1.23-1.41h.22l-.35,1.6A6,6,0,0,1,262.67,89a.8.8,0,0,0-.31.72C262.36,90.94,261.67,91,260.81,90.82Z"/><path class="cls-14" d="M242.29,86.57l-.37,0c-.49-.28-1.11-.4-1.24-1.12A5.31,5.31,0,0,1,242.29,86.57Z"/><path class="cls-15" d="M268.49,73.79c-.81-.18-.89-.89-.89-1.65C268.14,72.51,268.92,72.72,268.49,73.79Z"/><path class="cls-16" d="M238.44,76c0-.18,0-.36.05-.54.11-.42.21-.85.32-1.27H239a1.7,1.7,0,0,1-.23,1.69A.29.29,0,0,1,238.44,76Z"/><path class="cls-17" d="M240.08,89.87a1,1,0,0,1,.71.84C240.35,90.64,240.18,90.28,240.08,89.87Z"/><path class="cls-18" d="M262.25,91.21a.79.79,0,0,1-.73-.06A.64.64,0,0,1,262.25,91.21Z"/><path class="cls-19" d="M290.23,99.32c-.91-.07-1.82-.16-2.73-.19s-.87-.36-.32-1q3.26-4,6.49-8c1.12-1.39,1.08-1.49-.45-1.85-5.57-1.31-8.4-6.59-6.66-12.33a14.18,14.18,0,0,1,13.17-9.47c4,.07,3.93,0,2.11,3.77a1.8,1.8,0,0,1-2.28,1.26,7.62,7.62,0,0,0-7.87,4.74c-1.17,3.11.21,6.22,3.16,7.07a7.66,7.66,0,0,0,8.57-3.66,5,5,0,0,0,.75-2.3c0-.92.51-1.21,1.34-1.34s1.63-.31,2.44-.47c2-.4,2-.37,1.71,1.64a11.47,11.47,0,0,1-2.3,5.38c-4.3,5.51-8.59,11-12.83,16.37a1.4,1.4,0,0,1-1.42.65c-.95-.11-1.92-.15-2.89-.22Z"/><path class="cls-20" d="M301.3,77.72A4.44,4.44,0,0,1,297.06,81a2.9,2.9,0,0,1-2.9-3.53,4.45,4.45,0,0,1,4.21-3.27A2.92,2.92,0,0,1,301.3,77.72Z"/><path class="cls-21" d="M292,103.2c.08-.38.14-.77.26-1.15s0-1,.63-1.06.3.56.26.91c-.09.83.63.49,1,.57.83.18,1.37.62,1.36,1.5a2.49,2.49,0,0,1-1.09,2.23,2.13,2.13,0,0,1-2.36,0,1.05,1.05,0,0,1-.45-1.23c.11-.58.25-1.16.38-1.74Z"/><path class="cls-22" d="M309.63,73.85c-.05.25-.18.42-.42.41s-.4-.32-.47-.58a8.44,8.44,0,0,0-2.09-3.81,7,7,0,0,0-2.08-1.53c-.25-.11-.55-.3-.35-.64s.55-.25.79-.12a9,9,0,0,1,4.57,5.87C309.61,73.58,309.61,73.73,309.63,73.85Z"/><path class="cls-23" d="M290.46,102.46a1.92,1.92,0,0,1,.18,2.64,2.06,2.06,0,0,1-1.87,1.07,1.74,1.74,0,0,1-1.8-1.88.45.45,0,0,1,.12-.6c.37-.57.63-1.24,1.44-1.36A3.5,3.5,0,0,1,290.46,102.46Z"/><path class="cls-24" d="M303.45,69.62a7,7,0,0,1,2.19,1.71,6.85,6.85,0,0,1,1.47,2.89.53.53,0,0,1-.24.66.36.36,0,0,1-.54-.27,6.59,6.59,0,0,0-3.27-4.3.47.47,0,0,1-.14-.47C303,69.62,303.2,69.57,303.45,69.62Z"/><path class="cls-25" d="M298.86,101.29c.91.62.49,1.3.39,1.87-.17,1-.41,1.94-.63,2.91-.07.33-.12.75-.62.67s-.23-.44-.17-.72C298.15,104.53,298.48,103,298.86,101.29Z"/><path class="cls-26" d="M301.11,103.27a1.61,1.61,0,0,1,1.77.18,1.22,1.22,0,0,1,.64,1.52c-.26.69-1,.56-1.57.61s-1.18-.63-1.67.31c0,.34-.17.46-.49.35a2,2,0,0,1,.53-2.45c.38-.13.46.14.57.37a1.85,1.85,0,0,1,.12.33,1,1,0,0,0,1.26.12c0-.67-.74-.52-1.07-.81C301.05,103.66,300.93,103.51,301.11,103.27Z"/><path class="cls-27" d="M304.82,75.12c-.05.07-.12.24-.24.3a.32.32,0,0,1-.47-.16,5.71,5.71,0,0,0-2.29-3c-.09,0-.1-.36,0-.5s.32-.2.53-.16C303.18,71.8,305,74.26,304.82,75.12Z"/><path class="cls-28" d="M297,104.72c-.42.55,0,1.73-.76,1.69s-.2-1.14-.05-1.73-.09-1.8.83-1.76C297.67,103,296.87,104.08,297,104.72Z"/><path class="cls-29" d="M281.46,101.77c.94-.44,1.69,0,2.51.2a4.41,4.41,0,0,1,2.08.14l0,0c.08.16,0,.29-.14.4-.57.07-1.09-.09-1.65,0-.69.92-.37,2-1,3h0c-.67,0-.26-.54-.24-.84,0-.6.4-1.2.24-1.8h0c-.33-.85-1.31-.3-1.87-.65A.27.27,0,0,1,281.46,101.77Z"/><path class="cls-30" d="M285.94,102.43l.08-.3a.78.78,0,0,1,.41.93,1.35,1.35,0,0,1,0,1.46c-.33.36-.12,1.14-.93,1.12-.25-1,.44-1.92.31-2.87C285.72,102.63,285.76,102.52,285.94,102.43Z"/><path class="cls-31" d="M281.46,101.77l-.06.32a7.63,7.63,0,0,1-.69,3.11c-.09,0-.25.11-.27.08C279.94,104.58,280.61,102.29,281.46,101.77Z"/><path class="cls-32" d="M280.71,105.2l.69-3.11c.65.18,1.68-.38,1.86.72-1.35-.84-1.67-.69-2.05.9C281.08,104.21,281.16,104.76,280.71,105.2Z"/><path class="cls-33" d="M299.79,106.24l.49-.35a1.51,1.51,0,0,0,1.71.54c.6-.17.62-.06.54.63a5.07,5.07,0,0,1-2.06-.16A.7.7,0,0,1,299.79,106.24Z"/><path class="cls-34" d="M286.31,104.53c.37-.51-.15-1,.12-1.47.42,0,.41.45.66.63l-.12.6c-.6.31-.27,1.09-.86,1.4A1.32,1.32,0,0,1,286.31,104.53Z"/><path class="cls-32" d="M283.26,105.46c.34-1,.11-2.18,1-3.13.08.07.1.13,0,.19s-.08.09-.11.09C283.72,103.53,284.06,104.6,283.26,105.46Z"/><path class="cls-32" d="M283.26,102.82c.56.8-.55,1.83,0,2.64-.7.33-.55-.18-.49-.52C282.91,104.23,283.09,103.52,283.26,102.82Z"/><path class="cls-35" d="M286.05,102.11,284,102A1.92,1.92,0,0,1,286.05,102.11Z"/><path class="cls-36" d="M297.12,102.18c-.27-.07-.45-.18-.34-.49a.46.46,0,0,1,.48-.29c.29,0,.38.2.3.49A.44.44,0,0,1,297.12,102.18Z"/><path class="cls-33" d="M300.58,104.5c0-.28,0-.56-.26-.71a.85.85,0,0,1,.79-.52l.3.41C301.32,104.14,301.17,104.53,300.58,104.5Z"/><path class="cls-37" d="M300.47,106.9l2.06.16A2.06,2.06,0,0,1,300.47,106.9Z"/><path class="cls-38" d="M286.31,104.53l-.2,1.16c-.23.13-.46.29-.58,0C286,105.42,285.85,104.78,286.31,104.53Z"/><path class="cls-23" d="M290.46,102.46l-1.93-.13A1.69,1.69,0,0,1,290.46,102.46Z"/><path class="cls-35" d="M284.17,102.61l.06-.28,1.71.1-.1.34A2.94,2.94,0,0,0,284.17,102.61Z"/><path class="cls-39" d="M282.69,87.67c-.2.46-.44.82-.95.52Z"/><path class="cls-40" d="M266.42,70.48a15.78,15.78,0,0,1-.55,12.15c-.55-1-.12-2.19.11-3.31a13.28,13.28,0,0,0-.38-6.69,1.16,1.16,0,0,1,0-.42C265.72,71.59,265.54,70.83,266.42,70.48Z"/><path class="cls-41" d="M264.86,84.9c-.48.44-.55,1.16-1.11,1.55-.41.08-.62.56-1,.72s-.8.73-1.31.46a.73.73,0,0,1,0-.36,5.84,5.84,0,0,0,1.62-3.58,2,2,0,0,1,.59-1c.48-.32.85-.86,1.41-1a.35.35,0,0,1,.29.13,4.51,4.51,0,0,1-.46,2.91Z"/><path class="cls-42" d="M257.59,62.92A10.41,10.41,0,0,1,263.26,66a.54.54,0,0,1-.06.54c-.55.33-.72-.18-1.05-.34a8.46,8.46,0,0,0-1.17-.9,5.19,5.19,0,0,0-4.77-.51.92.92,0,0,1-.67-.2c-.25-.56.15-.88.59-1.09a5.32,5.32,0,0,1,1.28-.55Z"/><path class="cls-43" d="M264.89,84.63a19.92,19.92,0,0,1,.39-2.94,17.44,17.44,0,0,0,.33-6.49,3.47,3.47,0,0,0-.41-1.52.88.88,0,0,1,.56-1.09c.93,1,.66,2.56.8,3.9.21,2-.73,4.11-.69,6.14A4.27,4.27,0,0,1,264.89,84.63Z"/><path class="cls-44" d="M263.1,66.6l.16-.6a4.1,4.1,0,0,1,2.23,2.53c-.66.3-.71-.35-1-.59-.17.45-.28.91-.42,1.36a.53.53,0,0,1-.48.14c-.2-.14-.55,0-.67-.29a1.75,1.75,0,0,1,0-.72C263.14,67.81,262.85,67.23,263.1,66.6Z"/><path class="cls-45" d="M266.42,70.48c-.52.56-.38,1.23-.61,1.84-1-.33-1-1.45-1.46-2.18a1.56,1.56,0,0,1,.15-.59c1-1.21,1.21,0,1.67.35A.53.53,0,0,1,266.42,70.48Z"/><path class="cls-46" d="M246.58,65.19c.54-.93,1.51-.89,2.2-1.48,1.24-.4,2.49-.74,3.72-1.22.57-.23.86.19,1.33.11a1.23,1.23,0,0,0,0,.19.82.82,0,0,1-.32.24,21.82,21.82,0,0,0-2.81.71,19.31,19.31,0,0,0-2.9,1.24C247.38,65.16,247,65.56,246.58,65.19Z"/><path class="cls-47" d="M266.17,69.9c-.56.06-.65-1.19-1.5-.3a.46.46,0,0,1-.67-.3c-.61-.54.76-1.34,0-1.89.85,0,.82,1,1.47,1.12A2.45,2.45,0,0,1,266.17,69.9Z"/><path class="cls-42" d="M253.71,62.81a1.13,1.13,0,0,1,.12-.21c1.26.07,2.61-.2,3.76.32l-.1.07a3.91,3.91,0,0,1-1.76.29C255.05,63.13,254.19,63.46,253.71,62.81Z"/><path class="cls-48" d="M268.4,112.54a28.52,28.52,0,0,1,3-.69,5,5,0,0,1,4,.82c2.27,2,2.06,5.7.43,8.43-1,1.67-2.15,2.2-3.74,3.3a3.7,3.7,0,0,1-.54.37c-.22.1-.48.25-.65,0s0-.56.21-.74c.65-.54,1.26-.12,1.78-.79a4.91,4.91,0,0,0,1.29-4c-.45-1-1.33-1.09-2.33-.86a22.89,22.89,0,0,0-4.1,1.88c-1.31.65-2.54,1.49-3.84,2.14s-3.27.77-3.51-.82c-.36-1.78.73-3,1.9-4.23A22.85,22.85,0,0,1,268.4,112.54Z"/><path class="cls-49" d="M267.91,111.46a.42.42,0,0,1-.48.36c-1-.23-2.25.44-2.88-.77a3.65,3.65,0,0,1,.92-3.77l.09.13a.92.92,0,0,1-.11.62l-.05.09c-1.18,2.09-.62,3.18,1.57,3a1.71,1.71,0,0,1,.6,0A.48.48,0,0,1,267.91,111.46Z"/><path class="cls-50" d="M253.71,62.81l2.15.1c-.26.78-.79.37-1.19.54.05.45.53.79.1,1.38a1.44,1.44,0,0,1-.89.43,16.65,16.65,0,0,0-7.12,1.34,2.05,2.05,0,0,1-1.06.24c-.3-.07-.32-.33-.24-.63l1.12-1c1.39-.42,2.65-1.53,4.09-1.7,1-.24,2-.4,3.06-.67Z"/><path class="cls-51" d="M240.19,72.2a2.52,2.52,0,0,1,.67-1c.59.16.31.68.16,1.09a7.56,7.56,0,0,0-.5,2.48,12.41,12.41,0,0,1-.55,2.93,12.36,12.36,0,0,0-.13,6.12,12.91,12.91,0,0,0,3.21,5.3.93.93,0,0,1,.24.62.81.81,0,0,1-.14.35.51.51,0,0,1-.49.13.58.58,0,0,1-.25-.19,23.5,23.5,0,0,1-3.2-4.9,14.76,14.76,0,0,1-.35-7.78A1.9,1.9,0,0,1,239,77C239.52,75.38,239.64,73.77,240.19,72.2Z"/><path class="cls-52" d="M243.3,68.35a.16.16,0,0,1,0-.17,1.39,1.39,0,0,1,.75-.3,2.42,2.42,0,0,0,1.37-.53,14.13,14.13,0,0,1,7-2.18c.52,0,1.16-.16,1.41.48a.51.51,0,0,1-.12.4c-1.16.57-2.24-.1-3.39.45a1.73,1.73,0,0,1-.37.11c-2.14.09-3.9,1.65-5.76,2.76a2.07,2.07,0,0,1-1.13.47.36.36,0,0,1-.22-.28A1.53,1.53,0,0,1,243.3,68.35Z"/><path class="cls-53" d="M239.12,77.06l-.06.26a10.65,10.65,0,0,0-.39,4.05.71.71,0,0,1-.15.59.75.75,0,0,0-.8.3,3.92,3.92,0,0,1,.05-2.32,9.64,9.64,0,0,1,.88-4.09l.39-1.64a.51.51,0,0,1,.17,0c.6,0,.4.51.32.89C239.41,75.74,239.29,76.4,239.12,77.06Z"/><path class="cls-54" d="M243.3,68.35,243,69.73c-.71,1.65-1.47,3.27-2.08,5a.45.45,0,0,1-.33.2.32.32,0,0,1-.2-.28,10.26,10.26,0,0,1,.38-2c.4-1.07.89-2.11,1.35-3.16C242.44,68.94,242.74,68.46,243.3,68.35Z"/><path class="cls-55" d="M239.12,77.06c-.38-.89.6-2,.09-2.88a7.31,7.31,0,0,1,1-2A13.77,13.77,0,0,1,239.12,77.06Z"/><path class="cls-56" d="M242.15,69.42c.18,1.16-.89,2-1.12,3.07a10.5,10.5,0,0,0-.59,2.14l-.14.16a4,4,0,0,1,.39-2.44c.13-.4.46-.78.17-1.16A5.93,5.93,0,0,1,242.15,69.42Z"/><path class="cls-57" d="M244.05,68.21l-.71,0a5.87,5.87,0,0,1,2.12-2l.09.51C245.43,67.68,244.59,67.76,244.05,68.21Z"/><path class="cls-58" d="M253.54,85.74a8,8,0,0,1-3.85,1.61c-1.11-.16-2.22-.3-3.32-.48-.37-.05-.83.11-1.08-.28.46-.38.91-.18,1.37-.19,1.2,0,2.35.41,3.62,0,.79-.27,1.6-.42,2.39-.75C253,85.51,253.32,85.42,253.54,85.74Z"/><path class="cls-59" d="M250.43,86.56a2.5,2.5,0,0,1-1.75.29l-3.39-.26h0c-.49-.27-1.16-.11-1.58-.53-.25,0-.56,0-.69-.26s-.23-.37.1-.54c1.06,0,1.91.63,3,.76a11.7,11.7,0,0,0,3,.2C249.55,86.16,250.1,86.1,250.43,86.56Z"/><path class="cls-59" d="M239.46,85.13a53.48,53.48,0,0,0,3.16,4.92c-.19.13-.35.13-.47,0a16.37,16.37,0,0,1-2.85-4.12.5.5,0,0,1-.06-.48A.8.8,0,0,1,239.46,85.13Z"/><path class="cls-55" d="M239.46,85.13l-.05.26c-.62.11-.35-.54-.53-.81a3.34,3.34,0,0,1-.36-2.62c0-1.12,0-2.23.06-3.35a1.55,1.55,0,0,1,.48-1.29c-.09.94-.21,1.88-.26,2.82A12.88,12.88,0,0,0,239.46,85.13Z"/><path class="cls-58" d="M242.15,90l.47,0h0c.6.4,1.16.86,1.74,1.29a1,1,0,0,1,.07.15l.12.54A3.42,3.42,0,0,1,242.15,90Z"/><path class="cls-58" d="M247.81,87.64a5.11,5.11,0,0,1-2.94-.23Z"/><path class="cls-58" d="M243.71,86.06a3.27,3.27,0,0,1,1.58.53C244.76,86.42,244,86.83,243.71,86.06Z"/><path class="cls-53" d="M238.88,84.58l.53.81-.11.51C238.68,85.72,238.8,85.14,238.88,84.58Z"/><path class="cls-60" d="M287.86,124.69c-.24,1-.5,1.09-.69,2.14-.15.83-.64.66-1.11.6s-1,0-.8-.81c.51-2.07.94-3.16,1.42-5.25.26-1.13,1.12-.61,1.66-.69s.28.55.21.88C288.35,122.61,288.09,123.65,287.86,124.69Z"/><path class="cls-61" d="M287,118.94c.09-.83.43-1.51,1.36-1.62a.93.93,0,0,1,1.14.88,1.31,1.31,0,0,1-.79,1.45c-.88.42-1.38,0-1.72-.71Z"/><path class="cls-62" d="M254,93c-2.06-.2-4.21.14-6.21-.41-1.14-.3-2.15-.88-3.31-1.1h0c-.4-.52-1.28-.51-1.35-1.4l.06-.26c.46-.3.76,0,1,.2a8.63,8.63,0,0,0,5.67,2c1,0,1.89.13,2.84.2a2.62,2.62,0,0,0,1.27,0,3.52,3.52,0,0,1,.88-.25,9.61,9.61,0,0,0,3.91-1.67,3,3,0,0,1,.48-.31c.41-.18.82-.36,1.21-.12l.09.14-.4.48L257.89,92C256.55,92,255.28,92.9,254,93Z"/><path class="cls-63" d="M308.61,124.7c-.26,1.16-.52,1.32-.78,2.48-.15.63-.23,1.21.53,1.43.51.15.33.57.23.93s-.45.47-.81.46a2,2,0,0,1-2.06-2.56c.49-2.42,1.08-3.84,1.61-6.26.25-1.19,1.12-.75,1.73-.8.85-.08.37.61.3,1C309.15,122.47,308.87,123.58,308.61,124.7Z"/><path class="cls-64" d="M274.32,119c.64,1,0,2-.37,3-.49,1.28-1.49,1.19-2.52,2-.19.16-.44.26-.49.55.1.21.26.13.41,0,1.79-1.29,3.35-1.81,4.47-3.8,1.45-2.58,1.53-6.25-.32-7.79-.08-.07-.09-.24-.13-.37,1.65,1,2.25,4,1.55,6.23-.21.69-.51,1.36-.77,2l-1.54,2.2h0a3.88,3.88,0,0,1-1.1,1.18v0c-.26.51-.76-.29-1.14.06-.23.15-.44.34-.67.51a.36.36,0,0,1-.36.15l-.92.62a6.44,6.44,0,0,1-1.85,1l-.43.21a2.25,2.25,0,0,1-.9.48c-.35,0-1,.41-.63-.5a4.32,4.32,0,0,1,1.21-.78,1.25,1.25,0,0,1,.25-.09,1.55,1.55,0,0,0,.88-.59c1.1-1.09,2.47-.81,3.47-2.06a6,6,0,0,0,.91-1.35C274,121.09,273.85,120,274.32,119Z"/><path class="cls-65" d="M269.38,110.58l.79-.33a1.73,1.73,0,0,1-1.56.87l-.05-.12A1.31,1.31,0,0,1,269.38,110.58Z"/><path class="cls-66" d="M272.34,124.33c.35-.4.73.24,1.18,0,0,.42-.37-.42-.54-.13l-.68.37c-.06-.06-.07-.1,0-.15S272.32,124.32,272.34,124.33Z"/><path class="cls-67" d="M267.91,111.46l-.42-.08c.28-.55.65-.6,1.06-.33l.06.07Z"/><path class="cls-55" d="M238.65,75.85c-.3,1.36-.59,2.73-.88,4.09a.83.83,0,0,0-.13-.18c.07-.07.07-.13,0-.19a10.81,10.81,0,0,1,.78-3.57h0Z"/><path class="cls-68" d="M263.05,87.49l-1.65,1.75c-.16-.14-.45-.12-.45-.43a2.74,2.74,0,0,1,1.67-1.56A.43.43,0,0,1,263.05,87.49Z"/><path class="cls-69" d="M263.05,87.49l-.52,0a.4.4,0,0,1,.12-.53c.35-.1.51-.44.76-.68s.36,0,.34.22A1.87,1.87,0,0,1,263.05,87.49Z"/><path class="cls-70" d="M261,89c.2,0,.37.07.43.29-.29.26-.41.75-.87.77l-.06,0c-.16-.38.07-.67.34-1A.8.8,0,0,0,261,89Z"/><path class="cls-16" d="M238.44,76l-.78,3.57A5.39,5.39,0,0,1,238.44,76Z"/><path class="cls-66" d="M273.51,124.32a4.76,4.76,0,0,1,1.1-1.18A1.28,1.28,0,0,1,273.51,124.32Z"/><path class="cls-71" d="M292.58,104.23c.07-.53.19-1.19,1.14-1.07s1.09.58.87,1.42-.65,1.28-1.49,1.2S292.42,105,292.58,104.23Z"/><path class="cls-72" d="M289.92,105.08c-.71.48-1.43.63-1.87,0a1.41,1.41,0,0,1,.33-1.84c.77-.72,1.42-.41,1.94.2A1.49,1.49,0,0,1,289.92,105.08Z"/><path class="cls-23" d="M289.92,105.08a2.27,2.27,0,0,0,.4-1.69A1.11,1.11,0,0,1,289.92,105.08Z"/><path class="cls-73" d="M300.58,104.5l.83-.82c.91-.07,1.53.19,1.45,1.21a2.76,2.76,0,0,1-2.31-.21A.57.57,0,0,0,300.58,104.5Z"/><path class="cls-33" d="M300.55,104.68a4.71,4.71,0,0,0,2.31.21A1.77,1.77,0,0,1,300.55,104.68Z"/><path class="cls-74" d="M232.73,105c.36-.37.73-.18,1.07-.17,6.6.24,13.35.53,20.26.75,1,0,1.18.35,1,1.34q-2.31,10.25-4.49,20.49c-.19.89-.46,1.17-1.37,1.1-6.94-.57-13.73-1.08-20.37-1.57-.65-.05-1-.14-.81-1,1.49-6.71,2.94-13.43,4.4-20.15.06-.27.05-.58.36-.77a1.94,1.94,0,0,1,0,1.42c-.49,2.27-1,4.54-1.49,6.8-.2.82.15.69.65.45a.46.46,0,0,1,.31.05c.2.3-.07.54-.27.71a3,3,0,0,0-1.2,2.34,1,1,0,0,1-.24.6,9.11,9.11,0,0,0-.71,2.62c-.39,1.72-.78,3.45-1.12,5.19-.27.93.14,1.22.95,1.28,6.2.45,12.52.94,19,1.42,1.1.08,1.22,0,1.49-1.19.48-2.16.95-4.31,1.41-6.47.09-.41.36-1-.42-.84-.59-.07-.31-.39-.09-.68,1.47-1.9,1.44-2.56-.17-3.89-.31-.26-.7-.41-1-.67s-.5-.32-.05-.65a1,1,0,0,1,.37,0c1,.14,1.6.92,2.3,1.52.38-.22.33-.55.39-.82q.68-3,1.33-6.06c.42-1.89.42-1.89-1.39-2l-18.47-.74C233.73,105.33,233.12,105.42,232.73,105Z"/><path class="cls-75" d="M285,121.68c-.16,1.66-.66,2.3-1,3.95a1,1,0,0,1-.39.65c-1.3,1.06-4,.94-4.86-.23s-.63-1.17.08-2.37c.37-.17.6-.61,1-.63a7.84,7.84,0,0,1,2.44-.26c.25,0,.56.19.74-.2a.94.94,0,0,0-.08-1.08c-.48-.54-1.13-.38-1.78-.24h0a8.36,8.36,0,0,1-1.1.11h0c-.29-.84.27-1.09.91-1.29h0a4.31,4.31,0,0,1,3.13.33C284.73,120.62,284.78,121.23,285,121.68Z"/><path class="cls-76" d="M281.22,121.27a1.33,1.33,0,0,1,1.71,0,1,1,0,0,1,.35,1.1c-.1.42-.27.62-.72.62-.89,0-1.78.07-2.66.11a3.45,3.45,0,0,1,2.23-.34c.32,0,.77.32.92-.37s-.1-.91-.61-1S281.63,121.3,281.22,121.27Z"/><path class="cls-76" d="M284.16,120.43a9.9,9.9,0,0,0-3.13-.33A2.67,2.67,0,0,1,284.16,120.43Z"/><path class="cls-76" d="M281.05,120.09c-.47.32-1,.62-.91,1.29C279.79,120.34,279.81,120.3,281.05,120.09Z"/><path class="cls-76" d="M280.14,121.38a1.42,1.42,0,0,1,1.1-.11C280.87,121.32,280.49,121.78,280.14,121.38Z"/><path class="cls-77" d="M264.56,70.13c.66.54.71,1.55,1.25,2.19l-.05.27a2,2,0,0,0-.47,1l-.17,0c-.21-.12-.24-.35-.26-.59a3.78,3.78,0,0,0-1-2,.76.76,0,0,1-.07-.56C264,70.1,264.2,69.84,264.56,70.13Z"/><path class="cls-78" d="M265.29,73.64c.14.06.4.09.41.19.35,2.55,1,5.08-.42,7.86H265a6.92,6.92,0,0,1,.27-2.37c.06-.3.13-.6.17-.84a15.65,15.65,0,0,1-.61,2.45c-.15.18-.32.3-.52.18a1.4,1.4,0,0,1-.08-.84c.09-.58.27-1.16.36-1.75a8.72,8.72,0,0,0,.29-3.31c0-.27,0-.54,0-.81a1.05,1.05,0,0,1,.36-.76Z"/><path class="cls-79" d="M263.33,83.71a4.8,4.8,0,0,1-1.77,3.67c-.72.62-1.12,1.89-2.31,1.54-.17-1.19,1.11-1.39,1.51-2.18a12.17,12.17,0,0,0,1.81-2.53C262.78,84,263,83.63,263.33,83.71Z"/><path class="cls-80" d="M263.33,83.71l-.58.55c-.4,0-.82.13-1-.3a.82.82,0,0,1,0-.35,5.72,5.72,0,0,1,.36-.89.83.83,0,0,1,.55-.5c.17-.09.33.29.54-.15a.75.75,0,0,1,.94-.47.87.87,0,0,1,.09.36,1,1,0,0,1-.38.72A2.43,2.43,0,0,0,263.33,83.71Z"/><path class="cls-81" d="M259.24,88.82c.5.16.84-.22,1.16-.6a2.33,2.33,0,0,1,1.16-.84l-.06.26a3.15,3.15,0,0,1-1.26,1.67,12,12,0,0,1-2.32,1.21.76.76,0,0,1-.66-.1.38.38,0,0,1-.08-.32c.23-.52.71-.68,1.12-1S258.88,88.67,259.24,88.82Z"/><path class="cls-82" d="M263.81,82.68l.19-.78c.25-.21.08-.62.42-.79l.29-.25c.5-.43,0-1.3.84-1.57-.27.79,0,1.61-.52,2.39C264.65,82.05,264.41,82.64,263.81,82.68Z"/><path class="cls-83" d="M260.17,89.16l1.33-1.52,1.15-.73-.12.53c-.69.3-1.06,1-1.56,1.51h0c-.17.15-.31.38-.56.38A.35.35,0,0,1,260.17,89.16Z"/><path class="cls-84" d="M254.76,64.7c.07-.6-.7-.79-.38-1.52.49-.22,1,.22,1.48-.27l1.63.08c-.43.89-1.64.38-2,1.48a.24.24,0,0,1,0,.22c0,.08-.05.12-.07.12C255.18,65,254.84,65.28,254.76,64.7Z"/><path class="cls-85" d="M256.25,64.5a5.38,5.38,0,0,1,4.54.19.62.62,0,0,1,.41.51.68.68,0,0,1-.37.16,7.51,7.51,0,0,0-3.51-.22,1.69,1.69,0,0,1-1.09-.26A.27.27,0,0,1,256.25,64.5Z"/><path class="cls-86" d="M263.1,66.6a2.13,2.13,0,0,1,.09,1.87c-.29.13-.42,0-.54-.24,0-.77-.43-1.32-.5-2l.1-.16C262.68,66,262.8,66.44,263.1,66.6Z"/><path class="cls-86" d="M261,65.19h.24a1.22,1.22,0,0,1,1.05.83h0C261.46,66.26,261,66.05,261,65.19Z"/><path class="cls-87" d="M256.25,64.5l-.05.26a.69.69,0,0,1-.36.37.61.61,0,0,1-.3,0c-.12-.09-.21-.19-.06-.39l.06-.26Z"/><path class="cls-88" d="M255.66,65h.24a.6.6,0,0,1,.35.56A2.26,2.26,0,0,0,257.43,68a17.71,17.71,0,0,1,2.2,1.58c.82.61,1.64,1,2.71-.12a.55.55,0,0,1,.69-.15c.16,0,.38-.28.48,0s0,.67-.26,1c-1.45,1.23-2.62,1.47-3.85.61S257,69.4,256,68.52A2.51,2.51,0,0,1,255,66.1,1.84,1.84,0,0,1,255.66,65Z"/><path class="cls-89" d="M263,69.26c-2.22,1.53-2.74,1.51-4.44-.07a5.6,5.6,0,0,0-1.54-1.11c-1-.46-1.19-1.39-1-2.54a.42.42,0,0,1,.5-.07c.36,2.48,2.45,3,4.16,4,.73.41,1.27-.46,1.78-1a1.13,1.13,0,0,1,.3-.24l.43.29C263.13,68.73,263.08,69,263,69.26Z"/><path class="cls-90" d="M263.09,70.07l.42-.79.49,0,.67.3-.11.53a.58.58,0,0,0-.61.51.34.34,0,0,1-.3.09A.81.81,0,0,1,263.09,70.07Z"/><path class="cls-84" d="M253.73,62.82a6.65,6.65,0,0,1-3.06.67A6.53,6.53,0,0,1,253.73,62.82Z"/><path class="cls-91" d="M296.55,119.23c1-.09,1.56.14,1.08,1.36-.41,1,.41.89,1,.92-.05.76.23,1.73-1.19,1.52-.39-.06-.42.36-.49.64-.23,1-.44,1-.67,2-.18.75-.35,1.48.6,1.75.43.12.23.53.15.85s-.39.42-.7.43a2,2,0,0,1-2.17-2.56c.48-2.37,1.06-3.74,1.57-6.12A.85.85,0,0,1,296.55,119.23Z"/><path class="cls-92" d="M292.5,122.57a.38.38,0,0,0-.44.2,4.64,4.64,0,0,0-.85,2,11.64,11.64,0,0,0-.46,2.07c-.1,1.08-.64,1.15-1.46,1-.58-.09-.74-.3-.58-.91.34-1.37.62-1.75.93-3.12a3.3,3.3,0,0,1,3.39-2.88,4.1,4.1,0,0,1,1.05.08c.31.07.83.06.61.6s-.39,1-1,.89A1.68,1.68,0,0,0,292.5,122.57Z"/><path class="cls-75" d="M304.07,127.84c.17.71-.17,1-.88,1.25-3.23,1-5.39-.89-4.68-4.15.11-.51.26,0,.4-.52a5.1,5.1,0,0,1,2.59-2.4,2.63,2.63,0,0,1,3,.78c.79,1,.62,1.25.33,2.49-.1.43-.48.3-.76.28-1-.1-2-.19-2.94-.32-.53-.07-.73.14-.81.66-.23,1.52.67,2.25,2.38,1.92C303.19,127.74,303.69,127.33,304.07,127.84Z"/><path class="cls-93" d="M263.51,124c.58-.65,1.18-.26,1.91-.72.14-.15.31-.12.46-.16.78-.24,1.5-.14,1.83.57s-.2.31-.74.83a21.11,21.11,0,0,0-2.33,1.91,1.23,1.23,0,0,0-.45.8c0,.23.17.45-.08.68-1.3-.16-1.73-.89-1.31-2.24a11.23,11.23,0,0,1,.53-1.18Z"/><path class="cls-94" d="M266.2,111.06a.35.35,0,0,1-.26-.49l.12-.07h.13a1.19,1.19,0,0,0,.87,0c.52-.14,1-.52,1.54-.42a.3.3,0,0,1,.15.2c-.11.75.54-.06.63.28l-.83.47a2.31,2.31,0,0,0-1.06.33l-.54,0C266.69,111.28,266.37,111.32,266.2,111.06Z"/><path class="cls-95" d="M266.2,111.06c.28,0,.61-.06.75.3-.94.24-1.8.19-2.23-.73a2.51,2.51,0,0,1,.62-2.77c0,.75-.69,1.4-.5,2.2S265.38,111.24,266.2,111.06Z"/><path class="cls-96" d="M244.05,68.21c.31-.73,1.14-.82,1.5-1.49A18.25,18.25,0,0,1,254,64.94c.1.22.5.06.5.42s-.32.63-.67.36a2.14,2.14,0,0,0-1.78-.3c-2.14.38-4.3.61-6.29,2.12A2.32,2.32,0,0,1,244.05,68.21Z"/><path class="cls-97" d="M254.41,65.23c-.19,0-.36-.07-.42-.29l.77-.24c.17.32.5-.06.72,0l.18.28a2.2,2.2,0,0,1-.47,1c-.25.15-.37,0-.51-.14S254.54,65.43,254.41,65.23Z"/><path class="cls-98" d="M252.81,92.64c-3.58-.09-7.06-.39-9.67-2.81l-.14-.52.18-.13a1,1,0,0,1,1,.28c2.56,2.16,5.73,2.68,9.25,2.27.49,0,1-.18,1.38.14a.27.27,0,0,1,0,.38l-.77.22C253.64,92.75,253.24,92.35,252.81,92.64Z"/><path class="cls-98" d="M243,89.31a9.82,9.82,0,0,1-3.32-5.2.55.55,0,0,1,0-.51.43.43,0,0,1,.32-.08c.36.24.41.73.64,1.08.51,1.52,1.6,2.57,2.45,3.82a.72.72,0,0,1-.1.86Z"/><path class="cls-56" d="M239.8,83.59l-.12.52a10,10,0,0,1-.17-5.74c.3-1.19.53-2.38.79-3.58h0c.1-.11.18-.11.22,0h0c.75.84.13,1.9-.15,2.86a6.58,6.58,0,0,0-.49,2.14C239.77,81.08,240.22,82.26,239.8,83.59Z"/><path class="cls-59" d="M243.08,90.09c.3.63,1.17.63,1.35,1.4a2.38,2.38,0,0,1-1.81-1.44Z"/><path class="cls-99" d="M240.76,74.81A11.71,11.71,0,0,1,243,69.73h.23a7.16,7.16,0,0,0,2.62-1.49c1.24-1.14,2.8-1.28,4.22-1.88h0a6.57,6.57,0,0,1,1.56-.28c1-.12,1.73.06,1.82,1.25a3.5,3.5,0,0,0,.57,1.56,1.08,1.08,0,0,1,.11,1.28c-.45.43-.92.29-1.38.32-.31,0-.66-.09-.85.35s.12.5.33.64c.72.48.59,1.16.06,1.93-.56.26-1,0-1.48-.06a8.4,8.4,0,0,0-3.61.24c-.57.18-1.17.13-1.68.61a2.81,2.81,0,0,1-1.34.7,19.09,19.09,0,0,0-2,.44C241.64,75.44,241,75.59,240.76,74.81Z"/><path class="cls-100" d="M254,70.16c.25-.92-.7-1.15-.72-1.88-.06-1.82-.94-2.4-2.63-1.9a1.68,1.68,0,0,1-.59,0c1.29-.83,2.45-.3,3.67-.38.44-.1.49.29.57.58A4.63,4.63,0,0,0,257,69.73a6.86,6.86,0,0,1,1.47,1.06,4,4,0,0,0,3.61,1c1.51-.3,2,.54,1.31,2-1-.79-2.33.08-3.43-.25-.72-.22-1.42-.35-1.83-1-.53-.89-1.63-.91-2.41-1.41-.45-.3-.55.35-.68.69-.32.81-.13,1.75-.92,2.45a.27.27,0,0,1-.28-.19c-.16-1,.34-2.06.43-3.08C254.29,70.65,254.09,70.44,254,70.16Z"/><path class="cls-101" d="M263.26,73.81c.33-1.68.12-2-1.45-1.67a4.1,4.1,0,0,1-3.8-1.26,3.22,3.22,0,0,0-.93-.62A5.8,5.8,0,0,1,253.77,66l0-.27a.56.56,0,0,0,.59-.49.66.66,0,0,1,.37.53,3.88,3.88,0,0,0,2.47,3.62c1.09.48,1.88,1.41,2.94,1.94a2.07,2.07,0,0,0,2-.16,1.18,1.18,0,0,1,.4-.1c1.65.11,1.86.55,1.45,3a2,2,0,0,1-.5,1.08C262.74,75,262.92,74.43,263.26,73.81Z"/><path class="cls-102" d="M250.1,66.37c-1,.4-1.82,1.43-3,1.31-.49-.05-1,.5-1.37.92a2.76,2.76,0,0,1-2.51,1.14c1.87-1.09,3.53-2.81,5.67-3.22A4.82,4.82,0,0,1,250.1,66.37Z"/><path class="cls-103" d="M240.76,74.81c.6.51,1.35.27,2.11.08.48-.11,1-.57,1.44-.21a4.53,4.53,0,0,1-1.09,1.77,6,6,0,0,0-.71,1.29c-.2.4-.43.66-.86.55-.89-.22-1.48.13-1.68,1.25a.71.71,0,0,1-.32.41,2.88,2.88,0,0,1,.33-2.06,6.13,6.13,0,0,0,.55-3.09Z"/><path class="cls-103" d="M240.53,74.8h-.22c.25-.77.11-1.6.72-2.3C240.86,73.26,240.7,74,240.53,74.8Z"/><path class="cls-104" d="M254.84,92.25l.06-.26c.83-1,2-1.07,3-1.51.35,0,.73-.43,1-.06A7.78,7.78,0,0,1,254.84,92.25Z"/><path class="cls-105" d="M258.92,90.42l-1,.2c-.07-.07-.08-.13,0-.19s.07-.09.1-.08a11.34,11.34,0,0,1,2.22-1.19l.25,0c-.07.83-.86.57-1.2,1Z"/><path class="cls-104" d="M259.22,90.18c.27-.54.93-.47,1.2-1L261,89c-.17.35-.33.69-.5,1Z"/><path class="cls-106" d="M249.53,86.28c.34-.32.66-.11,1-.14C250.18,86.47,249.86,86.26,249.53,86.28Z"/><path class="cls-67" d="M269.74,109.49l.18,0c-.31.43-.84.39-1.17.77l0-.08C268.79,109.48,269.14,109.28,269.74,109.49Z"/><path class="cls-94" d="M270.07,109.52l1-.6A.84.84,0,0,1,270.07,109.52Z"/><path class="cls-107" d="M250.71,119.17c.54.13.84-.49,1.31-.62.27.17.06.46,0,.68-.58,2.71-1.2,5.42-1.76,8.14-.15.72-.42.93-1.12.87-6.9-.54-13.65-1.07-20.26-1.54-1.26-.08-.58-.94-.51-1.58.55-1.73.79-3.49,1.22-5.23.21-.85.36-1.72.64-2.71.72.69,1.3,1.41,2.28,1.53a11.15,11.15,0,0,1,1.8.69c4.84,1.34,9.89,1.91,15.43-.11A1.41,1.41,0,0,1,250.71,119.17Z"/><path class="cls-108" d="M232.73,105c6.85.27,13.86.56,21.05.81.91,0,1.2.24,1,1.25-.71,2.92-1.3,5.84-2,9a5.44,5.44,0,0,0-2.92-2.48c-1.34-.27-2.58-.8-3.93-1-4.27-.61-8.52-1-12.93.9-.31.13-.62.14-.92.26s-.42.31-.64.45-.36.39-.76.4l2.1-9.61Z"/><path class="cls-109" d="M250.71,119.17a17.73,17.73,0,0,1-8.2,1.71c-3.64,0-7.11-.41-10.16-1.95-.73-.48-1.67-.75-1.8-1.85-.38-1.51.53-2.47,1.73-3.3a11.86,11.86,0,0,1,5.36-1.67,26.52,26.52,0,0,1,10.67.87,3.27,3.27,0,0,1,1.23.63,10.68,10.68,0,0,1,2.25,1.65c1.07,1.32.9,2.3-.65,3.53C251,118.91,250.85,119,250.71,119.17Z"/><path class="cls-110" d="M249.54,113.61a24.71,24.71,0,0,0-13.91-1,20.4,20.4,0,0,0-3.35,1.15l-.24-.06a8.15,8.15,0,0,1,3.66-1.46,26.84,26.84,0,0,1,12.81.62,6.54,6.54,0,0,1,1.31.68Z"/><path class="cls-108" d="M230.55,117.08a9.28,9.28,0,0,0,1.8,1.85,2.67,2.67,0,0,1-2-1.32c-.65,2.08-1.06,4.25-1.55,6.41-.09.38,0,.8-.41,1.1q.76-3.59,1.54-7.17C230,117.58,230,117.13,230.55,117.08Z"/><path class="cls-111" d="M282.41,124.18c-.1.94-.28,1.59-1.23,1.44-.73-.11-1-.6-.86-1.35s.85-.25,1.7-.19S282.39,123.89,282.41,124.18Z"/><path class="cls-112" d="M263.7,74.1a7.32,7.32,0,0,0,.15-.79c.18-1.8.12-1.86-1.54-2,.29-.8.89-.63,1.4-.74l.24,0,.18.27a3,3,0,0,1,.29,2.89C264.21,74.05,264,74.23,263.7,74.1Z"/><path class="cls-113" d="M264.24,73.86a6.63,6.63,0,0,0-.11-3,3,3,0,0,1,1,2.19c-.26.24-.23.69-.62.83A.3.3,0,0,1,264.24,73.86Z"/><path class="cls-114" d="M264.49,73.87l.66-.77c0,.21,0,.41.13.53l-.17.81c-.25.64-.53,1.24-1.3.93A1.44,1.44,0,0,1,264.49,73.87Z"/><path class="cls-115" d="M265.24,75a8.63,8.63,0,0,1-.26,3.48c-.61,1-.86,2.23-2,2.91a.27.27,0,0,1-.25-.22,1.78,1.78,0,0,1,.17-1c.61-1.34,1-2.73,1.47-4.09C264.55,75.63,264.55,75,265.24,75Z"/><path class="cls-116" d="M265.24,75c-.9,1.44-1,3.07-1.73,4.57-.11.24-.13.52-.39.68-.47-.76.2-1.69.09-2.51a13.1,13.1,0,0,1,.13-1.65.82.82,0,0,1,.56-.62c.52-.16.78-.72,1.21-1C265.29,74.56,265.28,74.76,265.24,75Z"/><path class="cls-117" d="M262.89,81.29c.88-.81,1.19-2,2.09-2.83-.14.62-.27,1.23-.41,1.85-.37.38-.14.94-.53,1.32-.55,0-.76,1.13-1.44.69A.82.82,0,0,1,262.89,81.29Z"/><path class="cls-118" d="M265.55,79.29c-.61.38-.23,1.19-.84,1.57l.7-3.21A1.83,1.83,0,0,1,265.55,79.29Z"/><path class="cls-115" d="M264,81.63c.17-.44.06-1,.53-1.32l-.15.8c-.1.28-.11.6-.42.79Z"/><path class="cls-119" d="M261.84,83.91c.2.35.79-.15.91.35A5.88,5.88,0,0,1,261,86.81c-.36.22-.79,1.09-1,0a1.56,1.56,0,0,1,.15-.55,6.89,6.89,0,0,1,.4-.64c.14-.21.28-.42.4-.63C261.18,84.62,261.26,84,261.84,83.91Z"/><path class="cls-120" d="M260.2,86.72c0,1,.54-.08.76.09-.32.91-1.38,1.13-1.72,2l-.82.49c-.4.08-.31-.21-.29-.46a3.42,3.42,0,0,1,.67-1C259.26,87.48,259.5,86.74,260.2,86.72Z"/><path class="cls-121" d="M261.84,83.91,261,85.19a45,45,0,0,1-4.81-.17c-.62,0-1.44.15-1.66-.72.56-.84,1.22-.37,1.84-.49a43.59,43.59,0,0,1,5.47-.17Z"/><path class="cls-122" d="M261.87,83.64c-1.19.61-2.35.34-3.48.37a19.63,19.63,0,0,1-2,.09c-.41-.27-1.06,0-1.36-.49.08-.71.83-.57,1.11-1a5.84,5.84,0,0,1,1.83.29c1.11.54,2.41-.16,3.6,0,.23,0,.49-.11.7,0Z"/><path class="cls-123" d="M262.25,82.87c-1.44.32-2.89.85-4.21.25.67-.81,1.6-.84,2.39-1.29.81.49,1.59-.16,2.39-.51l.07,0c-.1.34-.19.69-.29,1Z"/><path class="cls-124" d="M258,90.35l-.06.27a25.08,25.08,0,0,1-3,1.37,27.82,27.82,0,0,1-3.72.23c-2.76-.16-5.38-.66-7.34-2.61-.19-.19-.53-.22-.81-.33,0-.26-.05-.52-.08-.78.64-.34.93.14,1.25.46a6.58,6.58,0,0,0,2.47,1.63l.31.14c2.67.75,5.4,1.26,8.42.19a7.62,7.62,0,0,1,1.34-.53,1.11,1.11,0,0,1,.5-.09Z"/><path class="cls-125" d="M258.29,88.77a.5.5,0,0,0,.13.54l-1.14.74a.49.49,0,0,1-.06-.34C257.46,89.23,257.69,88.73,258.29,88.77Z"/><path class="cls-126" d="M257.34,89.76l-.06.29c0,.09,0,.17,0,.25l-.32.24c-.26.13-.54.16-.44-.22A.68.68,0,0,1,257.34,89.76Z"/><path class="cls-127" d="M262.76,68.18l-.06.26c-.26.22-.52.44-.83.27a.76.76,0,0,1-.05-.34,1.24,1.24,0,0,0-.37-1.73,11.3,11.3,0,0,0-1.63-1c-.88-.53-1.62.06-2.33.81-.56-.22-.36-.8-.33-1.3a.93.93,0,0,1,.23-.35,4.94,4.94,0,0,1,3.57.39,2.14,2.14,0,0,0,1.28.85C262.47,66.73,263.19,67.19,262.76,68.18Z"/><path class="cls-128" d="M257.39,64.8l-.05.27a1.38,1.38,0,0,1-.84.49l-.48,0L255.9,65l.3-.25Z"/><path class="cls-129" d="M263.71,70.62c-.39.5-1,.34-1.4.74h-.24c-.73.66-1.36.34-2,.18-1.51-.86-2.87-1.92-4.35-2.81a2.49,2.49,0,0,1-.94-3l.41.28a2.66,2.66,0,0,0,1.3,2.45c1.15.72,2.21,1.58,3.39,2.28s2.15.29,3.21-.7Z"/><path class="cls-130" d="M256.5,65.56a.9.9,0,0,1,.84-.49c.22.38-.12,1,.19,1.32.79.34,1.27,1.09,2,1.58a2.85,2.85,0,0,0,2.43.71l.77-.24c-1,1.55-1.49,1.77-2.69,1.08a26.42,26.42,0,0,1-3-1.92A2,2,0,0,1,256.5,65.56Z"/><path class="cls-131" d="M301.91,125.06c-.3-.21-1.07.18-.85-.61a1.24,1.24,0,0,1,1.27-1c.68,0,.88.56.75,1.17C302.89,125.49,302.3,124.9,301.91,125.06Z"/><path class="cls-67" d="M266.49,109.71l-.39.91a.28.28,0,0,1-.16-.05A1.32,1.32,0,0,1,266.49,109.71Z"/><path class="cls-67" d="M266.1,110.61l1,.13C266.74,110.92,266.34,111.09,266.1,110.61Z"/><path class="cls-132" d="M239.65,80c.06-.26.12-.51.17-.76.17-.84.57-1.54,1.39-1.26s1.14-.35,1.42-1.06c.1-.25.15-.51.43-.62.29.64-.17,1.27-.35,1.9-.22.9-.63,1.48-1.53,1.21-.57-.17-.8.16-.89.74a6,6,0,0,0-.08,1.52c-.06.66.34,1.29-.18,2h-.23A14.67,14.67,0,0,1,239.65,80Z"/><path class="cls-133" d="M246.71,90.87a4.7,4.7,0,0,1-2.61-1.56c-.34-.33-.63-.73-1.15-.81a8.78,8.78,0,0,1-2.46-3.82.45.45,0,0,1,.07-.52c.45-.16.57.19.75.47a8.45,8.45,0,0,0,2.2,3.18c1,.77,1.76,1.86,3,2.34A.48.48,0,0,1,246.71,90.87Z"/><path class="cls-134" d="M240.61,84.17l-.12.51c-.37-.21-.35-.69-.46-1.07l0-2.08c.14-1.85.62-2.22,2.34-1.81a.94.94,0,0,1,.32,1.11.91.91,0,0,1-1,.63c-1.08-.15-1.25.43-1.06,1.34A2.65,2.65,0,0,1,240.61,84.17Z"/><path class="cls-135" d="M247,73.3a9.07,9.07,0,0,1,5.41,0,.73.73,0,0,1,.2.61c-.35,1.91-.72,3.83-1.26,5.73-.79.7-1.45.29-2.15.12a4.26,4.26,0,0,1,.14-1.36c.21-.94.44-1.89.61-2.84.08-.44.34-1.09-.3-1.1s-.54.6-.67,1c-.09.25-.14.51-.24.76-1.3,2.75-2.63,3-4.1.77a1.14,1.14,0,0,1,0-.37c.64-1.6,1.08-1.91,3.13-2.18.44-.36.17-.42-.09-.54S246.8,74,247,73.3Z"/><path class="cls-136" d="M248,74.88c-1.71-.18-2.48.27-3.2,1.87-.17.77-.19,1.54-.36,2.31,0,.11,0,.22,0,.33a1.68,1.68,0,0,0,.22,1,5.14,5.14,0,0,0,.29.51,1,1,0,0,0,1.34.16c.35-.16.75-.48,1-.06a1,1,0,0,1-.17.77,2.78,2.78,0,0,1-3.72.73c-.48-.4-1-.78-.9-1.63l-.2-1.1c-.32-.48.27-1.07.09-1.56l.67-2,1.25-1.57,1.06-.61a3,3,0,0,1,2.53-.3C248.62,73.87,248.3,74.42,248,74.88Z"/><path class="cls-137" d="M252.31,73.81l.06-.49c0-.7.33-1.63-.74-1.73-.37,0-.14-.56-.07-.88a.65.65,0,0,1,.72-.59l1.76,0c.25.08.58,0,.65.37-.75.55-1.47,0-2.33.44,1,.72,1,1.67.27,2.84C252.51,73.91,252.4,73.91,252.31,73.81Z"/><path class="cls-138" d="M248,74.88c.39-.76.26-1.17-.55-1.07l-2,.26c.38-.8,1.08-.41,1.59-.77.16.34.51.24.8.28C248.69,73.71,248.71,74.16,248,74.88Z"/><path class="cls-139" d="M263.26,73.81a2.54,2.54,0,0,0,.2,1.35c.19.24,0,.52,0,.8a1.12,1.12,0,0,1-1.18.69,1.23,1.23,0,0,1-.81-.61c-1.13-1.57-2.68-1.78-4.61-.81a1.67,1.67,0,0,1-.72.22,5,5,0,0,1-2-.93.29.29,0,0,1,.08-.35c.21-1,.36-1.92.64-2.86.19-.62.57-1.35,1.15-.51s1.58.33,2.1,1.11c1,1.52,2.54,1.79,4.48,1C263.35,72.53,262.91,73.59,263.26,73.81Z"/><path class="cls-140" d="M252.47,73.81c.14-.94,1.06-2.22-.57-2.37-.28,0-.15-.41-.08-.66a.55.55,0,0,1,.67-.43c.74.05,1.47.12,2.2.18l-.75,3.63a5.61,5.61,0,0,1-.27,2.7q-.46,2.22-1,4.44c-.2.86-.47,1.76-1.52,1.68s-.81-1-.55-1.78C251.53,78.76,251.79,76.27,252.47,73.81Z"/><path class="cls-141" d="M252.47,73.81l-1.62,7.68c-.11.54-.4,1.15.46,1.18s.86-.5,1-1.09c.54-2.47,1.1-5,1.64-7.42h.22l-.06.25c.4.89-.07,1.86-.24,2.8s-.37,1.83-.62,2.74l-.21.93a7.18,7.18,0,0,1-.2.92A2,2,0,0,1,252,83.2c-.95.23-1.79.28-1.84-1a4.73,4.73,0,0,1,.81-2.15q.71-3.11,1.39-6.22Z"/><path class="cls-142" d="M263.3,75.94l.16-.78.24-1.06.54-.24h.25a5.62,5.62,0,0,0-.59,1.58l-.36.51C263.43,76.07,263.35,76.06,263.3,75.94Z"/><path class="cls-112" d="M260.07,71.53a3.75,3.75,0,0,0,2-.18C261.31,72.3,260.7,71.85,260.07,71.53Z"/><path class="cls-143" d="M235.31,116.52a9.38,9.38,0,0,0-.56,1c-.31.72-.74.88-1.37.55.66-1.19,1.28-2.39,2-3.56a1.09,1.09,0,0,1,1.85,0c-.41,1.11-.41,1.14-.12,1.51a12.2,12.2,0,0,1,1.67-1.85c.28-.15.54,0,.81-.06.72,0,.89.3.4,1l-2,3.39c-.39,0-1.11.52-.92-.47h0a.82.82,0,0,0,.18-.82s-.18.09-.28.13a9.47,9.47,0,0,0-.75.81c-.24.35-.49.26-.74.23-.41,0-.22-.4-.18-.66.38-.61.18-1.25.42-1.87,0-.14-.15,0,0,0s0,0,0,.1C235.6,116.09,235.56,116.36,235.31,116.52Z"/><path class="cls-144" d="M245.34,116.91c-.27.47-.56.92-.79,1.4a.82.82,0,0,1-1.19.42c-.43-.18,0-.55.14-.8.48-.92,1-1.81,1.49-2.73.23-.43.46-.74,1-.71s.69.26.71.77a13.37,13.37,0,0,0,.19,1.5,4.44,4.44,0,0,0,1-1.53.87.87,0,0,1,1.18-.53c.57.2,0,.61-.1.87-.49,1-1.05,1.89-1.56,2.85a.89.89,0,0,1-1,.56c-.47,0-.66-.24-.69-.69s-.11-.94-.16-1.41Z"/><path class="cls-145" d="M244.69,114.49c-.15.66-.46,1.06-1.19,1-1-.13-1,1-1.44,1.44-.14.17-.22.38-.35.57a.8.8,0,0,1-1,.42c-.52-.18-.09-.57,0-.88a.67.67,0,0,1,.2-.38l.06-.24c.25-.48.56-1-.26-1-.22,0-.43-.18-.25-.52h0a1,1,0,0,1,1.19-.7C242.64,114.32,243.76,114.06,244.69,114.49Z"/><path class="cls-146" d="M240.44,114.86c.09.13.16.35.28.36,1,.06.8.56.23,1.18.41-1.07-.76-.85-1-1.39.5-1.45-.85-.56-1.21-.91C239.64,113.75,240.34,113.77,240.44,114.86Z"/><path class="cls-146" d="M244.69,114.49c-1-.06-2.05-.1-3.05-.21a1.23,1.23,0,0,0-1.19.57c0-.35.17-.77.52-.76C242.22,114.13,243.59,113.82,244.69,114.49Z"/><path class="cls-147" d="M240.89,116.64c.14.34-.61.83-.07,1.07s.82-.53,1.24-.8a2.08,2.08,0,0,1-.73,1.22c-.45.26-.86.37-1.13-.1A2.16,2.16,0,0,1,240.89,116.64Z"/><path class="cls-148" d="M240.2,118l1.13.1c-.19.75-.69.51-1.07.47S239.89,118.31,240.2,118Z"/><path class="cls-149" d="M235.31,116.52c0-.35.21-.62.69-1.15a6.7,6.7,0,0,1-.7,2.25C235.21,117.27,235.62,116.83,235.31,116.52Z"/><path class="cls-150" d="M237,117.24a2.31,2.31,0,0,1,.83-.85,2.89,2.89,0,0,1-.73,1.54C237.09,117.69,237.21,117.41,237,117.24Z"/><path class="cls-151" d="M237.07,116c-.09.11-.18.29-.28.31s-.18-.13-.13-.27a4.2,4.2,0,0,1,.53-1.55C237.27,114.93,236.79,115.48,237.07,116Z"/><path class="cls-150" d="M237.07,117.93c-.06.77.59.35.92.47a.81.81,0,0,1-1.12,0C236.7,118.31,236.84,118.06,237.07,117.93Z"/><path class="cls-152" d="M262.82,81.32c-.88,1.1-1.51,1.27-2.31.61a1.06,1.06,0,0,1,.93-1.1c.76,0,1.08-.42,1.26-1.17s.09-1.5.75-2.11c.28.87-.26,1.79-.33,2.68Z"/><path class="cls-153" d="M263.45,77.55c-.18.84-.41,1.67-.54,2.51s-.9.76-1.27,1.21l-.2-.43c.25-1.46.37-2.92.69-4.39a1.64,1.64,0,0,0,1.17-.51l.24,0A2.89,2.89,0,0,1,263.45,77.55Z"/><path class="cls-154" d="M249.61,78.41l-.24,1.52c.27.56,0,1.19-.11,1.79s-.21,1-.33,1.52a6.91,6.91,0,0,0-.23,1.17c.05.26.16.45.46.4a2.46,2.46,0,0,1,1.64.44,2.86,2.86,0,0,0,2.59.4.67.67,0,0,1,.59,0c1.45.84,3.3.13,4.87.52.33.09.65-.15,1-.27s.62-.26.5.29l-.12.51L259,88c-1.67.52-3.1-.12-4.6-.33-2.28-.31-4.47-.89-6.7-1.28-.38-.07-.8-.09-.66-.72,1.1-1.79,1.23-3.76,1.72-5.66C248.87,79.44,248.81,78.69,249.61,78.41Z"/><path class="cls-155" d="M260.32,86.21c-1.26.8-2.34-.25-3.59.29a1.9,1.9,0,0,1-1.4-.1,3,3,0,0,0-2.61-.21c-.62.29-1.19-.23-1.75-.44-.71-.27-1.2-1.06-2.24-.42-.35.22-.33-.4-.43-.68.29-.74.55-1.07,1.27-.57,1.17.82,2.79.39,4.18.7a16.78,16.78,0,0,0,5.79.5,1.09,1.09,0,0,1,1.15.43A.64.64,0,0,1,260.32,86.21Z"/><path class="cls-156" d="M260.69,85.71a29.37,29.37,0,0,1-7.14-.59c-1.47-.41-3.3.3-4.45-1-.41-.46-.47.49-.8.54.1-.43.21-.86.31-1.28,2,.3,4.18,0,6,.89,1.3.86,3,.23,4.46.6.63.16,1.46-.3,1.94.33A.67.67,0,0,1,260.69,85.71Z"/><path class="cls-157" d="M247.06,85.82c1.92.42,3.84.87,5.79,1.23s4.06.65,6.1,1l-.66.76-1,1c-.22.23-.94.21-.42.78a2.74,2.74,0,0,1-1.31.45,8,8,0,0,1-4.4.67,16,16,0,0,1-4.5-.79h0A22.84,22.84,0,0,1,243.3,88a2.08,2.08,0,0,1-.68-1.12,2.43,2.43,0,0,0-.1-.6c-.16-.48-.11-1,.45-1.17s.71.17.71.55c.28-.92.81-.87,1.41-.49.1.45-.47.47-.54.87C245.34,86.38,246.25,85.67,247.06,85.82Z"/><path class="cls-158" d="M254.63,84.26c-2-.31-4.19,0-6-.89l.36-1.61c.69-.52.88.22,1.3.38.14,1.06,1,.83,1.72.9,1.08-.07,2.23-.38,3,.45.32.43,1,.12,1.33.61C255.77,84.35,255.24,83.79,254.63,84.26Z"/><path class="cls-159" d="M262.13,76.45a6.43,6.43,0,0,1-.69,4.39l-.93,1.09A7.05,7.05,0,0,1,258,83.12l-2.11-.38c-.43.31-.69,0-1-.14a3.91,3.91,0,0,1-.93-2.06,3.34,3.34,0,0,1-.12-.78,6.43,6.43,0,0,1,1.22-3.58c.28-.35.51-.77,1-.8C258.81,73.61,260.54,73.91,262.13,76.45Z"/><path class="cls-160" d="M255.09,82.4l.84.34c.37,1.25-.75.27-.89.75-.95-.39-2.13,0-3-.45a2.65,2.65,0,0,0,.53-1.29C253.4,81.89,254.2,82.28,255.09,82.4Z"/><path class="cls-133" d="M246.71,90.87c2.28.26,4.5.91,7,.5.65-.1,1.29-.25,1.94-.38-.1.14-.2.38-.31.4A13.32,13.32,0,0,1,246.71,90.87Z"/><path class="cls-161" d="M261.93,68.68c-.4.33-.78.65-1.25.39a6.86,6.86,0,0,1-3.15-2.68c.76-1.42,1.12-1.57,2.41-1a.77.77,0,0,1-.46.26c-.93.18-.85.58-.38,1.06.19.18.39.35.6.52l.23.2c.47.69,1.35.66,2,1Z"/><path class="cls-162" d="M262,68.41a1.76,1.76,0,0,1-2.26-.88c.65-.48,1,.46,1.76,0-.32-.84-1-1.06-1.82-1.24-.23.52.43.77.06,1.26-.29,0-.46-.2-.65-.39s-.92-.55-.63-1.22,1-.43,1.51-.51a5,5,0,0,1,1.93,1.15C262.52,67,262.59,67.63,262,68.41Z"/><path class="cls-163" d="M242.39,78.21a4.36,4.36,0,0,1-.09,1.56c-.11,0-.23.15-.32.14-1.41-.11-1.63.07-2,1.62a3.65,3.65,0,0,1,.09-1.82c.12-.78.37-1,1-.7S242.28,79.24,242.39,78.21Z"/><path class="cls-164" d="M243.41,82.18c1.16.67,2.36.39,3.59-.54.86.43.18,1.3.17,2a1.74,1.74,0,0,1-.83,1.25A18.71,18.71,0,0,1,243,84a1.24,1.24,0,0,0-1.66.61l-.14.11-.58-.56a2.43,2.43,0,0,1-.19-1.32c0-1,.57-1.28,1.29-1.09A10.56,10.56,0,0,0,243.41,82.18Z"/><path class="cls-164" d="M242.82,86.92,243.3,88a5.84,5.84,0,0,1-2.11-3.27h0C242.31,84.91,242.32,86.15,242.82,86.92Z"/><path class="cls-133" d="M243.41,82.18a1.38,1.38,0,0,1-1.56-.06c-.7-.39-1.14-.14-1.43.73-.34-1.49-.17-1.74,1.21-1.65a1,1,0,0,0,.87-.33Z"/><path class="cls-165" d="M246.17,84.82a1.42,1.42,0,0,0,.66-1,4.85,4.85,0,0,0,.42-2.85c-.91.2-2,1.4-2.65,0,.55-.44,1.21,0,1.74-.55a3.41,3.41,0,0,0,1-1.14c.37-.91.67-1.84,1-2.75.16-.6.35-1.2.46-1.8s.44-.87,1-.84.65.34.52.91c-.28,1.21-.52,2.42-.78,3.63a33.53,33.53,0,0,0-1.14,4.73,5.14,5.14,0,0,1-1.41,2.68,4.55,4.55,0,0,1-2.31.67c-.32,0-.79.18-.81-.35s.38-.69.81-.73a1.15,1.15,0,0,0,.33-.17C245.4,84.86,245.8,84.92,246.17,84.82Z"/><path class="cls-166" d="M248.38,76.51a6.75,6.75,0,0,1-.92,3.1,1.29,1.29,0,0,1-1.33,0,2.9,2.9,0,0,0-2-.13h0a5.6,5.6,0,0,1,.57-2.36c.68.29,1.39.59,2,.9s.74-.1,1-.46S248,76.75,248.38,76.51Z"/><path class="cls-167" d="M250.27,82.14c-.63.37-.79-.44-1.3-.38.13-.61.26-1.22.4-1.83.51-.61,1.27-.56,1.55.11A4.68,4.68,0,0,1,250.27,82.14Z"/><path class="cls-168" d="M244.74,77.1l-.57,2.36a3.82,3.82,0,0,1,.58-2.71Z"/><path class="cls-168" d="M244.15,79.47c.65-1.38,1.31-.31,1.85-.24a6.17,6.17,0,0,1,1.46.38c-.09.55-.62.65-.9,1a12,12,0,0,1-2.17-.1C244.05,80.28,244,79.91,244.15,79.47Z"/><path class="cls-169" d="M244.39,80.51c.85-.61,1.48-.13,2.17.1-.67.89-1.31.45-2,.34Z"/><path class="cls-170" d="M247.25,80.94c.67.93,0,1.9-.42,2.85-.06-.7.66-1.49.17-2.15Z"/><path class="cls-171" d="M256.12,75.38a7.14,7.14,0,0,0-2,4.54,3.45,3.45,0,0,1-1.29.26c.41-1.92.83-3.84,1.24-5.76A3.64,3.64,0,0,1,256.12,75.38Z"/><path class="cls-172" d="M255.09,82.4a2.1,2.1,0,0,1-2.57-.65c.06-.26.12-.53.17-.79.48-.57,1-.23,1.54-.43Z"/><path class="cls-173" d="M254.23,80.53c-.45.9-1,.06-1.54.43.06-.26.11-.52.17-.78l1.29-.26Z"/><path class="cls-174" d="M251.44,90.88a9.17,9.17,0,0,1-6.73-2.21c-.42-.37-.61-.77-.29-1.24s.68,0,1,.13c.58.27,1.06.77,1.87.06a.94.94,0,0,1,1,0c1,.89,2.27.48,3.47.44a14,14,0,0,1,3.25.5c.58.13.64.78.68,1.27.06.8-.67.5-.92.52C253.68,90.42,252.59,91.42,251.44,90.88Z"/><path class="cls-175" d="M246.17,84.82a1.27,1.27,0,0,1-1.09.42c-.68-.12-1.31-.13-1.54.94a1.82,1.82,0,0,0,0-.58c-.11-.24-.29-.5-.62-.23s-.39.56-.07.71,0,.56,0,.84l-1.63-2.2c.07-1,.54-1.38,1.34-1.15A11.81,11.81,0,0,1,246.17,84.82Z"/><path class="cls-176" d="M256.12,80.64a3.76,3.76,0,0,1,.87-4.16,2.16,2.16,0,0,1,2.3-.69A2.05,2.05,0,0,1,260.73,78,2.59,2.59,0,0,1,258,80.7C257.37,80.6,256.67,81,256.12,80.64Z"/><path class="cls-177" d="M256.12,80.64c.73,0,1.45-.55,2.26-.19.39.18,1.27-.58,1.93-.92a2.65,2.65,0,0,1-2,2A1.74,1.74,0,0,1,256.12,80.64Z"/><path class="cls-178" d="M259.71,67.53l-.82-1.43c1.32-.52,2,.27,2.84.85.27.2.26.58,0,.93a.63.63,0,0,1-.8.2,12.49,12.49,0,0,1-1.25-.55Z"/></g></g></svg>