<svg xmlns="http://www.w3.org/2000/svg" xmlns:xlink="http://www.w3.org/1999/xlink" viewBox="0 0 417.82 306"><defs><style>.cls-1{fill:#c9f1ec;}.cls-2{fill:#3f3d56;}.cls-3{fill:#cfd1d4;}.cls-4{fill:#e5f7f4;}.cls-5{fill:#e5e6e8;}.cls-6{fill:#f76d70;}.cls-7{fill:#00bea5;}.cls-8{fill:#2f2e41;}.cls-9{fill:#39374e;}.cls-10{fill:#9f616a;}.cls-11{fill:#2b2a3c;}.cls-12{fill:#403e56;}.cls-13{fill:#df6265;}.cls-14{fill:#403e57;}.cls-15{fill:#2e2d3e;}.cls-16{fill:#e06568;}.cls-17{fill:#7f6373;}.cls-18{fill:#bbbcbf;}.cls-19{fill:#a5cdcb;}.cls-20{fill:#00ab95;}.cls-21{fill:#cfd2d4;}.cls-22{fill:#f9fafa;}.cls-23{fill:#dbdcdd;}.cls-24{fill:#e0a9a9;}.cls-25{fill:#e36467;}.cls-26{fill:#e76669;}.cls-27{fill:#e46467;}.cls-28{fill:#d9e8e8;}.cls-29{fill:#9e9da9;}.cls-30{fill:#a09fab;}.cls-31{fill:#eb1d24;}.cls-32{fill:#139446;}.cls-33{fill:#010101;}.cls-34{fill:#020202;}.cls-35{fill:#040404;}.cls-36{fill:#fbfbfb;}.cls-37{fill:#fcfcf4;}.cls-38{fill:#fefefe;}.cls-39{fill:#0359ad;}.cls-40{fill:#0252a2;}.cls-41{fill:#044991;}.cls-42{fill:#083a74;}.cls-43{fill:#0773af;}.cls-44{fill:#fdaf01;}.cls-45{fill:#f2d10d;}.cls-46{fill:#0c2c25;}.cls-47{fill:#fd7a01;}.cls-48{fill:#feb602;}.cls-49{fill:#ddc825;}.cls-50{fill:#082d4a;}.cls-51{fill:#f89f11;}.cls-52{fill:#fab30e;}.cls-53{fill:#072d5e;}.cls-54{fill:#fc8c26;}.cls-55{fill:#fc8403;}.cls-56{fill:#017cc7;}.cls-57{fill:#0181ca;}.cls-58{fill:#0092d6;}.cls-59{fill:#00a3e2;}.cls-60{fill:#0189d0;}.cls-61{fill:#b75e4a;}.cls-62{fill:#04c0ef;}.cls-63{fill:#00a9d7;}.cls-64{fill:#019ddc;}.cls-65{fill:#0199c8;}.cls-66{fill:#0b8cba;}.cls-67{fill:#fd7901;}.cls-68{fill:#fd8002;}.cls-69{fill:#fd7303;}.cls-70{fill:#e96e33;}.cls-71{fill:#0156ac;}.cls-72{fill:#0161b5;}.cls-73{fill:#0251a0;}.cls-74{fill:#016dbd;}.cls-75{fill:#0173bf;}.cls-76{fill:#039bd3;}.cls-77{fill:#02a5d2;}.cls-78{fill:#e4420c;}.cls-79{fill:#024790;}.cls-80{fill:#063d74;}.cls-81{fill:#0091d6;}.cls-82{fill:#018bd1;}.cls-83{fill:#0c7eb6;}.cls-84{fill:#007db3;}.cls-85{fill:#fb4c03;}.cls-86{fill:#fd6f02;}.cls-87{fill:#fd5e04;}.cls-88{fill:#e4410c;}.cls-89{fill:#ba4c2e;}.cls-90{fill:#005db2;}.cls-91{fill:#0165b8;}.cls-92{fill:#0061b6;}.cls-93{fill:#005796;}.cls-94{fill:#0b4a6b;}.cls-95{fill:#0a4277;}.cls-96{fill:#2a4a46;}.cls-97{fill:#13351d;}.cls-98{fill:#0074c2;}.cls-99{fill:#007cc8;}.cls-100{fill:#0171c0;}.cls-101{fill:#0079c5;}.cls-102{fill:#fea801;}.cls-103{fill:#fcbc04;}.cls-104{fill:#feb501;}.cls-105{fill:#fda505;}.cls-106{fill:#fbc404;}.cls-107{fill:#facb06;}.cls-108{fill:#fd9001;}.cls-109{fill:#fd9a01;}.cls-110{fill:#fd8501;}.cls-111{fill:#fea001;}.cls-112{fill:#fd8302;}.cls-113{fill:#fda301;}.cls-114{fill:#fdb003;}.cls-115{fill:#fcbb03;}.cls-116{fill:#fdaa06;}.cls-117{fill:#fdc901;}.cls-118{fill:#fec401;}.cls-119{fill:#f7cc08;}.cls-120{fill:#00447f;}.cls-121{fill:#fd8f01;}.cls-122{fill:#fd9702;}.cls-123{fill:#fe9d00;}.cls-124{fill:#0075c3;}.cls-125{fill:#0085ce;}.cls-126{fill:#0186cd;}.cls-127{fill:#0380b5;}.cls-128{fill:#018ed3;}.cls-129{fill:#0099d9;}.cls-130{fill:#028ed2;}.cls-131{fill:#00ace5;}.cls-132{fill:#0fa7d9;}.cls-133{fill:#049cd9;}.cls-134{fill:#f54101;}.cls-135{fill:#08aee5;}.cls-136{fill:#fa5005;}.cls-137{fill:#f54703;}.cls-138{fill:#02b8ec;}.cls-139{fill:#02c7f5;}.cls-140{fill:#fe7501;}.cls-141{fill:#fd7d03;}.cls-142{fill:#fd6b02;}.cls-143{fill:#fd6801;}.cls-144{fill:#fd5d01;}.cls-145{fill:#fe5701;}.cls-146{fill:#015cb2;}.cls-147{fill:#0068ba;}.cls-148{fill:#0165b7;}.cls-149{fill:#136aa2;}.cls-150{fill:#0172c1;}.cls-151{fill:#04c6f3;}.cls-152{fill:#09aed5;}.cls-153{fill:#009adb;}.cls-154{fill:#00a1e0;}.cls-155{fill:#01aee7;}.cls-156{fill:#00a7e2;}.cls-157{fill:#fd4901;}.cls-158{fill:#008ad0;}.cls-159{fill:#0183cb;}.cls-160{fill:#fb4602;}.cls-161{fill:#fd5601;}.cls-162{fill:#8f8588;}.cls-163{fill:#c74c2d;}.cls-164{fill:#fd6201;}.cls-165{fill:#fd6701;}.cls-166{fill:#f14404;}.cls-167{fill:#8098a1;}.cls-168{fill:#016abb;}.cls-169{fill:#0078c6;}.cls-170{fill:#027dc7;}.cls-171{fill:#0082cc;}.cls-172{fill:#0170bf;}.cls-173{fill:#fe8a00;}.cls-174{fill:#fc8503;}.cls-175{fill:#fe8701;}.cls-176{fill:#fd9904;}.cls-177{fill:#fcbf03;}.cls-178{fill:#fe9300;}.cls-179{fill:#fe5e00;}.cls-180{fill:#fe5700;}.cls-181{fill:#03b7ec;}.cls-182{fill:#01bff2;}.cls-183{fill:#0c9ad8;}.cls-184{fill:#02a7e2;}.cls-185{fill:#00aae7;}.cls-186{fill:#0086cf;}.cls-187{fill:#0b83b2;}</style></defs><g id="Layer_2" data-name="Layer 2"><g id="Layer_1-2" data-name="Layer 1"><path class="cls-1" d="M208.72,306q-103.49,0-207,0C.32,306,0,305.68,0,304.26Q.06,153,0,1.73C0,.32.32,0,1.73,0Q208.91.06,416.09,0c1.41,0,1.73.32,1.73,1.73q-.06,151.27,0,302.53c0,1.42-.32,1.74-1.73,1.74Q312.4,305.94,208.72,306Z"/><path class="cls-2" d="M304.57,51.9c3.21,4.1,4.14,9,5,14a105.74,105.74,0,0,1,1.49,27.23,37.77,37.77,0,0,1-5.46,16.84c-1.95,3.22-4,6.41-5.88,9.65a36,36,0,0,0-5.15,15.55c-.49,5.85.49,11.51,5,15.51,6.44,5.71,9.5,12.83,10.91,21.08,1.15,6.77,2.77,13.49,2.23,20.4-1.69,21.9-12.22,38-31.88,48-.76.39-1.52.74-2.28,1.1a3.39,3.39,0,0,1-1.81,1.17c-5.42,2.21-11,4-16.43,6.17a53.05,53.05,0,0,0-12,6.54,3.21,3.21,0,0,1-1.49.76c-1.29-.69-2.56-1.4-3-2.95.54-1.27,1.73-1.88,2.76-2.61,5.32-3.77,11.27-6.25,17.37-8.42,1.32-.48,2.63-1,3.94-1.49,5.24-1.93,10.54-3.72,15.31-6.68,13.89-8.64,22-21.14,24.52-37.26,1.18-7.62.1-15.16-1.53-22.62-.53-2.48-1-5-1.65-7.42a19.43,19.43,0,0,0-5.51-9.7,29.76,29.76,0,0,1-6.05-7.22c-3.09-5.63-3.67-11.6-2.58-17.85a48.34,48.34,0,0,1,7.5-18q2.5-3.9,4.81-7.94c2.82-4.93,3.77-10.36,4-15.91a98.38,98.38,0,0,0-.2-11.64,111,111,0,0,0-2.49-16.34c-.64-2.75-1.48-5.45-3.62-7.5a6.75,6.75,0,0,0-2.23-1.5,3.54,3.54,0,0,0-3.56.38c-3.21,2-5,5.14-7.31,7.86s-3.89,5.19-2.9,8.76q0,64.8,0,129.59c0,1.07.37,2.29-.73,3.13a6.69,6.69,0,0,1-2.51.26H53.63c-1,0-2.05.2-2.89-.61l0-6.92q0-63,0-126.09c0-3.83,1.6-5.61,5.33-5.95a20.19,20.19,0,0,1,2.2,0c65.38,0,130.76.08,196.13-.1,7.92,0,15.85-.12,23.77-.22a2.61,2.61,0,0,0,2.7-1.31c.68-1,1.48-2,2.19-3,1.75-2.17,3.37-4.44,5-6.67a1.88,1.88,0,0,1,.78-.64,3.25,3.25,0,0,1,1.95,0,3.33,3.33,0,0,0,3.57-1,6.64,6.64,0,0,1,3.91.46,4.72,4.72,0,0,0,3.25,0C303.31,50.05,303.61,50.2,304.57,51.9Z"/><path class="cls-3" d="M50.74,202.23c.57,0,1.13,0,1.69,0H282.25c.56,0,1.13,0,1.69,0,.71.67.56,1.56.57,2.38q0,6.09,0,12.16c0,4.7-2.22,7-6.94,7-9.68.06-19.37,0-29,0a23.92,23.92,0,0,0-5.21.28,18.35,18.35,0,0,0-4.56-.32c-9.34.12-18.68,0-28,0-5.46,0-10.92.07-16.37,0-6.23,0-12.47,0-18.75,0,.08.85.69,1.14,1.1,1.55q9.48,9.51,19,19c.68.68,1.91,1.32,1.43,2.44s-1.69.62-2.6.62q-27.1,0-54.21,0a3.73,3.73,0,0,1-2.45-.39,1.4,1.4,0,0,1-.27-1c.28-2.39.46-4.8.88-7.18a2.17,2.17,0,0,1,.49-1.05q.83-6.66,1.66-13.32c.1-.83-.13-1.31-1.07-1.24-.44,0-.9,0-1.35,0-26.95,0-53.91,0-80.87,0-4.47,0-6.85-2.49-6.65-6.69C50.88,211.8,50.73,207,50.74,202.23Z"/><path class="cls-4" d="M138.94,237.78c-.33,3-.65,6.09-1,9.14a.43.43,0,0,1-.21.54c-2.21.64-4.47.18-6.71.32a5.2,5.2,0,0,0-2.48.39,3.14,3.14,0,0,0,2.48.55h73.49a3,3,0,0,0,2.16-.42c-.63-.71-1.4-.47-2.08-.52-2.23-.15-4.5.32-6.71-.32-1.4-2.15-1.2-4.69-1.67-7.07-.18-.9-.52-1.87.17-2.74a2.88,2.88,0,0,1,2-.2c3.49.24,7,.18,10.45.08a5.77,5.77,0,0,1,2.13.46c6.3,2,12.74,1.95,19.21,1.32,1.47-.15,2.76-1,4.24-1.09,3.85.66,7.75.45,11.62.65,6.57.34,13.13.88,19.71,1.13a2.49,2.49,0,0,1,2.11.86c-4.43,1.89-9.08,3.26-13.41,5.41A43.14,43.14,0,0,0,244,253c-.7.35-1.17-.18-1.67-.48a20.82,20.82,0,0,0-17.38-1.86c-.33.1-.63.24-.95.37-.94.39-1,.8-.08,1.33,2.5,1.51,5.08,2.9,7.55,4.46.66.42,1.9.77,1.45,1.71-.36.77-1.42.08-2.12-.15-3.58-1.17-7.22-2.15-10.78-3.38a2.51,2.51,0,0,0-3,.79c-1.08,1.14-1.76,2.62-3,3.61-11.53.44-23.07.09-34.59.43-6,.18-12.05.42-18,.16-9.51-.41-19,.09-28.52-.34-4.44-.2-8.88,0-13.31-.28-6.33-.38-12.68-.41-19-.69-4.76-.22-9.52-.44-14.28-.69-5.25-.28-10.51-.63-15.76-1-6.19-.43-12.38-.95-18.54-1.69-7.54-.91-15.12-1.67-22.48-3.72a11.79,11.79,0,0,1-3.38-1.5c-1.38-.9-1.39-1.89.07-2.68a18.16,18.16,0,0,1,3.91-1.5,125.42,125.42,0,0,1,18.17-3.1c4.28-.5,8.55-1,12.84-1.3l.18.22a6.86,6.86,0,0,1-.33,2.66c-1.08,5.69,1.22,9.28,7,10.15a39.81,39.81,0,0,0,10.41.45c2.67-.31,5.42,0,8-1a6.43,6.43,0,0,0,4.54-6.4,14.4,14.4,0,0,0-.47-4.84c-.54-1.7-.71-1.81-2.37-1.31a13.9,13.9,0,0,1-2.59.74c-.45,0-1,.05-1.16-.44s.32-.72.66-.86c1.24-.52,2.13-1.86,3.69-1.62a11.28,11.28,0,0,0,5,.15,68.72,68.72,0,0,1,9.38-.48c5.66-.2,11.34-.35,17-.56,5.39-.19,10.77-.09,16.16-.25C137.06,238.07,138,237.89,138.94,237.78Z"/><path class="cls-4" d="M348.56,267.23c1.54.58,3.19.37,4.78.57,6.22.76,12.44,1.4,18.59,2.59a66.48,66.48,0,0,1,12.34,3.22,13.63,13.63,0,0,1,3,1.57c1.81,1.3,1.88,2.43.24,3.95a11,11,0,0,1-4.13,2.19,99,99,0,0,1-17,3.8c-5.19.79-10.42,1.34-15.63,1.95-3.22.37-6.47.48-9.71.73-7.21.55-14.43.95-21.67,1.1-2.45.06-4.93.28-7.39.22-5.69-.15-11.35.55-17,.36-6.91-.24-13.83-.24-20.74-.4-5.2-.12-10.43-.3-15.62-.67-6.36-.46-12.72-1-19.06-1.57a207.46,207.46,0,0,1-26.83-4.13,29.94,29.94,0,0,1-7.87-2.91c-2.56-1.42-2.64-3.18-.24-4.86a18.65,18.65,0,0,1,5.24-2.23,1.47,1.47,0,0,0,1.22-1.55c.69.12.63.7.71,1.18a8.57,8.57,0,0,0,6.18,7.29,27.12,27.12,0,0,0,8.47,1.24c4.77-.11,9.55.28,14.31-.26,3.18-.35,6.19-1.12,8.7-3.23a2,2,0,0,1,.76-.35c12.78.64,25.32-1.24,37.83-3.49a90.47,90.47,0,0,0,18.24-4.74,3.52,3.52,0,0,1,1.47-.3c2.31.68,4.49,1.71,6.86,2.24,1.75.39,3.51.69,5.29.94a3.12,3.12,0,0,0,1.49-.09c.48-.17,1-.37,1.09-.94s-.43-.86-.87-1.09a13.37,13.37,0,0,1-3.68-2.31c-.52-.55-1.4-1.16-.4-2.06a1.39,1.39,0,0,1,.65-.16c4.31.46,8.69-.1,13,.85.84.51.66,1.34.65,2.11,0,2.73.7,3.38,3.43,3,3.84-.56,7.65-1.15,11.05-3.23A2.53,2.53,0,0,1,348.56,267.23Z"/><path class="cls-5" d="M349.9,175.26V152.13c0-3.16,1.75-4.93,4.87-4.93,11.59,0,23.19.08,34.79,0,3.19,0,5.68,1.88,5.66,5.76-.05,10.92,0,21.83,0,32.75a13.19,13.19,0,0,1-.1,2.52,5.19,5.19,0,0,1-5.45,4.3c-8.89,0-17.79,0-26.68,0-.64,0-1.37-.28-1.91.35a.35.35,0,0,1-.47-.07,2.29,2.29,0,0,1-.31-2c2.53-1.63,5.53-2.1,8.24-3.27,1.18-.51,2.45-.81,3.66-1.27,2.16-.82,2.89-1.73,2.42-3s-1.52-1.45-3.65-.7L360.8,186.1a3.52,3.52,0,0,1-2.11.4,29,29,0,0,1-3-6,1.26,1.26,0,0,1,1-1c2.29-.72,4.46-1.78,6.83-2.28a1.53,1.53,0,0,1,1.12.3c1.46,1.54,3.35,1.33,5.2,1.32,2.36,0,4.72,0,7.08,0a3.94,3.94,0,0,0,3-1.26,10.53,10.53,0,0,0,2.16-12.4,27.25,27.25,0,0,0-1.68-2.72,4,4,0,0,0-3.81-2c-2.92.11-5.84,0-8.76,0a3.23,3.23,0,0,0-2.62,1.23A11.58,11.58,0,0,0,362,171.8a2.32,2.32,0,0,1,0,1.33,2.46,2.46,0,0,1-1.51.94c-2.8.91-5.47,2.17-8.36,2.79C351.1,176.65,350.13,176.46,349.9,175.26Z"/><path class="cls-6" d="M340.81,206.35c.21,3.34.48,6.68.63,10,.17,3.88.12,3.88-3.61,4.37-1.55-.11-2.66-1.27-4.08-1.66a10.33,10.33,0,0,0-7.4.41c-1.71.71-3.37,1.54-5.1,2.22a5.34,5.34,0,0,1-.95.33c-2.11.57-2.6.1-2.15-2a14.45,14.45,0,0,0,.55-3c.37-2.15.42-4.35.77-6.5.2-.53.44-1,.64-1.57l-.26-1a15,15,0,0,1,1.41-3.94,6.29,6.29,0,0,0,.6-4.72,11.11,11.11,0,0,1,.42-7.54,15.85,15.85,0,0,0,1.59-4.92c.19-3.13,1.86-5.65,3.38-8.22.5-.86,1.49-.86,2.4-.87,2.47.22,4.93.44,6.91,2.2,2.24,2.73,3.15,6.05,3.91,9.38a28.89,28.89,0,0,0,2.45,6.07,1.54,1.54,0,0,0,1.79.92c2.7-.46,5.45-.71,7.68-2.65,1.47-1.28,2-1.15,3.61.25a37.51,37.51,0,0,0,1.09,3.61,1.58,1.58,0,0,1-1.11,2.24c-4.34,1.46-8.62,3.11-13.07,4.22-3.54.38-5.65-1.7-7.44-4.33a14.42,14.42,0,0,1-1.21-2.26,11.19,11.19,0,0,0,1.15,2.18,10.22,10.22,0,0,0,4.33,4.06c1.07.5,1.17,1.39,1.1,2.39Z"/><path class="cls-7" d="M217.4,279.92a8.75,8.75,0,0,1-6.16-7.8,8.42,8.42,0,0,0-.24-1,24.78,24.78,0,0,1,1.24-8.45c.37-1.07.74-1.41,1.9-1,2,.73,4,1.27,6.05,1.88l.21-.44L214,259.41c.75-2,2.3-3.41,3.73-4.9.59-.61,1.15-.27,1.7-.1,4.08,1.25,8.15,2.53,12.22,3.8a1.89,1.89,0,0,0,1.36.05l-11.12-6.58a17.16,17.16,0,0,1,7.24-2.41A21.64,21.64,0,0,1,244,253l2.95,2.74c1.08.45,1.52,1.52,2.26,2.31a21.08,21.08,0,0,1,1.63,3.08c.26.55.53,1.13.06,1.72a9.33,9.33,0,0,1-2.69,0,6.19,6.19,0,0,0-5.55,2.63,13.34,13.34,0,0,1-11.72,5.5c-5.12-.12-8.63,2.66-11.57,6.45C218.7,278.28,218.47,279.43,217.4,279.92Z"/><path class="cls-4" d="M248.79,258.06l-1.87-2.31c4.72-3.95,10.21-6.47,15.91-8.6l15.75-5.91c.11.61.57.56,1,.59a207.61,207.61,0,0,1,23.17,3c.42.08,1.23.75,1.51-.32,1.47,2.15,2.39,4.61,3.78,6.8.14.23-.09.52-.32.7a10.77,10.77,0,0,1-3.54,1.08,229,229,0,0,1-22.89,3.17c-6.21.64-12.43,1.05-18.65,1.57-3.86.31-7.75.38-11.61.74A3.48,3.48,0,0,1,248.79,258.06Z"/><path class="cls-2" d="M355.88,194.35c-1.87-1.46-1.8-1.37-3.73.16-2.5,2-5.61,2.07-8.61,2.43-.68.08-.69-.6-.94-1-1.84-3.09-2.53-6.57-3.54-10a15.74,15.74,0,0,0-2.82-5.69c-.55-1.34.16-2.38.8-3.44,1.46-1.1,3.08-2,4-3.69a.71.71,0,0,1,1-.33,23.3,23.3,0,0,1,7.82,2.44l2,1.36a7.07,7.07,0,0,1,4,4.12,33,33,0,0,1,2.84,5.63,6.91,6.91,0,0,1,1.62,4.43c.14.69.28,1.37.43,2.06C360.07,194.07,357.8,194.76,355.88,194.35Z"/><path class="cls-7" d="M88.58,239.24a2,2,0,0,0-.31.13l-4.09,2.39a10,10,0,0,0,4.47-1c1.17-.43,1.6-.05,1.91,1a14.39,14.39,0,0,1,.39,8,6.15,6.15,0,0,1-4.41,4.63,2.15,2.15,0,0,1-1.17-1.16A11.4,11.4,0,0,0,81.06,249a8.47,8.47,0,0,0-5-1.33,9.54,9.54,0,0,1-8.49-3.95,5.17,5.17,0,0,0-4.55-2.13,3.42,3.42,0,0,1-1.82-.12.47.47,0,0,1-.17,0c2.46-5.95,6.77-9.5,13.24-10.32A15.26,15.26,0,0,1,83.22,233l-7.75,4.58a2.18,2.18,0,0,0,1.81-.1c2.36-.73,4.75-1.37,7.07-2.2a2.09,2.09,0,0,1,2.78.71c.53.72,1.1,1.41,1.67,2.11C89.19,238.61,89,239,88.58,239.24Z"/><path class="cls-6" d="M278.69,63.29c-7.88,0-15.77.06-23.65.06H57.72c-.56,0-1.12-.05-1.67-.08.62,0,1.23-.1,1.84-.1l196.57,0c.78,0,1.94.37,2.25-.25.69-1.35,1.87-2.59,1.83-4.21-.12-5.07.18-10.06,1.94-14.89A3.86,3.86,0,0,0,261,42l.23,0c.61.29.6.91.77,1.43a3.3,3.3,0,0,0,2,2.48c.2.1.12-.3.08-.08-2-.71-2.29-2.36-2.29-4.17a.55.55,0,0,1,.63-.3,12.6,12.6,0,0,0,5.74,3.24,9.61,9.61,0,0,1,3.11,1.65A1.62,1.62,0,0,1,272,48c-.48.61-.9.1-1.3-.11-1.22-.67-2.49-1.24-3.48-1.77,0,0,.29.18.57.31,1.38.64,2.68,1.41,4,2.07a14.34,14.34,0,0,1,3.24,2,2.7,2.7,0,0,1,.36.26,5.16,5.16,0,0,0,1.26.9,3.22,3.22,0,0,1,.79.53,1.49,1.49,0,0,1,.3,1.44,4.52,4.52,0,0,1-2.07,2.57c-2,1.17-3,3.13-3.91,5.13-.44.94-.05,1.23.84,1.23,1.58,0,3.15,0,4.72,0C277.85,62.66,278.6,62.37,278.69,63.29Z"/><path class="cls-8" d="M256.22,41.16c-1.43-1.38-2.18-3.2-3.44-5,3.16.06,5.47-1.41,7.77-2.91,4.42-2.89,8.5-6.3,13.27-8.65.45-.22.9-.46,1.36-.66,3.75-1.64,4.48-1.49,7.32,1.55A6.88,6.88,0,0,0,284.32,27c2.58,1.31,3,3.87,3.69,6.3a.9.9,0,0,1-.31,1.06,13.47,13.47,0,0,1-4.77.65c-1.55-.1-2.76,1-3.87,1.9a9,9,0,0,1-10,1.36,4.32,4.32,0,0,0-5.11,1C261.79,41.5,259.15,41.9,256.22,41.16Z"/><path class="cls-8" d="M348.56,267.23c-1.83.71-3.55,1.66-5.33,2.43a29.59,29.59,0,0,1-10,1.86c-1.44.08-2-1-2.07-2.34,0-1,.06-2,.09-3C330,261.53,328,257.1,327,252.37c-.27-1.3-.16-2.48,1.27-3.1a22.4,22.4,0,0,0,7-1.2,1.38,1.38,0,0,1,1.42.17c1.14.76.9,2,.93,3a49.2,49.2,0,0,0,.74,9.53,3.89,3.89,0,0,0,3.39,3.39,35.94,35.94,0,0,0,5.18.42C348.94,264.69,349.52,265.72,348.56,267.23Z"/><path class="cls-2" d="M308,251.64c-1.43-2.28-3-4.47-3.67-7.15a23.43,23.43,0,0,1,2.26-12.77c3.57-7.77,7.37-15.4,12.94-22,.62,0,.49.33.37.69a53,53,0,0,1-.73,6.66c-2.62,5-5.44,9.95-7.86,15.09a22.07,22.07,0,0,0-2.53,9.18,9.63,9.63,0,0,0,1.24,5.16c.45,1,1.32,1.64,1.84,2.56a28.1,28.1,0,0,1-2.41,5.68A9.72,9.72,0,0,1,308,251.64Z"/><path class="cls-6" d="M271.81,48.18a5,5,0,0,0-4.49-3.31c-2.69.16-4.15-1-5-3.4,2.19-3.65,5.37-4.29,8.12-2.45a10.11,10.11,0,0,0,4.24,4.51,35.16,35.16,0,0,1,3.88,2.62,19.82,19.82,0,0,0,5.47.63c3.23.13,6.47.06,9.71.08,1,1.07,1.46,2.23.66,3.63-.5,1.34-1.5,1.58-2.8,1.35a26.37,26.37,0,0,0-2.82-.24,7.49,7.49,0,0,1-3.57.46,5.14,5.14,0,0,0-1.79.16c-1,.2-2,.35-2.93.61a3.47,3.47,0,0,1-3.3-.59.7.7,0,0,1-.67-.33c-.46-.32-.87-.72-1.35-1h0a20.49,20.49,0,0,0-3-2.15A.8.8,0,0,1,271.81,48.18Z"/><path class="cls-9" d="M336.74,248.24c-2.79.69-5.51,1.76-8.47,1.36a.73.73,0,0,1-.18-.53c-.74-4.21,1.4-7.66,2.91-11.3a33.13,33.13,0,0,0,2.17-17.25c-.19-1.42-.22-1.45.86-1.68a17.57,17.57,0,0,1,3.8,1.91q-.72,4.58-1.43,9.13a8.27,8.27,0,0,0,.93,5,5.84,5.84,0,0,1-.07,5.87C336,243,336.77,245.74,336.74,248.24Z"/><path class="cls-8" d="M329.92,174.59A7.29,7.29,0,0,1,328.8,165c.13-.18.25-.43.43-.51,2.46-1.05,5-2.26,7.7-1.56a23,23,0,0,1,4.44,2.22,2.56,2.56,0,0,1-1.42,3.09,12,12,0,0,0-3.83,3.09,1.63,1.63,0,0,0-1.85,1.48,3.63,3.63,0,0,1-2.21,2.75,2.34,2.34,0,0,1-.75.08C330.6,175.61,330.28,175.07,329.92,174.59Z"/><path class="cls-10" d="M274.5,43.77c-1.83-1.05-3.57-2.18-4.08-4.44.52-.43,1.08-.21,1.61-.07a6.51,6.51,0,0,0,5.28-1c1.1-.67,2.14-1.46,3.25-2.12a7.32,7.32,0,0,1,5.79-.62,6.33,6.33,0,0,1-8,6.15c-.86-.2-1.65-.45-2.18.54A2.44,2.44,0,0,1,274.5,43.77Z"/><path class="cls-10" d="M332,175.26c1.36-.64,1.76-1.86,2.05-3.2.25-1.16.86-1.68,2-.8a1.21,1.21,0,0,0,1.17-.52c.86-1.59,2.63-1.78,4-2.62.08-.05.19,0,.27.14.61,1.46,0,3.09.64,4.56-.25.08-.54.07-.68.39a7.26,7.26,0,0,1-4.07,3.72C335.08,177.94,332.58,177.16,332,175.26Z"/><path class="cls-10" d="M294.42,50.49a10.74,10.74,0,0,0-.66-3.63,13.18,13.18,0,0,0,5.24-.81,3.78,3.78,0,0,1,4.2,1.28c1,1.26,2.41,2.61,1.37,4.57-.87-1.17-1.81-1.55-3.16-.62a3.15,3.15,0,0,1-2.75,0A14,14,0,0,0,294.42,50.49Z"/><path class="cls-10" d="M355.88,194.35c1.61-.64,3.48-.43,5-1.49a.55.55,0,0,1,.22,0c.05.78.65.58,1.13.67a3.11,3.11,0,0,1,2.44,2.1,1.84,1.84,0,0,1-1.78,2.63,14.37,14.37,0,0,0-3.79.62c-.79-.41-1.81-.39-2.36-1.24C356.39,196.54,355.58,195.58,355.88,194.35Z"/><path class="cls-11" d="M286.35,35.47c-3.61-.4-6.4,1.36-9.18,3.33-2.07,1.48-4.42,1.37-6.75.53-2.46-1.33-4.7-1.23-6.68.93a13.5,13.5,0,0,1-1.4,1.21l-.39.17c-.16.57-.62.28-1,.34l0,.06c-1.62-.07-3.43.89-4.74-.88,1.31-.53,2.66.15,4-.28a7.08,7.08,0,0,0,3.41-1.94,4.07,4.07,0,0,1,5-1.26c4.43,2.11,8.1.73,11.56-2.14a4.31,4.31,0,0,1,4-1,2.9,2.9,0,0,0,2.66-.71c.84-.71.73,0,.76.46C287.5,35,286.85,35.16,286.35,35.47Z"/><path class="cls-12" d="M329.92,174.59c.52.16.84.74,1.46.7.42,1.71,0,2.36-1.82,2.94-1.4-.17-2.06.54-2.69,1.75-1.16,2.25-2.05,4.6-3,6.94-2.33-5.11-.5-9.44,4.76-11.38C329.1,175.36,330,175.56,329.92,174.59Z"/><path class="cls-13" d="M322.28,191.84c.3,1.08-.5,2-.44,3.07,0,.72-.22,1.55.05,2.17,1.68,3.87-.31,7.19-1.5,10.62-.05.16-.35.23-.54.34a5.14,5.14,0,0,1-1.08-4.26c.51-2.91,1.14-5.8,1.84-8.67A10,10,0,0,1,322.28,191.84Z"/><path class="cls-14" d="M356.7,197.63c.71.56,1.93.16,2.36,1.24a10.25,10.25,0,0,1-4.13,2.5c-4.72,1.62-9.42,3.31-14.12,5l0,0c-.39-2.27-.39-2.27,2-2.64,4.57-1.18,9-2.94,13.43-4.39C357.33,198.93,356.78,198.23,356.7,197.63Z"/><path class="cls-15" d="M341.44,168.26a13.2,13.2,0,0,1-2,1.15,2.62,2.62,0,0,0-1.86,1.71c-.3.87-.93,1.15-1.53.14a5.08,5.08,0,0,1,3.21-3c1.39-.47,1.86-1.76,2.14-3.09C343.33,166.14,342,167.21,341.44,168.26Z"/><path class="cls-16" d="M274.5,43.77a3.94,3.94,0,0,1,1.65-1.61,17,17,0,0,1,2.43,4C276.92,45.88,275.88,44.53,274.5,43.77Z"/><path class="cls-17" d="M319.86,210.42c-.12-.23-.24-.46-.37-.69a1.19,1.19,0,0,1,.62-.73A1.71,1.71,0,0,1,319.86,210.42Z"/><path class="cls-1" d="M168.11,71.84H273.23c2.29,0,2.3,0,2.3,2.25V191.34c0,2.16,0,2.16-2.23,2.16H62.72c-2.21,0-2.21,0-2.21-2.17V74.08c0-2.24,0-2.24,2.3-2.24Z"/><path class="cls-13" d="M283.3,58.77c-1.92-1.71-4.21-3-5.78-5.09a2,2,0,0,0-.31-1.44c2.08.85,4-.36,6.07-.34,1.66.4,3.39-.19,5,.32A67.63,67.63,0,0,1,283.3,58.77Z"/><path class="cls-1" d="M288.32,52.22c-1.7.24-3.42.82-5-.32,1.8-.72,3.67-.32,5.52-.3Z"/><path class="cls-18" d="M194.07,223.25c.45,2.79.91,5.59,1.33,8.39.09.6.43.7.92.7.84,0,1.67,0,2.51.08-.17.75-.81.66-1.34.74s-1.36-.11-1.23.9c.11.84.22,1.74,1.35,1.83,1.4.11,2.81,0,4.2.07.85.08,2-.47,2.42.84-1.9.91-3.91.24-5.86.46-.68.07-1.47-.27-2,.52.46,3.15.91,6.31,1.37,9.46a2.84,2.84,0,0,1-2.23.55q-27.69,0-55.4,0a2.82,2.82,0,0,1-2.22-.55,1.66,1.66,0,0,1,0-.32q28.54,0,57.11,0c.62,0,1.54.41,1.82-.34.2-.56-.64-1-1.07-1.4Q185.68,235,175.53,224.82a3.26,3.26,0,0,1-1.21-1.57Z"/><path class="cls-2" d="M204.26,236.7c-2.25-.61-4.54-.27-6.81-.23s-1.42-1.78-1.72-2.84c-.41-1.49.88-.81,1.47-1a12.3,12.3,0,0,1,1.63-.24,34.4,34.4,0,0,1,13.36,2.2c5.43,2,11.18,1.79,16.85,1.26,4-.37,6.64-2.78,8.31-6.33a17.91,17.91,0,0,0,1.72-6.29c1,0,2.07-.06,3.1-.12.59,0,.94.18,1,.8-.65,4.33-2,8.36-5,11.66a16.22,16.22,0,0,1-3.84,3c-5,2.28-10.33,1.63-15.58,1.43a31.19,31.19,0,0,1-9.8-2.14A9.91,9.91,0,0,1,204.26,236.7Z"/><path class="cls-7" d="M172.81,210.11c1,0,.82.79.89,1.32a5.38,5.38,0,0,1-3.84,5.44,5.21,5.21,0,1,1,2.39-8.59c.4.43,1,.87.18,1.47-.19.24-.3.56-.44.58A8.25,8.25,0,0,1,172.81,210.11Z"/><path class="cls-19" d="M172.81,210.11l-1.75,1-.23-.33,1.6-1.08Z"/><path class="cls-20" d="M61.24,241.47a5.84,5.84,0,0,1,6.95,2.23,7.91,7.91,0,0,0,6.88,3.49c5.5-.19,9.06,2.48,11.47,7.13a16.13,16.13,0,0,1-5.91,1.09,92.3,92.3,0,0,1-10.78,0c-7.71-.38-11-4.83-9.15-12.31C60.83,242.51,61.06,242,61.24,241.47Z"/><path class="cls-21" d="M137.93,247.24h59.85c2.76,0,5.52,0,8.27,0,.7,0,1.53-.21,1.54,1s-.76,1-1.49,1H129.77a4.76,4.76,0,0,1-1.65-.15c-.49-.19-.34-.78-.3-1.21.07-.74.66-.65,1.16-.65Z"/><path class="cls-22" d="M204.26,236.7a12.29,12.29,0,0,1,4.65,1.15c-1.18.55-2.42.22-3.63.25a53.64,53.64,0,0,1-8.87-.32c-.5-.95.09-1,.81-1C199.56,236.76,201.91,236.73,204.26,236.7Z"/><path class="cls-20" d="M217.4,279.92c1.9-4.42,5.41-7.1,9.68-9a7.48,7.48,0,0,1,3.3-.35c3.2,0,6.24-.38,8.92-2.33a9.77,9.77,0,0,0,2.52-2.44c2.28-3.48,5.51-3.85,9.16-3.07,1.5.95,1.07,2.66,1.59,4a20.29,20.29,0,0,1-.24,6.64c-.54,1.42-.73,3.05-2.22,3.93-2.72,2.68-6.16,3.62-9.81,3.85-6.79.42-13.58.71-20.33-.45A19.49,19.49,0,0,1,217.4,279.92Z"/><path class="cls-8" d="M309.37,254.68a31.43,31.43,0,0,1,2.25-5.88c-.2-.48.05-.81.36-1.12a1.27,1.27,0,0,1,1-.31,3.29,3.29,0,0,1,1.46.78,9,9,0,0,0,5.55,2c.83,0,1.72,0,2.09,1-.51,2.81-2,5.24-3.26,7.71-1.1,2.1-2.39,4.07-1.65,6.6.95,2.06,2.92,2.82,4.79,3.71.59.29,1.38.43,1.23,1.34a1.94,1.94,0,0,1-1.45,1.48,6.88,6.88,0,0,1-3.49-.12A29.88,29.88,0,0,1,308,268.84c-2.35-.41-3-1.08-3.05-3.32a2.3,2.3,0,0,1,.18-.5c2.51-2.2,3-5.22,3.42-8.28C308.63,256,308.56,255.15,309.37,254.68Z"/><path class="cls-2" d="M305.24,265.41c-.15,2,1.2,2.78,2.74,3.43a3.54,3.54,0,0,0-1,.13c-8.19,3.58-17,4.76-25.66,6.25a173,173,0,0,1-24.67,2.49,22.17,22.17,0,0,1-6.55-.41,19.77,19.77,0,0,0,1.79-3.74,2.87,2.87,0,0,1,2.09-.45c10.73.07,21.3-1.42,31.82-3.29,6.08-1.08,12.18-2.17,18-4.43A1.45,1.45,0,0,1,305.24,265.41Z"/><path class="cls-23" d="M361.73,173.22c-1.22-4.85.29-8.91,3.57-12.48a2,2,0,0,1,1.62-.7q5.49,0,11,0a1.9,1.9,0,0,1,1.51.59c3.29,3.48,5.77,8.39,3.33,13.76a14.64,14.64,0,0,1-3.47,4.49,2.28,2.28,0,0,1-1.74.43c-3.37,0-6.74,0-10.11,0a2.66,2.66,0,0,1-2.38-1,1.68,1.68,0,0,0-1.59-.76c.25-1.07,1.32-.76,2-1.16s1.48-.34,1.36-1.23a4.9,4.9,0,0,0-1.05-2.77c-.29-.31-.74,0-1.11.08C363.63,172.73,362.8,173.5,361.73,173.22Z"/><path class="cls-3" d="M360.41,190.8l-1.62-4.43L371.3,182a11.24,11.24,0,0,1,1.14-.3,2,2,0,0,1,2.7,1.59,2.15,2.15,0,0,1-1.43,2.83C369.28,187.67,364.84,189.23,360.41,190.8Z"/><path class="cls-3" d="M361.73,173.22c.3-.14.6-.3.91-.43,3.47-1.47,3.44-1.46,4.56,2.07.27.85.28,1.31-.7,1.59s-2.05.77-3.07,1.17c-2.2.76-4.4,1.53-6.61,2.27-.45.15-.84.3-.87.85a35.73,35.73,0,0,0-4-4.12Z"/><path class="cls-2" d="M328.32,249.26c-.15-1.72.24-3.46-.1-5.28a1.86,1.86,0,0,0-1,1.25,4,4,0,0,1-2.8,2.66c-.91.21-1.13,1-1.43,1.73a4.26,4.26,0,0,1-1.11,1.66,1,1,0,0,0-.91-.64,10.6,10.6,0,0,1-7.8-2.85,2,2,0,0,0-.44-.22,2,2,0,0,1,1.12-2.09c1.82-1.24,2.75-3.27,4.38-4.67.6-.52.51-1.34.5-2.07a2.84,2.84,0,0,1,1.83-3.1,2,2,0,0,0,1.13-2.53,9,9,0,0,1,.31-4.66,7,7,0,0,0-.5-5.71,1.7,1.7,0,0,1-.27-1.45c2.06-.88,4.08-1.88,6.18-2.62a7.77,7.77,0,0,1,6.66.17c-.6.07-.73.39-.56.95,1.23,4.12.17,8.19-.28,12.29s-2.24,7.64-4.34,11.07a3.44,3.44,0,0,0-.24,1.64C328.47,246.27,328.94,247.8,328.32,249.26Z"/><path class="cls-24" d="M329.56,178.23c1.06-.7,1.94-1.51,1.82-2.94l.61,0c1.35,1.91,3.38,1.68,5.34,1.67a7.54,7.54,0,0,0-1.09,3.35C334.32,178.61,331.89,178.57,329.56,178.23Z"/><path class="cls-25" d="M342.84,203.66c-1.63.15-2.51.87-2,2.64-.15-1.69-1.49-2.33-2.67-3.22a6.68,6.68,0,0,1-2.75-3.49h0c.6.26.82.86,1.21,1.32A6.93,6.93,0,0,0,342.84,203.66Z"/><path class="cls-25" d="M335.37,199.59a3.12,3.12,0,0,1-1.23-2.37,5.39,5.39,0,0,1,1.23,2.37Z"/><path class="cls-26" d="M271.81,48.18l.34.34c0,.22-.22.23-.34.34-1.92-1.11-3.83-2.21-5.83-3.18C268.1,46.12,269.87,47.33,271.81,48.18Z"/><path class="cls-26" d="M261,42l1-.34c.17,1.93.57,3.71,3.22,4.39-2.23.3-2.89-1-3.41-2.22A5.66,5.66,0,0,0,261,42Z"/><path class="cls-27" d="M271.81,48.86l.34-.34a7.29,7.29,0,0,1,3,2.37C273.89,50.5,273.07,49.31,271.81,48.86Z"/><path class="cls-13" d="M275.19,50.89a1.59,1.59,0,0,1,1.35,1A1.64,1.64,0,0,1,275.19,50.89Z"/><path class="cls-28" d="M309.78,246.88l2.23,1-.39.9C310.37,248.77,310.39,247.53,309.78,246.88Z"/><path class="cls-4" d="M252.14,266.53c5.77-.08,11.53-.59,17.3-.81,3.7-.14,7.41,0,11.1-.25,8.25-.57,16.51-.21,24.77-.31a1,1,0,0,0-.07.25c-13.72,4.85-28,6.59-42.4,7.9a71.34,71.34,0,0,1-10.94.25A28,28,0,0,0,252.14,266.53Z"/><path class="cls-29" d="M372.65,177.3c-1-.07-2.32.43-2.16-1.41.11-1.36.93-2.45,2.09-2.27a2.38,2.38,0,0,1,2,2.52C374.68,177.84,373.37,177.13,372.65,177.3Z"/><path class="cls-30" d="M377.6,167.92c0,.67,0,1.35,0,2s-.23.95-.89.93-.8-.3-.8-.85v-4.38a.73.73,0,0,1,.8-.84c.67,0,.9.32.89.93S377.61,167.19,377.6,167.92Z"/><path class="cls-30" d="M367.47,168.05c0-.61,0-1.23,0-1.85s.39-.73.9-.72.77.34.77.87c0,1.07,0,2.13,0,3.2,0,.59-.16,1-.84,1s-.87-.36-.86-1,0-1,0-1.52Z"/><path class="cls-31" d="M68.81,91v-.39c.12-.15,0-.38.17-.49A13.85,13.85,0,0,0,69.82,88a3.72,3.72,0,0,1,.71-1.13,10,10,0,0,0,.71-.74c.69-.42,1.17-1.14,1.94-1.47l.09,0h.09c.26,0,.47-.06.56-.33a4.88,4.88,0,0,1,1.51-.8,1.48,1.48,0,0,1,.47-.12,3.32,3.32,0,0,0,1.8-.61c.32-.27.74-.25,1.11-.39l.68-.16c.23,0,.45-.12.68-.16a2.77,2.77,0,0,0,.5-.1,1.19,1.19,0,0,1,.42,0,4.18,4.18,0,0,0,1.57-.11,2.23,2.23,0,0,1,1,0s-.1,0-.13-.13a.35.35,0,0,1,.25-.22c1.37-.21,2.75-.15,4.12-.32H90c2.07,0,4.14,0,6.2,0,.7,0,1.41,0,2.11,0a7,7,0,0,1,2.19.12.18.18,0,0,1,.09.21,29.7,29.7,0,0,1-3.65.08,2.45,2.45,0,0,1-.6,0c1.16,0,2.45,0,3.73,0,.68,0,.79.12.82.8,0,.14,0,.28,0,.42,0,.74-.22.94-1,1-1,0-1.9,0-2.85,0-1.62,0-3.24,0-4.86,0a12.35,12.35,0,0,0-2-.12,3.51,3.51,0,0,1,1,0c-.06.39-.39.31-.64.33a2.69,2.69,0,0,1-.75,0c-.39-.06-.76-.23-1.06-.24,0,0,.14,0,.24.11-.12.33-.39.25-.63.25-.47-.21-1,0-1.42,0a.13.13,0,0,1,.07.2.51.51,0,0,1-.38.08,6.8,6.8,0,0,0-3.2.94,12.28,12.28,0,0,1-2,1.22c-.22,0-.43,0-.47.34-.53.72-1.23,1.29-1.74,2a.37.37,0,0,0-.19.42,1.5,1.5,0,0,1-.39.81,3.28,3.28,0,0,0-.33,1.46A9,9,0,0,1,78.19,93a.21.21,0,0,1,.11-.17c.31.11.25.37.24.61a2.07,2.07,0,0,0,.36,1.72.52.52,0,0,1,.27.46,1.5,1.5,0,0,0,.68,1.17,1.33,1.33,0,0,1,.46.31c.31.33.63.66.92,1,.15.14.39.16.46.38a.49.49,0,0,0,.5.26,1.38,1.38,0,0,1,.57.31.58.58,0,0,1,.11.15.89.89,0,0,0,.87.34.68.68,0,0,1,.57.29,5.26,5.26,0,0,0,2.6.68c.36,0,.7.18,1.07.1.48.1,1,.07,1.44.15a3.36,3.36,0,0,0,1.14.07c.59,0,1.18,0,1.77,0a3.13,3.13,0,0,0,2.15-.17.35.35,0,0,1,.3-.17.5.5,0,0,0,.56-.28,1.26,1.26,0,0,1,.32-.33l.23-.2a1,1,0,0,0,.28-.69c0-1.59.09-3.19-.06-4.78l-.1-.17a.35.35,0,0,0-.48-.2.28.28,0,0,1-.18,0,1.71,1.71,0,0,0-1.2,0A.7.7,0,0,1,94,94a10.6,10.6,0,0,1-1.69,0l-.2,0a1.74,1.74,0,0,0-1.36,0,.73.73,0,0,1-.3-.06,2,2,0,0,1-.36-2.17.33.33,0,0,0,0-.29.43.43,0,0,1,.37-.24,2.66,2.66,0,0,1,.63,0c3.76,0,7.53,0,11.29,0,.39,0,.78,0,1.17,0,.23,0,.48.18.68-.08a1.2,1.2,0,0,1,.21-.17,1.13,1.13,0,0,0,.33-1.32,5.22,5.22,0,0,1,1.11-3,7.19,7.19,0,0,0,.61-.84c.28-.24.43-.61.81-.73a.35.35,0,0,0,.31-.29.6.6,0,0,1,.19-.3,8.08,8.08,0,0,1,1.08-.85,2.77,2.77,0,0,1,1-.52,3.46,3.46,0,0,0,1.2-.47c1-.48,2.19-.68,3.26-1.08.26-.25.64-.13.92-.33a27,27,0,0,1,4-.32c.69,0,1.37,0,2.05,0s1.19,0,1.78,0a21.53,21.53,0,0,1,2.27.22.3.3,0,0,1,.17.12.17.17,0,0,1,0,.18.1.1,0,0,1-.1,0c.21,0,.41-.13.63-.14a.65.65,0,0,1,.19,0,5.58,5.58,0,0,0,.57.08l.28,0a.41.41,0,0,1,.29.18c.06.33.19,0,.28,0a.34.34,0,0,1,.41.1c.22.28.52.19.81.16a.32.32,0,0,1,.32.14,1.08,1.08,0,0,0,.94.28.27.27,0,0,1,.31.15c.06,0-.12.12,0,.14a1.67,1.67,0,0,1,.45.13,10.91,10.91,0,0,0,1.74.7,1,1,0,0,1,.57.3c.1.18.17.39.43.38a.51.51,0,0,1,.17.07c.21.21.52.29.74.5a6.38,6.38,0,0,1,1.39,1.5,4,4,0,0,1,.46.7,1.74,1.74,0,0,1,.35.74c0,.14,0,.28.14.36a.71.71,0,0,1,.14.1.88.88,0,0,1,.17.41,1,1,0,0,1,0,.17c0,.18-.12.39.15.49a.28.28,0,0,1,.11.32c-.05.31-.15.65.24.84a.91.91,0,0,1,.17.5,10.19,10.19,0,0,1,.13,2.34,9.44,9.44,0,0,1-.18,1.6c-.06.21-.12.42-.16.63s-.16.64-.28,1l-.28.6a.55.55,0,0,1-.17.2c-.2.08-.17.26-.17.42-.16.45-.49.8-.68,1.23a6.92,6.92,0,0,1-1.8,1.82c-.2,0-.4,0-.46.29a1.32,1.32,0,0,1-.45.43,1.63,1.63,0,0,1-.58.27,5.08,5.08,0,0,0-1.76.83.2.2,0,0,1-.11.13.71.71,0,0,1-.29,0,31,31,0,0,1-3.92.92,1.44,1.44,0,0,1-.62,0,.29.29,0,0,0-.13,0s.16,0,.18.1c-.09.28-.33.25-.55.29a2.15,2.15,0,0,0-.66.09,5.29,5.29,0,0,1-.8.06,4.77,4.77,0,0,0-1.41.09A41.93,41.93,0,0,1,118,104a.52.52,0,0,1-.32-.13c-.11-.48.34-.06.37-.25a2.21,2.21,0,0,0-.88.17l-.2,0c-.24,0-.52.07-.61-.27a.26.26,0,0,1,.25-.08c-.65.19-1.32-.21-2-.1a.45.45,0,0,1-.45-.14c.06.08-.08-.11,0-.07s0-.07,0-.07a7.63,7.63,0,0,1-1.24-.27,1.84,1.84,0,0,0-.9-.17,1.1,1.1,0,0,1-.83-.39,2.13,2.13,0,0,0-1.23-.57c-.39.07-.57-.29-.85-.43s-.31-.2-.48-.29a8.85,8.85,0,0,1-1.8-1.71,3.17,3.17,0,0,1-.29-.35l-.17-.21a.65.65,0,0,0-.68-.28,2.4,2.4,0,0,0-.08,1.52,1.21,1.21,0,0,1-.38,1c-.34.06-.46.34-.58.6a1,1,0,0,1-.63.57,2.89,2.89,0,0,0-1.14.44c-.17.09-.36.12-.51.21s-.45-.15-.34.24c-.39.32-.88.27-1.32.42s-1,.16-1.5.2a4.53,4.53,0,0,0-1.47.1c-1.85.07-3.7.06-5.55,0-1.24,0-2.49.1-3.74,0a9.16,9.16,0,0,0-2.28-.09c-1.47-.1-2.93-.29-4.39-.47-.53-.19-1.13-.08-1.62-.42-.07-.1,0-.16,0-.24-.68.15-1.3-.28-2-.23a.35.35,0,0,1-.33-.14,20.83,20.83,0,0,0-2.88-1,1.43,1.43,0,0,1-.63-.21.9.9,0,0,1-.42-.33.43.43,0,0,0-.47-.28l-.18,0a3.62,3.62,0,0,1-1.36-1,6.84,6.84,0,0,0-1.59-1.63,1.64,1.64,0,0,1-.51-.57c-.13-.26-.34-.46-.46-.72a.87.87,0,0,1-.14-.7A11,11,0,0,1,68.81,91Z"/><path class="cls-32" d="M183.3,103.8,183,104a5.34,5.34,0,0,1-2.54.32c-3.79,0-7.59,0-11.39,0-2.13,0-4.26,0-6.39,0q-3.8,0-7.58,0c-3,0-5.9,0-8.85,0a4.39,4.39,0,0,0-.89,0,.52.52,0,0,1-.55,0l-2-.34a3.83,3.83,0,0,1-2.72-1.73,1.19,1.19,0,0,1-.16-.48,4.92,4.92,0,0,1-.39-2.22c0-3.48,0-7,0-10.45,0,2.93,0,5.87,0,8.8a8.22,8.22,0,0,1-.09,2.27c-.37-.13-.32-.46-.32-.75,0-2.93,0-5.86,0-8.8,0-1.45-.08-2.91,0-4.36,0-.76,0-1.52,0-2.28a6,6,0,0,1,.25-2.63.21.21,0,0,0,.12,0c.24.08.07-.12.12-.17,0-.21.1-.32.33-.28a27.29,27.29,0,0,1,3.26-.07c1.92,0,3.83,0,5.74,0a1.45,1.45,0,0,1,1,1.51c0,1.2,0,2.4,0,3.6,0,.28-.07.6.22.81s.36.35.68.12a.5.5,0,0,1,.7.15,4.88,4.88,0,0,0,2.28-.09,3.12,3.12,0,0,1,2.13,0,4.05,4.05,0,0,0,2.34,0,4.88,4.88,0,0,1,2-.14.9.9,0,0,1,.21.08c.15,0,.05.26.08.25.67-.15,1.38.13,2-.18a.57.57,0,0,1,.19-.1c.28,0,.58-.12.78.19.28-.06-.41.19.06.15,1.91-.19,3.84,0,5.76,0,.49,0,.78.39,1.18.58a.48.48,0,0,1,.19.23,1.39,1.39,0,0,0,.79,1,5.38,5.38,0,0,1,1.16,1.6c0,.22.07.42.32.48a.9.9,0,0,1,.43.62c0,.2,0,.43.32.43.41.26.57.72.9,1,.36.64.87,1.2,1.17,1.88a1.32,1.32,0,0,0,.76,1.06,7.67,7.67,0,0,1,1.05,1.3c.18.32.43.58.62.88a1.29,1.29,0,0,1,.12.38c.05.25.05.54.42.55a.37.37,0,0,1,.18.08c.42.56.8,1.15,1.23,1.71.17.21.33.45.65.22.44-.49.8-1,1.2-1.56.27-.34.53-.68.77-1a10.14,10.14,0,0,0,.87-1.09c.63-.85,1.31-1.65,1.93-2.51,1.16-1.45,2.22-3,3.4-4.4.17-.2.31-.42.48-.61a1,1,0,0,1,.37-.32,1.81,1.81,0,0,0,.84-1.13,1.17,1.17,0,0,1,.05-.2,4.37,4.37,0,0,1,.84-1.07c.32-.12.6-.35,1-.29a22.77,22.77,0,0,0,2.47.17c.29,0,.48.07.52.37l-.13.3L193.76,90c-.19.09-.36.19-.34.43a.68.68,0,0,1,0,.14.82.82,0,0,1-.48.68.62.62,0,0,0-.43.57,2.38,2.38,0,0,1-.57.9c-.16.15-.27.36-.49.45s-.27.25-.29.45a9.91,9.91,0,0,1-1,1.46,4.21,4.21,0,0,0-.35.48c-.47.51-.86,1.08-1.28,1.62a3.41,3.41,0,0,1-.78.87.59.59,0,0,0-.46.61,4.64,4.64,0,0,1-.74,1.07c-.49.62-.91,1.29-1.42,1.9a2.2,2.2,0,0,1-.2.23A8,8,0,0,1,183.3,103.8Z"/><path class="cls-33" d="M161.2,180.11c-2.31.17-2.31.17-2.31-2.05,0-2.37.06-4.73,0-7.09,0-1,.31-1.33,1.22-1.49a21.83,21.83,0,0,1,4.12-.54,2.85,2.85,0,0,1,1.87.49,1.61,1.61,0,0,0,2,.16,7.51,7.51,0,0,1,3.31-.65,3.13,3.13,0,0,1,3.32,3c.26,2.57.05,5.16.11,7.74,0,.36-.14.48-.51.52-1.65.21-1.76.11-1.76-1.56,0-1.85,0-3.71,0-5.56,0-.8-.08-1.64-1.09-1.9h0a2.32,2.32,0,0,0-2,0c-.44.32-.93.54-1.34.9v.22a16.68,16.68,0,0,1,.35,4.17c0,.83,0,1.67,0,2.5,0,.43,0,.88-.41,1.17-2.29.19-2.29.19-2.29-2.05,0-1.52,0-3,0-4.56,0-2-.91-2.76-2.88-2.51a2.58,2.58,0,0,0-1.52.4,1.55,1.55,0,0,1,.28,1.24,42.63,42.63,0,0,0,0,6.19A1.35,1.35,0,0,1,161.2,180.11Z"/><path class="cls-33" d="M111.86,179.47c-.15-.11-.28-.23-.43-.33-1.34-.9-1.31-1.35.07-2.28.43-.29.58,0,.82.21a5.57,5.57,0,0,0,4.9.87,2.41,2.41,0,0,0,1.81-1.87,1.73,1.73,0,0,0-1.12-2.2c-1-.39-2.08-.7-3.11-1.07a19.37,19.37,0,0,1-1.84-.7,3.25,3.25,0,0,1-2.24-3.18,3.87,3.87,0,0,1,2.32-3.78,7.3,7.3,0,0,1,7,.61c.26.16,1,.38.4.83s-.65,1.5-1.66.86a5.12,5.12,0,0,0-4.1-.68,2.07,2.07,0,0,0-1.72,2c-.07,1.05.71,1.45,1.53,1.73,1.11.38,2.24.68,3.35,1,2.39.79,3.44,2,3.46,3.82A4.56,4.56,0,0,1,118,180a1.51,1.51,0,0,0-.28.15,1.49,1.49,0,0,1-1.49.23,14.29,14.29,0,0,1-3.94-.68A.36.36,0,0,1,111.86,179.47Z"/><path class="cls-33" d="M136.2,180.11l-2.84.23c-.14.15-.26.12-.37,0a3.73,3.73,0,0,1-2.76-1.74,3.31,3.31,0,0,1,2.88-5,27.09,27.09,0,0,1,2.85,0c.52,0,.69-.15.69-.68,0-1.35-.5-1.94-1.85-2.05a3.75,3.75,0,0,0-2.78.7c-.7.54-.94-.46-1.39-.74s-.1-.6.16-.83c1.54-1.42,5.38-1.47,7-.1a3.21,3.21,0,0,1,1.11,2.52c0,2.07,0,4.15,0,6.22,0,1.25-1.11.75-1.6,1.21C137,180.27,136.6,180.18,136.2,180.11Z"/><path class="cls-33" d="M181.05,180.33l-1.32-.21a1.81,1.81,0,0,1-1.8-1.07l-.38-.5c-.35-.35-.79-.67-.43-1.26,0-1.49,0-3,0-4.47a3.39,3.39,0,0,1,2.94-3.65,8.84,8.84,0,0,1,3.16-.16,3.28,3.28,0,0,1,0,6.53c-.83.09-1.68,0-2.52.07-.43,0-1.14-.4-1.26.39s-.12,1.73.79,2.08a3.34,3.34,0,0,0,3.53-.31c1-.88,1.21.32,1.65.65.65.47-.15.69-.38.93a5,5,0,0,1-2.51,1,.38.38,0,0,1-.6,0h-.22A.42.42,0,0,1,181.05,180.33Z"/><path class="cls-33" d="M151.1,173.44c0,2,0,3.93,0,5.89,0,1.22-.8.73-1.34.79s-1.11.15-1.09-.81c.06-3.82,0-7.64.05-11.45,0-.9-.27-1.12-1.11-1.06-1.09.07-2.19,0-3.28,0-.84,0-.79-.45-.72-1s-.37-1.22.7-1.21c3.73,0,7.46,0,11.19,0,1.08,0,.58.76.67,1.23s.06,1-.75.93c-1.16-.07-2.34,0-3.51,0-.69,0-.86.2-.84.86,0,1.93,0,3.86,0,5.78Z"/><path class="cls-33" d="M196.34,174.92a5.63,5.63,0,0,1,.5,2.32A6.63,6.63,0,0,1,196,179a.38.38,0,0,1-.22.21,7.15,7.15,0,0,1-7.65,0c-.25-.14-1-.37-.36-.82s.66-1.42,1.56-.85a4.88,4.88,0,0,0,4.08.62,1.34,1.34,0,0,0,1.15-1.49c-.08-.81-.68-1.06-1.38-1.13s-1.61-.13-2.4-.24a2.8,2.8,0,0,1-2.72-2.41,3.06,3.06,0,0,1,1.94-3.52,6.78,6.78,0,0,1,5.72.31c.46.23.7.51.26,1a1.28,1.28,0,0,1-.91.89v0c-.53.45-.67-.32-1.05-.34l-1-.27a2.63,2.63,0,0,0-1.47,0c-.31-.14-.38.23-.6.27a1.5,1.5,0,0,1-.64.63.59.59,0,0,0,0,.65,2.15,2.15,0,0,0,1.11.88.1.1,0,0,0,.17,0c.74.2,1.52-.12,2.25.21a1.42,1.42,0,0,0,1,.23,1.34,1.34,0,0,1,1.36.9Z"/><path class="cls-33" d="M123.59,172.49v-4.58a2.24,2.24,0,0,1,2-1.82c.26,0,.28.18.28.37v1c0,1.68,0,1.72,1.64,1.88.76.07.51.56.54.94s.08.81-.56.81-1.16-.24-1.48.11-.12,1.11-.13,1.68q0,2.07,0,4.14c0,1.08.46,1.42,1.52,1.35.27,0,.86-.49.79.18s.31,1.38-.64,1.65a3,3,0,0,1-3.92-2.79c-.07-1.63,0-3.27,0-4.9Z"/><path class="cls-34" d="M141.42,174.89c0-1.45,0-2.9,0-4.35a.85.85,0,0,1,.74-1A15.51,15.51,0,0,1,146,169c.5,0,.82.13.67.66s.51,1.27-.61,1.41c-2.46.31-2.45.35-2.45,2.85,0,1.82-.06,3.64,0,5.45,0,1-.58.8-1.13.79s-1.19.25-1.13-.77C141.47,177.88,141.42,176.38,141.42,174.89Z"/><path class="cls-35" d="M153.87,174.6c0-1.6,0-3.19,0-4.79,0-.94.58-.77,1.08-.73s1.24-.39,1.23.68q0,4.86,0,9.7c0,1.08-.77.61-1.24.66s-1.1.2-1.06-.72C153.92,177.8,153.87,176.2,153.87,174.6Z"/><path class="cls-36" d="M196.19,174.72l-1.36-.9"/><path class="cls-37" d="M97.1,162.2,96,161.12"/><path class="cls-36" d="M194,171.2c.42-.11.65.38,1.05.34"/><path class="cls-36" d="M193,170.93h-1.47"/><path class="cls-38" d="M195.76,179.25,196,179"/><path class="cls-1" d="M135.16,175.35c.33.1,1.18-.36,1.39.19a6.07,6.07,0,0,1,.07,2.26c0,.27-.21.34-.44.37a9.23,9.23,0,0,1-2.62.16c-.84-.11-1.47-.51-1.46-1.45a1.47,1.47,0,0,1,1.53-1.52A15,15,0,0,1,135.16,175.35Z"/><path class="cls-1" d="M181,173.9a1.14,1.14,0,0,1-.32,0c-.44-.13-1.18.35-1.29-.37s-.27-1.8.74-2.3a3.94,3.94,0,0,1,2.78-.23,1.27,1.27,0,0,1,1,1.39,1.31,1.31,0,0,1-1,1.36,14.18,14.18,0,0,1-1.84.2Z"/><path class="cls-39" d="M95.26,184c-.38.16-.53.65-1,.7-1.52,1-1.58,1.06-3-.12-1-.82-2.3-1.12-3.12-2.16-.25-.31-.63-.52-.35-1a1.51,1.51,0,0,1,2,.27,8,8,0,0,0,2.44,1.42c.4.18,1,.34.59,1.06a1.68,1.68,0,0,1,1.06-.61c.36-.07.56-.4.88-.55a1,1,0,0,1,.79,0,.47.47,0,0,1,.16.29A.65.65,0,0,1,95.26,184Z"/><path class="cls-40" d="M87.87,181.45a2.42,2.42,0,0,0,1.5,1.65,8.94,8.94,0,0,1,2.45,1.6,1.42,1.42,0,0,0,2,.19,2.74,2.74,0,0,1,.51-.15,4.46,4.46,0,0,1-1.11,1.1c-.72.34-1.33-.06-1.93-.34a16,16,0,0,1-3.07-1.79,7.32,7.32,0,0,1-1.23-2.9,2.12,2.12,0,0,1,.59-1.55.32.32,0,0,1,.44.11,1,1,0,0,1,.11.47c0,.1,0,.2,0,.3a4.14,4.14,0,0,0-.14,1.16A.77.77,0,0,0,87.87,181.45Z"/><path class="cls-41" d="M88.31,183.63c1.4.62,2.6,1.66,4.13,2.05l.73.16c-.23.27-.26.72-.7.81-.64.17-1.27.56-1.94.09-.14-.17-.2-.42-.48-.43a1,1,0,0,1-.86-.49,4.4,4.4,0,0,0-.64-.85C88.32,184.55,88,184.15,88.31,183.63Z"/><path class="cls-42" d="M89.4,185.6c.08.58.54.4.88.44.11.13.11.31.22.44.61.56,1.33-.06,2,.17-.55.45-.92,1.16-1.75,1.22l-.84-.23c.16-.5-.43-.48-.56-.78a2.27,2.27,0,0,1-.47-.6.66.66,0,0,1,0-.46C89,185.63,89.16,185.51,89.4,185.6Z"/><path class="cls-43" d="M98.41,181c-.37,0-.52.39-.82.5l-.13-.08a.76.76,0,0,1,0-.3,3.6,3.6,0,0,1,.32-.69,1.11,1.11,0,0,1,.17-.27.59.59,0,0,1,.76-.06.19.19,0,0,1,0,.29.34.34,0,0,0,0,.2Z"/><path class="cls-44" d="M82.78,187.59l-.37,0c-.35-.23-.78-.39-.76-.92a35.59,35.59,0,0,0,3.28-5.46c.27-.46.51-1,1.12-1.11a.87.87,0,0,1,.61.52c.22.53-.19.92-.29,1.38-1,1.39-1.92,2.86-2.82,4.33a7.12,7.12,0,0,0-.48,1.31A.24.24,0,0,1,82.78,187.59Z"/><path class="cls-45" d="M82.78,187.59l.24-.05a.67.67,0,0,1,.31-.19,5.94,5.94,0,0,1,1.26-.09c.46,0,.92,0,1.38,0s1,0,1.51,0c1,0,1-.1.66-1-.23-.53-.44-1.06-.66-1.59a19.48,19.48,0,0,0-.69-2c-.13-.49-.41-1-.1-1.48a.28.28,0,0,1,.3-.09c.72,1.29,1,2.76,1.67,4.07.16.37,0,.82.32,1.15a3.21,3.21,0,0,0,.56.66c.12.16.23.32.12.54s-.59.24-.91.24h-5A1.16,1.16,0,0,1,82.78,187.59Z"/><path class="cls-46" d="M89.66,187.6l-.27-.47a.29.29,0,0,1,0-.42,6.18,6.18,0,0,1,.74.59c.41.46-.25.16-.26.34Z"/><path class="cls-47" d="M97.11,162.78V163c.16.34-.05.58-.27.76-1.5,1.22-1.87,3.17-3,4.6a11.51,11.51,0,0,0-1.29,2.81.94.94,0,0,1-1-.31,2,2,0,0,1,.09-1.78,49.47,49.47,0,0,1,3.62-6.06,2.34,2.34,0,0,1,.8-.73c.38-.12.61.16.87.33Z"/><path class="cls-48" d="M90.93,157.17l.45.24c.28.2.6.37.61.78s-.45.41-.33.77c-.15.28-.46.27-.72.38a20.08,20.08,0,0,0-2.54,3.59c-.21.4-.37.88-1,.86a.87.87,0,0,1-.36-.52.73.73,0,0,1,.06-.48,39.46,39.46,0,0,0,2.74-4.93c.14-.25.16-.56.42-.74A.76.76,0,0,1,90.93,157.17Z"/><path class="cls-49" d="M90.93,157.17l-.65,0a1.49,1.49,0,0,1-1.08.29c-.37,0-.74,0-1.11,0-.69,0-1.39,0-2.09,0-.38,0-.79-.1-.87.46a.3.3,0,0,1-.23.18c-.46-.15-.88-.34-.76-1A22.09,22.09,0,0,1,90.93,157.17Z"/><path class="cls-50" d="M84.14,157.17l.84.91a3.28,3.28,0,0,1,1,2.74c-.2.25-.38.1-.57,0a.9.9,0,0,1-.17-.26c-.08-.4-.39-.71-.48-1.11,0-1-1.15-1.24-1.37-2.09.09-.27.27-.29.5-.17Z"/><path class="cls-51" d="M93.11,158.93a8.52,8.52,0,0,1,2,2,.37.37,0,0,1-.27.11,1.11,1.11,0,0,1-.52-.28c-.32-.3-.64-.62-1-.94-.11-.1-.2-.21-.3-.32a.62.62,0,0,1-.15-.54A.14.14,0,0,1,93.11,158.93Z"/><path class="cls-52" d="M93.11,158.93h-.2c-.59.16-.82-.29-1.09-.66,0-.38-.31-.57-.44-.87A4.25,4.25,0,0,1,93.11,158.93Z"/><path class="cls-53" d="M83.9,157.16l-.43.25c-.84.47-.92.47-1.33,0a2,2,0,0,1,1.74-.37A.78.78,0,0,0,83.9,157.16Z"/><path class="cls-54" d="M96.85,162.65l-.85-.23a.51.51,0,0,1-.39-.46.5.5,0,0,1,.18-.43A2.55,2.55,0,0,1,96.85,162.65Z"/><path class="cls-55" d="M95.79,161.53V162c-.56,0-.81-.36-1-.8a.34.34,0,0,1,.12-.27l.17,0Z"/><path class="cls-56" d="M75.2,164.22l.31-.14c.44,0,.92-.18,1.29.23,2.36,1.11,4.64,2.37,6.88,3.71a1.83,1.83,0,0,1,1,1.23,1.31,1.31,0,0,1-1.16,1.06c-.71.2-.6-.52-.82-.8a5.65,5.65,0,0,0-2.19-1.59c-1-.49-2-1.1-3-1.65a4.32,4.32,0,0,0-2.68-.69c-.26,0-.55,0-.44-.39Z"/><path class="cls-57" d="M74.42,165.19c.48.52,1-.05,1.68.18,2.2.78,4,2.27,6.11,3.13.51.21.36,1.2,1.21,1,0,.16-.06.24-.15.35-.42.54.24.13.26.29,0,.87-.64.89-1.25,1a.41.41,0,0,1-.23-.2c-.1-.29.14-.56.07-.85a6,6,0,0,0-2.62-1.74A7.39,7.39,0,0,1,77,166.64a1.86,1.86,0,0,0-1.63-.47,4.3,4.3,0,0,0-1.24,0c-.21,0-.44,0-.33-.34Z"/><path class="cls-58" d="M71.85,167.89a1.92,1.92,0,0,1,.79-.9l.46-.17c1-.43,1.63.28,2.43.7,1.63.83,3.2,1.74,4.73,2.72a1.81,1.81,0,0,1,.59.48.3.3,0,0,1,0,.29,2.08,2.08,0,0,1-1.13.42A58.27,58.27,0,0,0,73.77,168a1.16,1.16,0,0,0-.86,0C72.56,168,72.19,168.21,71.85,167.89Z"/><path class="cls-59" d="M71.81,168.28a.21.21,0,0,1,0-.17c.46,0,1-.35,1.33.24l.14.25a21.27,21.27,0,0,0,3.13,1.66,2.68,2.68,0,0,1,1.64,1.6.55.55,0,0,1-.13.29,1.29,1.29,0,0,1-1.24.21c-.36-.07.19-.34-.07-.4a9.85,9.85,0,0,1-3-1.47,19.52,19.52,0,0,0-1.89-1.07.74.74,0,0,1-.12-.31A1.5,1.5,0,0,1,71.81,168.28Z"/><path class="cls-60" d="M73.76,165.85c.51.33,1.08-.35,1.58.08.87,0,1.19.85,1.87,1.13.87.36,1.59,1,2.46,1.34a1.57,1.57,0,0,1,1.17,1.5,1.19,1.19,0,0,1-1.25-.12c-1.29-.95-2.84-1.46-4.13-2.34a2.84,2.84,0,0,0-2.17-.68.73.73,0,0,1,0-.48Z"/><path class="cls-61" d="M71.61,176.64c-.35-.38-.12-.85-.19-1.27l.19-.49c0-.58.54-.58.85-.83.85-.46,1.8-.68,2.67-1.08s2-.55,3-.83a.8.8,0,0,1,.58.29.37.37,0,0,1,0,.31,1.65,1.65,0,0,1-.73.35,5.22,5.22,0,0,0-1.48.43c-.73.26-1.45.56-2.16.86a2.54,2.54,0,0,1-.45.13C72.59,174.68,72.16,175.73,71.61,176.64Z"/><path class="cls-62" d="M72.53,174.23l-.92.65a6.7,6.7,0,0,1-.12-2.82.24.24,0,0,1,.25.13,11.59,11.59,0,0,1,.25,1.17c.17-.05-.2.6.26.19a.5.5,0,0,1,.6,0C73.14,173.93,72.69,174,72.53,174.23Z"/><path class="cls-63" d="M71.58,172.05h-.09a11.74,11.74,0,0,1,0-2.65c.06-.17.16-.28.36-.2v.22a2.22,2.22,0,0,1,.22,1.83A1.25,1.25,0,0,1,71.58,172.05Z"/><path class="cls-64" d="M73.14,168.55c-.3-.51-.86-.29-1.29-.44v-.22l1.07-.21C73.29,167.89,73.72,168.1,73.14,168.55Z"/><path class="cls-65" d="M71.82,169.21l-.36.2c0-.42-.15-.86.35-1.13Z"/><path class="cls-66" d="M73.33,166.28l0,.52c0,.14-.15.14-.22.22l-.5,0Z"/><path class="cls-67" d="M77.36,182.54a.68.68,0,0,1-.45-.45c1.15-1.36,1.81-3,2.84-4.49a34,34,0,0,0,2.08-3.35c.32-.25.57-.14.79.15a.52.52,0,0,1,0,.28,1.67,1.67,0,0,0-.28.75,1.48,1.48,0,0,1-.12.41c-.2.33-.43.66-.64,1-1,1.56-1.73,3.23-2.58,4.85A1.44,1.44,0,0,1,77.36,182.54Z"/><path class="cls-68" d="M77.36,182.54a2.38,2.38,0,0,0,1.53-1.15c.87-1.58,1.42-3.34,2.6-4.75a.57.57,0,0,1,.63-.09c.39.49-.06.79-.26,1.15-.83,1.55-1.82,3-2.52,4.64-.21.48-.51,1-1.2.89l-.35-.09Z"/><path class="cls-69" d="M80,177.73c-1.09,1.41-1.39,3.35-3,4.36l-.25-.2a.48.48,0,0,1-.1-.47c1.16-1.11,1.61-2.68,2.56-3.93.24-.31.34-.84.94-.56A.75.75,0,0,1,80,177.73Z"/><path class="cls-70" d="M76.65,181.45v.44l-.64-.45-1.57-1.73a.41.41,0,0,1,.24-.13.83.83,0,0,1,.5.21c.11.09.21.19.3.28l.39.38.31.3A1.33,1.33,0,0,1,76.65,181.45Z"/><path class="cls-71" d="M78.66,160.9l1.56-1.52c.89-.38,1.49.33,2.18.63a12.45,12.45,0,0,1,3.29,1.86,1.35,1.35,0,0,1,.56,1.61c-.27.42-.58.27-.94.1a11.44,11.44,0,0,1-2.83-1.66A3.08,3.08,0,0,0,80,161c-.2,0-.33-.39-.62-.08S78.88,161.34,78.66,160.9Z"/><path class="cls-72" d="M78.66,160.9a.45.45,0,0,0,.66-.12c.27-.32.48-.22.64.12,1.72,1.2,3.55,2.24,5.38,3.28a1.39,1.39,0,0,1,.8,1.32c0,.27,0,.55-.36.67A30,30,0,0,0,80,162.81a6.46,6.46,0,0,0-1.57-.27c-.42-.08-.55-.4-.61-.76C77.93,161.33,78.4,161.22,78.66,160.9Z"/><path class="cls-73" d="M86.11,163.52a1.42,1.42,0,0,0-.73-1.55,13.75,13.75,0,0,0-3.4-1.72,15.75,15.75,0,0,1-1.76-.87l.41-.66.41-.25a2.91,2.91,0,0,1,2,.82c.69.64,1.7.81,2.46,1.38l.5.22c.76.27.67,1,.91,1.58a8.23,8.23,0,0,1,.26,1.14,1.34,1.34,0,0,1-.14.47c-.13.23-.23.5-.53.59C86,164.4,86,164,86.11,163.52Z"/><path class="cls-74" d="M77.82,161.78l.6.65c1.54,1.39,3.48,2.18,5.15,3.36a1.93,1.93,0,0,0,1.36.19.7.7,0,0,1,.29.09.57.57,0,0,1,.15.26c-.05.49.16,1,0,1.46a.29.29,0,0,1-.22.16,4.78,4.78,0,0,0-1.18-.63.78.78,0,0,1-.24-.16c-.45-.73-1.31-.88-2-1.3a11.75,11.75,0,0,0-3.27-1.67,1,1,0,0,1-.29-.1c-.45-.45-1.12-.64-1.46-1.21Z"/><path class="cls-75" d="M76.73,162.88c.57.25,1.18.45,1.47,1.08a1.43,1.43,0,0,1-1.54.44c-.3-.41-.89.22-1.15-.32Z"/><path class="cls-76" d="M102.16,176.88l-.62.43c-.25.07-.44.35-.75.21-.2-.47.18-.7.4-1s.55-.61,1-.31a.54.54,0,0,1,0,.48A1.21,1.21,0,0,1,102.16,176.88Z"/><path class="cls-77" d="M102.17,176.69l0-.49a1.12,1.12,0,0,1-.19-.29,3.47,3.47,0,0,1-.1-1,2.61,2.61,0,0,1,.17-1.17.29.29,0,0,1,.3-.13c0,.87,0,1.75.07,2.62Z"/><path class="cls-78" d="M74.68,179.67l-.23,0c-1-1-2.21-1.75-2.84-3.07.12-1.32.72-2,2.2-2.37.25.52-.2.7-.47.95-1,.92-1,1.27-.14,2.31a3.17,3.17,0,0,1,.28.34,3.77,3.77,0,0,0,.6.78c.16.17.32.33.48.51S74.78,179.47,74.68,179.67Z"/><path class="cls-79" d="M85.46,160.67c-.88.16-1.45-.54-2.12-.86s-1.46-1-2.3-1.34a1.5,1.5,0,0,1,.66-.66,3.24,3.24,0,0,1,3.17,1.42c-.06.53.34.84.58,1.23A.74.74,0,0,1,85.46,160.67Z"/><path class="cls-80" d="M84.79,159.37a3.46,3.46,0,0,0-2.3-1.3c-.28-.07-.6,0-.79-.26l.44-.44c.43.41.89-.15,1.33,0,.63.55,1.48,1,1.53,2Q84.9,159.52,84.79,159.37Z"/><path class="cls-81" d="M100.83,177.51l.71-.2a2,2,0,0,1-1.1,1.1,2,2,0,0,1-1.6-.5,8.19,8.19,0,0,0-2.13-1,1.15,1.15,0,0,1-.29-.11c-1-.5-1.63-1.5-2.8-1.67a.76.76,0,0,1-.76-.78c0-.42.29-.53.61-.64,1.14-.39,2,.33,2.76.9A16.23,16.23,0,0,0,98.66,176,11.33,11.33,0,0,1,100.83,177.51Z"/><path class="cls-82" d="M96.66,176.64c1.45.17,2.45,1.33,3.78,1.77l-.23.22a.65.65,0,0,1-.29.11,8.58,8.58,0,0,1-2.87-1.26C96.77,177.32,96.36,177.12,96.66,176.64Z"/><path class="cls-83" d="M98.64,180.38v-.25a.28.28,0,0,1-.08-.26.67.67,0,0,1,.77-.53.46.46,0,0,1,.22.17A2.1,2.1,0,0,1,98.64,180.38Z"/><path class="cls-84" d="M100,178.61l.26,0c0,.44-.36.66-.67.88l0,0c-.2-.24-.08-.44.08-.64A1,1,0,0,1,100,178.61Z"/><path class="cls-85" d="M99.32,165l.43.24c.31.26.69.47.81.91a.78.78,0,0,1-.07.45c-.28.32-.28,1-1,.84-.19,0-.26.12-.26.27A3.54,3.54,0,0,1,98.16,170a.65.65,0,0,0,0,1c-.07.59-.74.52-1,.9a1.92,1.92,0,0,1-1.87.33c-.39-.12,0-.54-.27-.71,1.43-2.11,2.57-4.38,4-6.49A.23.23,0,0,1,99.32,165Z"/><path class="cls-86" d="M92.48,171.1c0-1.56,1.12-2.65,1.79-3.93A16.24,16.24,0,0,1,97.12,163a1.46,1.46,0,0,1,1,.92.65.65,0,0,1-.39.21c-.9.39-1,1.35-1.5,2.05-.78,1.14-1.31,2.42-2.17,3.51a2,2,0,0,0-.3,1.13c.09.22.29.39.3.64a.33.33,0,0,1-.17.24,1.57,1.57,0,0,1-1.23-.21A.48.48,0,0,1,92.48,171.1Z"/><path class="cls-87" d="M97.76,164h.4A3.25,3.25,0,0,1,99.32,165l-.24,0c-.32.49-.7.26-1.08.1s-.2-.63-.33-.94A.31.31,0,0,1,97.76,164Z"/><path class="cls-88" d="M100.4,166.1l1.46,1.19.1.3c.18.55.64,1.1,0,1.63-.45,0-.34-.38-.39-.63a2.51,2.51,0,0,0-.77-1.39,1.18,1.18,0,0,1-.38-.62Z"/><path class="cls-89" d="M101.72,169.21c.82-.43.19-1.07.24-1.62.62.5.47,1.17.39,1.82l-.88.87-.12.1a.44.44,0,0,1-.3,0,.47.47,0,0,1-.12-.28c.07-.38.4-.57.65-.81Z"/><path class="cls-90" d="M87.87,180.14v-.22c.32-.15.59-.49,1-.25,1.4,1.1,2.92,2,4.39,3,.43.29.92.49.75,1.14-.17.05-.4.19-.51.13s-.88,1-.79-.25c0-.14-.52-.35-.82-.46a7.33,7.33,0,0,1-2.76-1.73c-.22-.23-.84-.07-1.27-.09h0A1.75,1.75,0,0,1,87.87,180.14Z"/><path class="cls-91" d="M88.75,179.7c-.33-.07-.5.51-.88.22v-.44c.12-.49-.07-1.11.6-1.36.1.8.85.33,1.21.6.9.68,1.91,1.18,2.86,1.78a13.42,13.42,0,0,0,2.35,1.36,1.51,1.51,0,0,0,1.89-.34c.23-.15.46-.29.74-.08l.07.05-1.27,1.29c-.31,0-.49.31-.77.42h-.87a7,7,0,0,1-2.13-1.29,9,9,0,0,0-2.78-1.47A7.44,7.44,0,0,1,88.75,179.7Z"/><path class="cls-92" d="M88.75,179.7a30.55,30.55,0,0,1,5.48,2.9c.2.12.3.4.45.6-.16.28-.23.65-.66.65-.19-.56-.68-.71-1.14-1a28.62,28.62,0,0,0-3.68-2.44C89,180.32,88.9,179.94,88.75,179.7Z"/><path class="cls-93" d="M95.55,183.2a.71.71,0,0,1,.77-.42l-.75.66Z"/><path class="cls-94" d="M88.47,185.42l-1.54-4.21a.4.4,0,0,1,0-.41.27.27,0,0,1,.27-.07,13.09,13.09,0,0,0,1.12,2.9l.44,1.31a.36.36,0,0,1,0,.47A.25.25,0,0,1,88.47,185.42Z"/><path class="cls-39" d="M87.69,179.27l.4-1.53c.1-.12.14-.31.36-.27a.42.42,0,0,1,.07.7c-.21.44-.43.87-.65,1.31Z"/><path class="cls-39" d="M87.87,180.14v1.31A1,1,0,0,1,87.87,180.14Z"/><path class="cls-95" d="M88.74,185.39v-.45a1.43,1.43,0,0,1,.65.66l-.45.22C88.57,185.83,88.61,185.63,88.74,185.39Z"/><path class="cls-95" d="M90.5,186.48l-.36,0,.14-.47C90.57,186.08,90.83,186.13,90.5,186.48Z"/><path class="cls-96" d="M88.74,185.39l.21.43,0,.41a.19.19,0,0,1,0,.3,1.74,1.74,0,0,1-.49-1.11Z"/><path class="cls-97" d="M89,186.53l0-.3.42.48c0,.14,0,.28,0,.42C89.16,187,88.93,186.85,89,186.53Z"/><path class="cls-98" d="M98,180.57l-.44.66a2.29,2.29,0,0,1-2.23-.34,22.7,22.7,0,0,0-3.24-1.8,12.78,12.78,0,0,1-3.21-2c-.25-.65.24-1.17.34-1.76.12-.26.27-.5.62-.45.29.21.31.55.41.85a1.36,1.36,0,0,1,0,.45c0,.13-.1.29.07.37,2,.89,3.69,2.16,5.66,3A4.22,4.22,0,0,0,98,180.57Z"/><path class="cls-99" d="M90.06,176.2v-.43c-.06-.5.07-.87.63-1,.42.26,1,.31,1.19.89-.11.24-.34.19-.53.24.27.26.52.08.78,0,1.72.85,3.22,2.09,5,2.81.53.34,1.3.4,1.48,1.18v.21c-.24,0-.5,0-.65.23-.82.13-1.24-.73-2-.76a8.64,8.64,0,0,1-2.63-1.44C92.29,177.45,91,177.14,90.06,176.2Z"/><path class="cls-100" d="M89,177.08c2.25,1.4,4.77,2.33,6.92,3.9.48.35,1.11.1,1.65.25a1.48,1.48,0,0,1,0,.21l-.64.23c-1,.59-1.71.37-2.84-.91a5.94,5.94,0,0,0-2.49-1.49,1.19,1.19,0,0,1-.25-.13,2.55,2.55,0,0,0-1-.58l-.26-.14c-.42-.4-1.16-.36-1.44-1C88.63,177.22,88.65,177,89,177.08Z"/><path class="cls-101" d="M96,179.48c.91-.28,1.28.67,2,.88a1.48,1.48,0,0,1,0,.21c-1,.38-1.48-.21-2-.87-.08,0-.1-.1-.08-.15S96,179.48,96,179.48Z"/><path class="cls-102" d="M81.71,186.7l-.44-.22-.26-.42c1.18-2.22,2.71-4.25,3.73-6.56.19-.43.46-.84,1.06-.75a1.08,1.08,0,0,1,.31,1.39c-1.28,1.28-1.86,3-2.71,4.5A7,7,0,0,1,81.71,186.7Z"/><path class="cls-103" d="M86.81,181.2c-.17.55.21,1,.18,1.56a2,2,0,0,1-.28,2.05,7.6,7.6,0,0,0-1.37,2.2c-.11.36-.48.41-.76.55H83.26c.08-.73.73-1.11,1.09-1.67.71-1.11,1.09-2.39,1.78-3.51a.35.35,0,0,0,0-.48c0-.49.58-.78.42-1.31l.15-.05C87,180.71,86.88,181,86.81,181.2Z"/><path class="cls-104" d="M86.11,181.89c.29.54,0,.91-.2,1.43a23.75,23.75,0,0,1-1.1,2.2,6.73,6.73,0,0,1-1.55,2H83a1,1,0,0,1,.13-1.2c1.08-1.31,1.56-3,2.86-4.15C86.08,182.13,86.08,182,86.11,181.89Z"/><path class="cls-105" d="M86.11,180.14c-.15-.44-.12-.94-.44-1.31a.49.49,0,0,1,0-.67,2,2,0,0,1,.94,2.4l0,0Z"/><path class="cls-106" d="M84.58,187.56a.47.47,0,0,0,.06-.09c.64-1.64,2.4-2.73,2.35-4.71a3.47,3.47,0,0,1,.66,2,.54.54,0,0,1,0,.69,13.32,13.32,0,0,1-1.51,2.14Z"/><path class="cls-107" d="M86.11,187.56c.2-1.11,1.22-1.78,1.54-2.83A14.27,14.27,0,0,1,88.74,187c.26.44-.06.6-.44.61C87.57,187.58,86.84,187.56,86.11,187.56Z"/><path class="cls-108" d="M84.16,175.26c.61.12.72.64.88,1.11a6,6,0,0,1-1.14,2.51,58.68,58.68,0,0,0-3.14,5.19c-.24.4-.46.85-1.08.69a2.89,2.89,0,0,1-.86-.88,14.35,14.35,0,0,1,1.46-2.32,29.87,29.87,0,0,1,2.38-3.7C83.17,177,84,176.32,84.16,175.26Z"/><path class="cls-109" d="M79.68,184.76a1.84,1.84,0,0,0,.77-.7c1.1-1.76,1.87-3.71,3.24-5.32.56-.66.66-1.71,1.35-2.37a.92.92,0,0,1,.21.87,2.29,2.29,0,0,1-.51,2.12c-1.22,1.95-2.32,4-3.6,5.89-.13.2-.22.48-.56.38Z"/><path class="cls-110" d="M80.39,181.67a5.85,5.85,0,0,1-1.57,2.21,1.7,1.7,0,0,1-.68-.65c1.21-.39,1-1.7,1.66-2.51a32.76,32.76,0,0,0,2.35-4.08.43.43,0,0,1-.1-.44c.37-.51.58-1.16,1.23-1.44a.67.67,0,0,1,.61.13.34.34,0,0,1,.07.19,9.5,9.5,0,0,1-2,3.76A10.39,10.39,0,0,0,80.39,181.67Z"/><path class="cls-111" d="M80.58,185.63c1.43-2.4,2.85-4.8,4.32-7.17a2.27,2.27,0,0,0,.35-1.22c.37.21.09.71.42.95v.64c-1,.64-1,1.91-1.71,2.81a35.33,35.33,0,0,0-2.32,3.89c-.16.31-.4.38-.63.53Z"/><path class="cls-112" d="M94.9,161.12l.88.87.22.43c-1.77,2-2.81,4.52-4.22,6.78a4.21,4.21,0,0,0-.2,1.59A.8.8,0,0,1,91,171a1.06,1.06,0,0,1-.74-.35A.91.91,0,0,1,90,170c1.36-1.6,2.07-3.59,3.26-5.3.55-.78.63-1.86,1.41-2.54,0-.07.36-.06.06-.25a.82.82,0,0,1-.2-.17C94.35,161.37,94.35,161.08,94.9,161.12Z"/><path class="cls-113" d="M91.82,158.28l1.09.66.23.43c.13.65-.52.89-.74,1.37-1.06,2.33-2.65,4.38-3.63,6.76a.59.59,0,0,1-.32.06c-.47-.23-.5-.68-.57-1.11-.16-1.07.68-1.82.91-2.77a11.73,11.73,0,0,0,2-3.09.91.91,0,0,1,.13-.26c.4-.38.43-1,.72-1.4C91.36,158.61,91.69,158.47,91.82,158.28Z"/><path class="cls-114" d="M89,163.74c-.14.93-1,1.64-.89,2.64a.24.24,0,0,1-.31,0,4.25,4.25,0,0,1-.61-2,.83.83,0,0,1,.27-.63,1.6,1.6,0,0,0,.68-.79,18.46,18.46,0,0,1,2.83-4,1.12,1.12,0,0,1,0,1.53h0A30.3,30.3,0,0,1,89,163.74Z"/><path class="cls-115" d="M89.19,157.19h1.09a2.52,2.52,0,0,1-.39,1.34,23.6,23.6,0,0,0-1.65,3.15,1.71,1.71,0,0,1-1,1.19.73.73,0,0,1-.44-.69,1.5,1.5,0,0,1,.09-1,.34.34,0,0,1,.26-.15c.16-.13.17.5.34.09a12.34,12.34,0,0,0,.59-1.61,1.24,1.24,0,0,1,.3-.52c.36-.46,1.23-.67.78-1.55A.23.23,0,0,1,89.19,157.19Z"/><path class="cls-49" d="M87,162.22l.23.65,0,.44a.39.39,0,0,1,0,.49.41.41,0,0,1-.34,0,7.63,7.63,0,0,0-.9-2.88,15.6,15.6,0,0,0-1-2.81l.08-.07a.4.4,0,0,1,.3,0c.71.74.76,1.78,1.2,2.64.07.19.14.37.19.56S86.8,161.92,87,162.22Z"/><path class="cls-116" d="M90.94,160.46c.19-.51,0-1,0-1.53a.57.57,0,0,0,.66,0C91.64,159.55,91.64,160.15,90.94,160.46Z"/><path class="cls-115" d="M87.18,163.8c0-.16,0-.33,0-.49a.48.48,0,0,1,.2.43l0,.7C87,164.35,87,164.1,87.18,163.8Z"/><path class="cls-117" d="M86.35,160.9l-1.12-2.85c-.31-.52.23-.61.44-.86h2.42c.33.11.58.24.41.69-.36,1-1.24,1.72-1.43,2.82A.45.45,0,0,1,86.35,160.9Z"/><path class="cls-118" d="M86.35,160.9c.45-.21,1-.36.5-1-.13-.19,0-.3.24-.44a2,2,0,0,0,1-2.23h1.1v.21c.49.85-.46,1.16-.66,1.75a.44.44,0,0,0-.22.44c-.46.45-.64,1.09-1.1,1.53H87c-.12.12-.19.33-.42.21Z"/><path class="cls-119" d="M85.67,157.19l-.44.86a.47.47,0,0,1-.17,0C84.67,157.3,85,157.1,85.67,157.19Z"/><path class="cls-120" d="M84.79,159.37H85c0,.41.59.61.45,1.09A1,1,0,0,1,84.79,159.37Z"/><path class="cls-121" d="M94.9,161.12c-.36.12-.39.35-.22.65-1,2.14-2.34,4.12-3.55,6.16a7.48,7.48,0,0,1-1.23,2,.47.47,0,0,1-.31,0A1,1,0,0,1,89,169a2,2,0,0,1,.29-.88c.25-.19.59-.29.65-.67a.83.83,0,0,1,.19-.23c.75-.76.81-1.89,1.44-2.71a2.79,2.79,0,0,0,.91-2c.18-.58.72-.94,1-1.51.18-.41.61-.42,1-.36l.44.24Z"/><path class="cls-122" d="M94.46,160.68c-1,.32-1.14,1.34-1.76,2-.84,1.62-1.79,3.19-2.64,4.81-.31.21-.55.82-1,.21a1.34,1.34,0,0,1,.32-1.32c.87-1.09,1.34-2.4,2.13-3.53a5.07,5.07,0,0,0,1-1.95,2.18,2.18,0,0,1,.94-1.28A3.37,3.37,0,0,1,94.46,160.68Z"/><path class="cls-123" d="M93.36,159.59c-.81,1.34-1.28,2.84-2.16,4.18-.62.95-1.26,2-1.84,3a1.93,1.93,0,0,0-.18.94c-.07.13-.14.27-.33.27s-.28-.28-.11-.49c-.34-.72.23-1.32.52-1.73,1.46-2,2.2-4.48,3.88-6.36Z"/><path class="cls-124" d="M84.6,169.06a.11.11,0,0,1,0,.14c-.77-1.1-2.08-1.45-3.13-2.15a25.17,25.17,0,0,0-4.66-2.36c-.07,0-.08-.19-.11-.29L78.2,164h.22a1.72,1.72,0,0,0,1.4,1.08,3.59,3.59,0,0,1,2.51,1.59.74.74,0,0,0,.93.38.5.5,0,0,1,.65.23h0C84.32,167.78,84.9,168.26,84.6,169.06Z"/><path class="cls-125" d="M80.83,169.86a4.35,4.35,0,0,0-2-1.63,13.09,13.09,0,0,1-3.53-2.3c1.11-.63,1.59.36,2.21.89,1.14,1,2.65,1.31,3.84,2.21a5.73,5.73,0,0,1,1.2,1.05,1.51,1.51,0,0,1-1,.26A.78.78,0,0,1,80.83,169.86Z"/><path class="cls-126" d="M81.49,170.08h1.1l-.45.66a.64.64,0,0,1-.7,0A.54.54,0,0,1,81.49,170.08Z"/><path class="cls-127" d="M81.49,170.74h.65a.76.76,0,0,1,0,.15l-.83.3c-.23.08-.5.21-.48-.23h0C81,170.77,81.2,170.58,81.49,170.74Z"/><path class="cls-128" d="M81.49,170.74l-.65.22a43.19,43.19,0,0,0-5.48-3.18c-.73-.32-1.25-1.11-2.22-.76l.22-.22a1.31,1.31,0,0,1,2,.27,3.37,3.37,0,0,0,1.78,1c1.37.39,2.23,1.72,3.71,1.84l.66.22Z"/><path class="cls-129" d="M73.14,168.55c.28-.38-.1-.59-.22-.87a.8.8,0,0,1,.92,0,31,31,0,0,1,4.25,2.47c.53.44,1.52.26,1.64,1.23-.08.18-.33.1-.42.27h0a.4.4,0,0,1-.32,0,62.6,62.6,0,0,0-5.89-3.13Z"/><path class="cls-130" d="M79.31,171.66c.06-.22.23-.26.42-.27a1.11,1.11,0,0,1,1.11-.43c.1.19.3.21.48.23A2.86,2.86,0,0,1,79.31,171.66Z"/><path class="cls-131" d="M71.82,171.39c0-.65,0-1.31,0-2,.63-.27,1,.26,1.43.51a20,20,0,0,0,3.4,1.85c.6.23,0,.32,0,.48-.28.67-.94.58-1.48.73a.94.94,0,0,1-.6-.24C73.91,171.81,72.75,171.83,71.82,171.39Z"/><path class="cls-64" d="M73.14,168.55a3.33,3.33,0,0,1,2.39.82,6.79,6.79,0,0,0,2.36,1.25,1.54,1.54,0,0,1,1.19,1c-.33.29-.65.54-1.1.23a11.33,11.33,0,0,0-4.87-2.73C72.82,169,73.11,168.74,73.14,168.55Z"/><path class="cls-132" d="M75.12,172.92c.48-.29,1.1-.26,1.54-.65L78,172a.59.59,0,0,1,.74.05l-.5.22c-1.07.11-2,.8-3.07.86a.2.2,0,0,1-.06-.17C75.09,173,75.11,172.92,75.12,172.92Z"/><path class="cls-133" d="M78.71,172.09,78,172c0-.07,0-.14,0-.21l1.1-.23.27.05C79.33,172.09,79,172.08,78.71,172.09Z"/><path class="cls-134" d="M73.14,177.73c-1.27-1-1.25-1.68.07-2.71.24-.2.55-.38.6-.75l.42,0c.33-.14.65-.26,1,.06.15.43-.14.72-.33,1.05a12,12,0,0,0-1.41,2.12A.38.38,0,0,1,73.14,177.73Z"/><path class="cls-135" d="M75.12,172.92l0,.25a19,19,0,0,1-2.61,1.06l.39-.65.09-.11a1,1,0,0,1,.25-.14c.52-.12.92-.48,1.42-.63A.48.48,0,0,1,75.12,172.92Z"/><path class="cls-136" d="M78.64,172.7a3.25,3.25,0,0,1,1.32.49.21.21,0,0,1,0,.26,4.06,4.06,0,0,1-1.22.49.77.77,0,0,1-.27-.07c-.19-.26-.22-.59-.43-.84a.56.56,0,0,0,0-.12C78.14,172.68,78.41,172.75,78.64,172.7Z"/><path class="cls-137" d="M75.12,174.45c-.23-.32-.58-.18-.89-.22a5.2,5.2,0,0,1,2.21-.88.35.35,0,0,1,0,.3C76.06,174,75.88,174.7,75.12,174.45Z"/><path class="cls-136" d="M76.44,173.58v-.23a1.94,1.94,0,0,1,1.52-.44l0,0C77.68,173.65,77.08,173.67,76.44,173.58Z"/><path class="cls-138" d="M74.68,172.7c-.31.65-.94.73-1.54.87-.19-.17-.18-.46-.35-.64s-.26-.5-.55-.37-.13.38-.22.57a.63.63,0,0,1-.2.23c-.4-.38-.12-.88-.24-1.31,0-.23,0-.51.24-.66C73,171.39,74.13,171.41,74.68,172.7Z"/><path class="cls-139" d="M71.82,173.36c0-.07,0-.15,0-.22.47-.13,1-.27,1.09.44h0c-.47-.14-.64.34-1,.51C71.75,173.86,71.85,173.6,71.82,173.36Z"/><path class="cls-140" d="M80,177.73v-.87a.31.31,0,0,1-.09-.27c.19-.67.79-1.11,1-1.77.1-.37-.48-.91.26-1.13.34.08.74.06.8.54C81.68,175.63,80.64,176.58,80,177.73Z"/><path class="cls-68" d="M83.25,174.89a6.27,6.27,0,0,1-1.1,1.31.3.3,0,0,1,0-.44v-.43c.18-.2.22-.49.44-.66a.39.39,0,0,1,.25-.12A.44.44,0,0,1,83.25,174.89Z"/><path class="cls-141" d="M82.81,174.67h-.22a.67.67,0,0,0-.66-.44,1.23,1.23,0,0,0-.87-.44s-.07-.09,0-.14,0-.07,0-.07a4,4,0,0,1,1.77.65A.31.31,0,0,1,82.81,174.67Z"/><path class="cls-141" d="M82.15,175.76v.88h-.66C81.68,176.32,81.76,175.92,82.15,175.76Z"/><path class="cls-141" d="M82.59,174.67a.67.67,0,0,1-.44.66C82.15,175,82.15,174.69,82.59,174.67Z"/><path class="cls-142" d="M80,176.64v.22a8.59,8.59,0,0,0-1.66,2.5,4.39,4.39,0,0,1-1.65,2.09,1.48,1.48,0,0,1-.66-.65c1.08-.53,1.45-1.59,2-2.54s1.17-1.85,1.74-2.77c.15-.25.36-.6.78-.32C80.71,175.8,80,176.1,80,176.64Z"/><path class="cls-143" d="M80.39,175.11a12.94,12.94,0,0,0-2.21,3.5c-.27.63-1,1-.94,1.83,0,.4-.83.16-1.25.36l-.21-.22a2.09,2.09,0,0,1,.49-.9,35.59,35.59,0,0,1,2.48-3.93c.57-.71.43-1.77,1.19-2.39a1,1,0,0,1,0-.17,1.68,1.68,0,0,1,1.1.39v.21c-.22.43.09.75.21,1.1A1.91,1.91,0,0,1,80.39,175.11Z"/><path class="cls-144" d="M76.44,179.92l-.66.66-.45-.44a3.37,3.37,0,0,1,.43-.92.56.56,0,0,1,.31,0C76.39,179.33,76.68,179.49,76.44,179.92Z"/><path class="cls-136" d="M74.68,179.67l-.22-.41c.14-.41.39-.64.86-.5.22.31.07.61,0,.92a.67.67,0,0,1-.19.25Z"/><path class="cls-145" d="M75.12,179.93v-.23c.19-.19.24-.59.66-.44,0,.35.14.81-.45.88Z"/><path class="cls-146" d="M86.52,164.61l-.22.44c-.16.12,0,.57-.41.44a1,1,0,0,0-.6-1.06c-1.2-.67-2.39-1.36-3.61-2A5,5,0,0,1,80,160.9c1.59-.72,2.34.75,3.41,1.34a9.93,9.93,0,0,0,2.74,1.28Z"/><path class="cls-147" d="M85,166.15c-1.17.59-1.85-.4-2.69-.83s-1.67-1-2.53-1.44a2.77,2.77,0,0,1-1.37-1.45c.57-.38,1,0,1.54.22,1.49.77,2.88,1.74,4.35,2.56C84.68,165.42,85.11,165.59,85,166.15Z"/><path class="cls-148" d="M85,166.15c-.4-.74-1.19-.94-1.84-1.29a16.7,16.7,0,0,0-3-1.74c-.1,0-.14-.31-.2-.47.27,0,.51-.17.82,0,1.47.92,3,1.79,4.45,2.67a.77.77,0,0,1,.44.79l-.09.09a.29.29,0,0,1-.35-.08Z"/><path class="cls-149" d="M85.89,165.49l.41-.44a4,4,0,0,1-.61,2l-.13-.12a.64.64,0,0,1,.11-.77h0C85.93,166,85.88,165.73,85.89,165.49Z"/><path class="cls-150" d="M83.91,167.24c-1.12.45-1.68-.19-2.28-1a3.07,3.07,0,0,0-2.13-1c-.77-.12-1.32-.36-1.08-1.28,1.33.14,2.32,1,3.43,1.63.47.25.93.49,1.4.72A1.07,1.07,0,0,1,83.91,167.24Z"/><path class="cls-150" d="M84.6,169.06c0-.69-.78-1.1-.69-1.82.69-.82.65.49,1.12.39,0,0,.16.2.25.32C85.21,168.41,85.23,168.93,84.6,169.06Z"/><path class="cls-148" d="M85.69,167c-.31.22,0,.7-.42.9.07-.53-.39-1,0-1.58.57-.08.18.46.4.61Z"/><path class="cls-72" d="M85.63,167l-.4-.61v-.21h.44Z"/><path class="cls-151" d="M101.47,170.28c.34.07,1-.47.85.5-.13.21,0,.5-.19.69a1,1,0,0,1-1.09-.38.51.51,0,0,1-.08-.29c0-.3.38-.32.5-.53Z"/><path class="cls-152" d="M102.15,171.39c0-.21-.05-.45.17-.61,0,.93,0,1.87,0,2.81h-.17l-.13-.13a1.16,1.16,0,0,1-.15-.51C101.88,172.41,101.75,171.85,102.15,171.39Z"/><path class="cls-153" d="M100.83,177.51c-.82.2-1.08-.64-1.64-.93a21.44,21.44,0,0,1-4.38-2.64c-.36-.31-.86.25-1.23-.14a.17.17,0,0,1-.26,0,.36.36,0,0,1,.21-.38,3.57,3.57,0,0,0,.94-.46c.51-.17,1-.63,1.57-.2a1.94,1.94,0,0,0,1.26,1.43c1,.52,2,1.05,3,1.62.38.2.81.34.92.83Z"/><path class="cls-154" d="M101.27,176.64c-1.33-.72-2.63-1.5-4-2.13-.54-.26-.82-.82-1.43-1-.13,0,.34-.34.16-.62a1.24,1.24,0,0,1,.4-.58c.18-.09.35-.22.55-.07a8,8,0,0,0,.58.85,13.33,13.33,0,0,0,3.74,2,1.21,1.21,0,0,1,.88.87v.22Z"/><path class="cls-155" d="M102.16,173.58v1.31a1.12,1.12,0,0,1-1.47-.25c-.83-.55-1.4-1.43-2.37-1.8-.59-.5-.48-.8.25-.94a2.83,2.83,0,0,1,2,.94c.43.53,1.21.19,1.59.74Z"/><path class="cls-156" d="M100.83,174.45c.29.59.93.14,1.32.44V176a3.12,3.12,0,0,0-1.28-.69,9.34,9.34,0,0,1-3.55-2.15,1.45,1.45,0,0,1,.85-.08C99.12,173.4,99.76,174.34,100.83,174.45Z"/><path class="cls-157" d="M75.34,178.83c-.38,0-.58.31-.88.43l-.44-.43c-.19-.32-.45-.58-.66-.88l-.22-.22.22-.22c.4-.75.88-1.45,1.32-2.18,0-.38.32-.57.44-.88.55-.13.74-.78,1.32-.87l1.54-.65c.55.09.62.41.44.87-.6,1.46-1.51,2.76-2.13,4.21A1.34,1.34,0,0,1,75.34,178.83Z"/><path class="cls-137" d="M73.36,178a1,1,0,0,1,.66.88A1.07,1.07,0,0,1,73.36,178Z"/><path class="cls-158" d="M93.36,173.8h.22c-.08.27-.66.12-.48.64a.58.58,0,0,0,.7.45c.66.35,1.13,1,1.82,1.29a.34.34,0,0,1,.13.53,1.06,1.06,0,0,1-1.28-.22,5.46,5.46,0,0,0-1.41-.8,1.89,1.89,0,0,1-.6-.45c-.27-.31-.76-.6-.39-1.09S92.79,173.41,93.36,173.8Z"/><path class="cls-158" d="M100,178.61l-.21.22c-.24.13-.45.38-.76.17a.84.84,0,0,0-.72-.25.66.66,0,0,1-.48-.29c-.28-.41-.76-.53-1.12-.81s-.82-.49-.66-1.07a.36.36,0,0,1,.44.06h.22C97.43,177.83,98.84,178,100,178.61Z"/><path class="cls-82" d="M96.44,176.64H96a.14.14,0,0,1-.22,0c-.52-.74-1.65-.79-2-1.75A5.9,5.9,0,0,1,96.44,176.64Z"/><path class="cls-159" d="M98,178.39a.48.48,0,0,0,.44.22,1,1,0,0,1,.66.22c.22.25.44-.08.67,0l-.24.63c-.4-.06-.62.23-.87.46A3.2,3.2,0,0,0,97.1,179c-.17-.29-.49-.59.05-.83A.82.82,0,0,1,98,178.39Z"/><path class="cls-160" d="M100.39,166.58a.76.76,0,0,1,.44.44,1.51,1.51,0,0,1-.29,1.91c-.33.34-1,.67-.75,1.4a.31.31,0,0,1-.08.26c-.42.25-.94.14-1.37.36H98.2c-.68,0-1-.16-.47-.87s1.6-1.47,1.17-2.73c-.05-.13.14-.35.24-.29C99.8,167.47,100,166.76,100.39,166.58Z"/><path class="cls-161" d="M98,165.05c.36-.06.73.23,1.1,0,.15.9-.72,1.32-1,2a22.74,22.74,0,0,1-2.1,3.54,8.64,8.64,0,0,1-.85,1c-.77-.27-.33-.8-.28-1.25a3.39,3.39,0,0,1,.47-1,2.17,2.17,0,0,0,.77-1,1.3,1.3,0,0,1,.18-.23,3.34,3.34,0,0,0,.88-2.22A1.48,1.48,0,0,1,98,165.05Z"/><path class="cls-162" d="M96.88,172.34l-.44.13c-.21.24-.48.12-.73.12a.81.81,0,0,1-.57-.21.35.35,0,0,1-.09-.28l.09-.12a2.24,2.24,0,0,0,2-.32c.72-.22,1.35-.78,2.17-.66a.49.49,0,0,1,.26.21c0,.34-.21.49-.5.6C98.27,171.7,97.69,172.5,96.88,172.34Z"/><path class="cls-163" d="M99.44,171.14l-2.31.52c.18-.5.8-.34,1.07-.7h0c.45-.35,1-.19,1.53-.44h0a1.15,1.15,0,0,1,.45-.37,1.12,1.12,0,0,1,.86-.09l0,.26C100.78,171.1,100.1,171.11,99.44,171.14Z"/><path class="cls-87" d="M95.12,170.3c0,.44-.51.87,0,1.31l.29.08-.27.29a.26.26,0,0,0,0,.15c-.51.14-.94.09-1.15-.47l0-.27C94,170.67,94.27,170.18,95.12,170.3Z"/><path class="cls-164" d="M95.12,170.3c-.59.14-.83.63-1.1,1.09a.75.75,0,0,1-.44-.43c1-2.36,2.7-4.34,3.82-6.64a.26.26,0,0,1,.36-.14c.52.18.22.56.22.87a2.49,2.49,0,0,1-.66.88,4.77,4.77,0,0,1-1.1,2.4h0c-.24.35-.44.73-.66,1.09Z"/><path class="cls-165" d="M97.76,164.18A57.71,57.71,0,0,1,93.58,171a1.8,1.8,0,0,1,.4-1.62,42,42,0,0,0,2.85-4.72c.24-.38.42-.72.93-.66Z"/><path class="cls-166" d="M100.18,170.31a.47.47,0,0,1-.45.21c-.41-.4-.6-.63.06-1.13a2.8,2.8,0,0,0,1-2.37,1.81,1.81,0,0,1,.89,2.19h0A5.1,5.1,0,0,1,100.18,170.31Z"/><path class="cls-167" d="M99.44,171.14c.47-.41,1.18-.36,1.62-.82l.4,0c0,.3-.25.39-.41.56-.41.45-.85.75-1.48.39Z"/><path class="cls-88" d="M100.18,170.31a3.62,3.62,0,0,1,1.54-1.1c0,.49-.45.57-.68.85A1.47,1.47,0,0,1,100.18,170.31Z"/><path class="cls-168" d="M89,177.08a.43.43,0,0,0-.21.43c.25.74,1.06.51,1.53.88h0c.36.24.74.43,1.1.65h0c.91.6,2,.92,2.86,1.53a2.29,2.29,0,0,0,2.64,1.1c-.77.88-1.36,1-2.5.29-1.5-.91-3-1.82-4.46-2.8-.55-.38-1-.58-1.4.39v-1.38c0-.24,0-.49-.19-.66a2.5,2.5,0,0,1,.75-2.18.32.32,0,0,1,.31,0C89.52,176,88.87,176.43,89,177.08Z"/><path class="cls-169" d="M96,179.48v.22c-1.32,0-2.21-1-3.29-1.56-.88-.43-1.79-.91-2.65-1.44-.52-.31,0-.34,0-.5a16.41,16.41,0,0,1,2.64,1.25C93.76,178.2,94.88,178.84,96,179.48Z"/><path class="cls-170" d="M90.72,174.89c-.39.16-.47.56-.66.88-.31-.23-.19-.56-.21-.85l0-.07c.26-.24.48-.56.92-.45C90.87,174.57,91.27,174.75,90.72,174.89Z"/><path class="cls-171" d="M90.72,174.89c.25-.17,0-.32,0-.48a.18.18,0,0,1,.05-.24,2.91,2.91,0,0,0,1.49-.41,2.45,2.45,0,0,1,1.31-.47.2.2,0,0,1,0,.29l-.22.22c-.52-.07-1.1.23-1.14.57,0,.49.62.76.92,1.18,1.33.69,2.5,1.65,3.86,2.3a.32.32,0,0,1,.1.54c-.26.22.07.43,0,.65-1.68-.56-2.93-1.93-4.62-2.47-.19-.06-.3-.39-.44-.59a.25.25,0,0,1-.22-.22C91.6,175.29,90.8,175.55,90.72,174.89Z"/><path class="cls-170" d="M91.82,175.76,92,176c0,.2.07.53-.19.55s-.6-.31-.76-.64C91.32,175.68,91.58,175.8,91.82,175.76Z"/><path class="cls-172" d="M94.24,180.57A5.76,5.76,0,0,1,91.38,179,4.94,4.94,0,0,1,94.24,180.57Z"/><path class="cls-172" d="M90.28,178.39c-.58-.17-1.55.34-1.53-.88C89.25,177.82,90,177.76,90.28,178.39Z"/><path class="cls-172" d="M91.38,179a1,1,0,0,1-1.1-.65A1.05,1.05,0,0,1,91.38,179Z"/><path class="cls-173" d="M80.39,181.67c-.12-1.41,1-2.25,1.57-3.34s1.4-1.75,1.61-2.9c0-.14.26-.23.39-.35l.2.18c.18,1-.57,1.56-1,2.3a9.91,9.91,0,0,1-1.69,2.36C80.94,180.45,81.28,181.43,80.39,181.67Z"/><path class="cls-174" d="M82.81,174.67c0-.15,0-.29,0-.44a1.29,1.29,0,0,1,1.07.66h-.64Z"/><path class="cls-175" d="M89.84,169.84c.28-.54.67-1.05.49-1.72.93,0,.64-.89,1-1.31A15.64,15.64,0,0,0,94,162.36c.15-.33.3-.57.69-.59h.22a.31.31,0,0,1,0,.44c-1.1,1.62-1.7,3.52-3,5,.35,1.26-1.47,1.44-1.33,2.62a4.12,4.12,0,0,1-.55.13c-.06.06-.12.11-.16.09S89.81,169.94,89.84,169.84Z"/><path class="cls-55" d="M94.9,162.21v-.44c.21.15.51.22.47.57Z"/><path class="cls-116" d="M89,163.74c.24-1.34,1.33-2.17,2-3.28A6,6,0,0,1,89,163.74Z"/><path class="cls-176" d="M89.17,169a2.74,2.74,0,0,1-.68-1.54h.25a.45.45,0,0,0,.23.43.81.81,0,0,0,.43.22A1.42,1.42,0,0,1,89.17,169Z"/><path class="cls-177" d="M87.21,161.12a1.8,1.8,0,0,1,1.1-1.53c-.21.57-.4,1.14-.64,1.7,0,.09-.17.37-.39.23S87.23,161.26,87.21,161.12Z"/><path class="cls-177" d="M88.53,159.15c0-.67.76-1.05.66-1.75.69.19.48.61.2,1A6.45,6.45,0,0,1,88.53,159.15Z"/><path class="cls-177" d="M86.57,161.33l.42-.21c0,.37,0,.73,0,1.1Z"/><path class="cls-178" d="M90.06,167.46a14.4,14.4,0,0,1,2.64-4.81c.29,1-.72,1.48-1,2.25-.24.62-.78,1.1-.79,1.85C90.89,167.16,90.52,167.42,90.06,167.46Z"/><path class="cls-178" d="M89.4,168.11c-.23.11-.45.17-.43-.22l.21-.21c.38.25.54-.36.88-.22C90.1,167.93,90.1,168.37,89.4,168.11Z"/><path class="cls-137" d="M74.68,175.33a3.82,3.82,0,0,1-1.32,2.18l-.26-.33C73.86,176.76,73.89,175.72,74.68,175.33Z"/><path class="cls-62" d="M72.92,173.58c-.24-.45-.75-.23-1.09-.44a2.84,2.84,0,0,1,.33-1.24c.37.6,1.34.71,1,1.67Z"/><path class="cls-179" d="M76.44,179.92c0-.34-.31-.43-.44-.66a14.87,14.87,0,0,1,1.64-3.35,9.93,9.93,0,0,0,1-2.11,2.53,2.53,0,0,1,1.3-.44,11,11,0,0,1-1.94,4C77.47,178.22,77,179.07,76.44,179.92Z"/><path class="cls-180" d="M78.64,173.8a1.82,1.82,0,0,1-.45,1.77c-.93,1.11-1.15,2.64-2.19,3.69h-.22l-.66.44a1.47,1.47,0,0,1,.22-.87,23.41,23.41,0,0,0,2.22-4c.23-.41.39-.85.86-1.06Z"/><path class="cls-69" d="M80.39,175.11c.13-.76.6-.11.88-.22L80,176.64C79.82,176.05,80.53,175.7,80.39,175.11Z"/><path class="cls-181" d="M99.57,171.22a5.06,5.06,0,0,0,1.48-.39s0,.09,0,.13c-.41,1-.41,1,.73,1.3.51.13,0,.66.36.88v.44a2.26,2.26,0,0,1-2.16-.92c-.33-.42-1-.26-1.36-.61-.14-.43.36-.24.44-.46Z"/><path class="cls-182" d="M102.15,173.14c-.16-.49-.66-.46-1-.66-1.18-.65-1.18-.64-.07-1.52l1.09.43Z"/><path class="cls-183" d="M94,173.12a1.21,1.21,0,0,0,0-.18,1.88,1.88,0,0,1,1.59-.44l.82,0a.73.73,0,0,1-.44.45c-.58-.33-1,.22-1.54.23A.34.34,0,0,1,94,173.12Z"/><path class="cls-158" d="M94,173.12l.48,0a.78.78,0,0,1-.88.43l0-.29C93.64,173.1,93.8,173.1,94,173.12Z"/><path class="cls-184" d="M99.07,171.59l-.44.46c-.6,0-.62.28-.22.65-.06.23-.28.31-.43.44-.22.35-.44.06-.66,0a.7.7,0,0,1-.44-.8A6.26,6.26,0,0,1,99.07,171.59Z"/><path class="cls-185" d="M98,173.14a.4.4,0,0,1,.43-.44c1.1.19,1.61,1.18,2.42,1.75C99.57,174.69,98.9,173.63,98,173.14Z"/><path class="cls-186" d="M97.1,178.39c-1.1-.77-2.2-1.54-3.31-2.3-.24-.16-.53-.24-.65-.54a1.83,1.83,0,0,1,1.39.66,1.62,1.62,0,0,0,1.25.43H96a2.59,2.59,0,0,0,1.26,1.07c.3.15.69.22.71.68Z"/><path class="cls-186" d="M99.07,178.83c-.24,0-.5,0-.66-.22C98.79,178.22,98.91,178.59,99.07,178.83Z"/><path class="cls-166" d="M99.73,170.52a2.32,2.32,0,0,1-1.53.44C98.55,170.26,99.2,170.6,99.73,170.52Z"/><path class="cls-87" d="M96.22,168.33a21.62,21.62,0,0,1,1.1-2.4C97.33,166.9,97.27,167.84,96.22,168.33Z"/><path class="cls-87" d="M95.56,169.42a1,1,0,0,1,.66-1.09A1,1,0,0,1,95.56,169.42Z"/><path class="cls-187" d="M92.25,173.76a1.33,1.33,0,0,1-1.46.47c-.09,0-.11-.08-.08-.12a.12.12,0,0,1,.09-.06Z"/><ellipse class="cls-1" cx="120.6" cy="92.55" rx="7.11" ry="10.21"/><polygon class="cls-1" points="149.63 88.96 160.25 88.74 171.06 101.73 149.74 101.53 149.63 88.96"/><image width="600" height="340" transform="translate(173.59 113.18) scale(0.13)" xlink:href="../dstv-logo_0.png"/></g></g></svg>